<svg width="290" height="254" viewBox="0 0 290 254" fill="none" xmlns="http://www.w3.org/2000/svg">
<path d="M250.347 85.4234C251.158 90.3434 254.024 97.6422 258.565 101.102C258.565 101.102 261.809 107.428 258.241 111.753C261.971 112.456 265.053 112.51 267.486 112.24C267.432 111.699 267.432 111.213 267.378 110.672C267.324 107.374 268.027 104.184 268.838 100.994C269.541 98.3451 271.217 95.7499 271 92.8845C270.838 90.2893 269.162 88.2348 267.973 86.0722C266.946 84.1259 266.837 82.0714 267.378 79.9628C267.973 77.7461 268.405 75.5835 267.811 73.3128C266.783 69.6363 263.918 68.3928 259.917 67.3655C259.755 67.3115 259.268 67.2033 258.944 67.0952C255.808 68.7712 253.159 71.4745 251.591 74.6103C250.023 77.9624 249.753 81.747 250.347 85.4234Z" fill="white"/>
<path d="M265 112.619C265.865 112.619 266.676 112.565 267.487 112.457C267.649 112.457 267.703 112.294 267.703 112.186C267.649 111.7 267.649 111.159 267.595 110.672C267.541 107.266 268.298 103.914 269.055 101.103C269.271 100.184 269.649 99.3187 269.974 98.3996C270.676 96.6695 271.379 94.8313 271.217 92.8849C271.109 90.8845 270.082 89.1544 269.055 87.4784C268.73 86.9918 268.46 86.4511 268.189 85.9645C267.216 84.1804 267.054 82.234 267.649 80.0173C268.189 78.0169 268.73 75.638 268.081 73.2591C267.054 69.5827 264.243 68.231 259.972 67.1497C259.755 67.0957 259.323 66.9875 258.998 66.8794C258.944 66.8794 258.89 66.8794 258.782 66.8794C255.592 68.5554 252.889 71.3668 251.321 74.5026C249.807 77.6384 249.321 81.423 250.023 85.4239C250.888 90.6682 253.862 97.8049 258.295 101.211C258.458 101.481 259.106 102.941 259.431 104.779C259.917 107.537 259.431 109.807 257.971 111.538C257.917 111.592 257.917 111.7 257.917 111.808C257.971 111.916 258.025 111.97 258.133 111.97C260.566 112.457 262.837 112.673 265 112.619ZM267.162 111.97C264.567 112.24 261.702 112.132 258.674 111.538C259.972 109.753 260.458 107.374 259.972 104.725C259.593 102.617 258.782 101.049 258.782 100.941C258.782 100.887 258.728 100.887 258.728 100.833C254.403 97.5346 251.483 90.506 250.618 85.3157C249.969 81.423 250.402 77.7466 251.862 74.6648C253.321 71.6372 255.917 68.988 258.998 67.3119C259.323 67.4201 259.701 67.5282 259.863 67.5822C264.026 68.6095 266.622 69.9071 267.595 73.3132C268.244 75.5839 267.703 77.8547 267.162 79.8011C266.513 82.0718 266.73 84.2344 267.757 86.1267C268.027 86.6674 268.352 87.154 268.676 87.6946C269.649 89.3166 270.622 90.9386 270.731 92.8309C270.839 94.6691 270.136 96.3992 269.487 98.1293C269.163 99.0484 268.784 99.9675 268.568 100.887C267.811 103.752 267.054 107.158 267.108 110.618C267.108 111.105 267.162 111.538 267.162 111.97Z" fill="#252B31"/>
<path d="M263.162 103.211C263.27 103.211 263.378 103.103 263.432 102.995C263.432 102.833 263.324 102.725 263.216 102.725C261.648 102.563 260.188 101.968 258.728 100.887C258.62 100.778 258.458 100.833 258.35 100.941C258.242 101.049 258.296 101.211 258.404 101.319C259.918 102.4 261.486 103.049 263.162 103.211Z" fill="#252B31"/>
<path d="M258.998 67.3658C259.052 67.3658 259.052 67.3658 259.107 67.3117C259.647 66.9873 260.242 66.7711 260.837 66.5007C260.945 66.4467 261.053 66.2845 260.999 66.1763C260.945 66.0682 260.783 65.9601 260.674 66.0141C260.08 66.2304 259.485 66.5007 258.89 66.8251C258.782 66.8792 258.728 67.0414 258.782 67.1495C258.782 67.3117 258.89 67.3658 258.998 67.3658Z" fill="#252B31"/>
<path d="M241.265 131.92H288.41C289.599 127.271 290.194 122.351 289.437 117.647C289.167 115.809 288.464 113.538 287.004 112.24C286.734 112.024 286.409 111.808 286.085 111.646C284.733 110.943 282.895 110.781 281.489 110.672C279.543 110.564 277.705 110.997 275.758 111.105C274.028 111.213 272.298 111.159 270.568 111.592C269.703 111.808 268.676 112.024 267.486 112.186C265.054 112.457 262.026 112.457 258.241 111.7C257.43 111.538 256.565 111.375 255.7 111.105C255.7 111.105 240.454 108.131 240.616 120.296C240.724 130.244 241.265 131.92 241.265 131.92Z" fill="#F28BDC"/>
<path d="M288.41 132.137C288.518 132.137 288.626 132.082 288.626 131.92C289.978 126.514 290.356 121.81 289.654 117.539C289.383 115.755 288.68 113.376 287.112 111.97C286.842 111.754 286.518 111.538 286.139 111.321C284.68 110.564 282.841 110.402 281.436 110.348C280.246 110.294 279.003 110.456 277.867 110.564C277.164 110.673 276.407 110.727 275.705 110.781C275.326 110.781 274.948 110.835 274.569 110.835C273.218 110.889 271.866 110.943 270.46 111.321C269.487 111.592 268.46 111.808 267.379 111.916C264.567 112.24 261.539 112.078 258.241 111.429C257.43 111.267 256.565 111.051 255.7 110.835C255.592 110.835 253.7 110.456 251.159 110.51C248.834 110.564 245.536 111.051 243.265 112.997C241.265 114.673 240.292 117.106 240.346 120.296C240.454 130.136 240.995 131.866 240.995 131.92C241.049 132.028 241.103 132.082 241.211 132.082L288.41 132.137ZM280.679 110.889C280.949 110.889 281.219 110.889 281.436 110.889C282.733 110.943 284.571 111.105 285.923 111.808C286.247 111.97 286.518 112.186 286.788 112.403C288.248 113.646 288.897 115.971 289.167 117.647C289.816 121.81 289.545 126.406 288.194 131.65H241.481C241.373 131.001 240.995 128.514 240.886 120.35C240.832 117.323 241.751 114.998 243.644 113.43C247.807 109.97 255.376 111.321 255.646 111.375C256.511 111.592 257.376 111.808 258.187 111.97C261.539 112.619 264.675 112.781 267.487 112.457C268.568 112.349 269.649 112.132 270.622 111.862C271.92 111.484 273.218 111.484 274.623 111.429C275.002 111.429 275.38 111.429 275.759 111.375C276.516 111.321 277.273 111.267 277.975 111.159C278.84 111.051 279.76 110.943 280.679 110.889Z" fill="#F28BDC"/>
<path d="M258.241 67.3119C258.295 67.3119 266.567 67.7985 267.865 73.3132C268.406 75.5839 268.027 77.7465 267.432 79.9632C266.838 82.0718 266.946 84.1263 268.027 86.0726C269.217 88.2352 270.893 90.3438 271.055 92.8849C271.217 95.7504 269.541 98.2914 268.892 100.995C268.081 104.131 267.378 107.374 267.432 110.672C267.432 111.213 267.487 111.7 267.541 112.24C267.973 116.512 269.919 120.729 274.083 122.513C277.489 123.973 282.3 123.432 284.301 120.08C285.815 117.593 286.193 114.619 286.139 111.7C286.139 110.997 286.085 110.294 286.031 109.645C285.761 106.834 284.625 104.401 284.139 101.698C283.274 97.102 283.76 92.2361 284.085 87.5865C284.301 84.2885 284.355 80.9364 283.544 77.6925C282.517 73.6376 279.868 70.5018 276.353 68.3932C273.434 66.6631 270.352 65.5818 266.946 65.3655C264.567 65.2033 261.972 65.3655 259.809 66.5009C259.323 66.609 258.512 67.0956 258.241 67.3119Z" fill="white"/>
<path d="M277.975 123.432C278.57 123.432 279.111 123.378 279.705 123.27C281.814 122.837 283.49 121.756 284.463 120.134C285.815 117.917 286.41 115.106 286.356 111.646C286.356 110.997 286.301 110.294 286.247 109.537C286.085 107.915 285.653 106.347 285.22 104.887C284.896 103.806 284.571 102.725 284.355 101.589C283.598 97.5886 283.923 93.3174 284.193 89.2625C284.247 88.6678 284.247 88.1271 284.301 87.5865C284.517 83.8019 284.517 80.6661 283.76 77.6384C282.733 73.6916 280.192 70.3936 276.407 68.177C273.272 66.3387 270.19 65.3115 266.892 65.1493C263.81 64.9871 261.431 65.3655 259.593 66.2847C259.323 66.4469 258.404 66.9875 258.079 67.2578C258.025 67.3119 257.971 67.42 258.025 67.4741C258.025 67.5822 258.133 67.6363 258.187 67.6363C258.241 67.6363 258.241 67.6363 258.295 67.6363C259.863 67.7985 261.485 68.1229 262.837 68.6635C265.486 69.6908 267.108 71.3128 267.595 73.4213C268.135 75.8002 267.703 78.0709 267.162 79.9092C266.513 82.1799 266.73 84.3426 267.757 86.2348C268.027 86.7755 268.352 87.2621 268.676 87.8027C269.649 89.4247 270.622 91.0467 270.731 92.939C270.839 94.7772 270.136 96.5073 269.487 98.2374C269.163 99.1565 268.784 100.076 268.568 100.995C267.811 103.86 267.054 107.266 267.108 110.727C267.108 111.267 267.162 111.808 267.216 112.294C267.433 114.619 268.081 116.728 269.109 118.458C270.298 120.458 271.92 121.918 273.92 122.729C275.164 123.216 276.57 123.486 277.975 123.432ZM265 65.4737C265.594 65.4737 266.189 65.4737 266.838 65.5277C270.028 65.744 273.055 66.7172 276.137 68.5014C279.814 70.664 282.247 73.8538 283.22 77.6384C283.977 80.612 283.977 83.6938 283.76 87.4243C283.706 87.9649 283.706 88.5597 283.652 89.1003C283.382 93.2093 283.112 97.4805 283.868 101.589C284.085 102.725 284.409 103.86 284.734 104.942C285.166 106.401 285.599 107.915 285.761 109.537C285.815 110.24 285.869 110.943 285.869 111.592C285.923 114.998 285.382 117.701 284.085 119.81C282.138 123.053 277.435 123.54 274.191 122.134C270.622 120.621 268.244 116.944 267.811 112.078C267.757 111.592 267.757 111.051 267.703 110.564C267.649 107.158 268.406 103.806 269.163 100.995C269.379 100.076 269.757 99.2106 270.082 98.2915C270.785 96.5614 271.487 94.7231 271.325 92.7768C271.217 90.7764 270.19 89.0463 269.163 87.3702C268.838 86.8836 268.568 86.343 268.298 85.8564C267.324 84.0722 267.162 82.1259 267.757 79.9092C268.298 77.9628 268.784 75.638 268.189 73.151C267.649 70.8802 265.973 69.1501 263.107 68.0148C261.864 67.5282 260.458 67.2038 258.998 66.9875C259.269 66.8253 259.647 66.6091 259.863 66.5009C261.161 65.9062 262.891 65.5277 265 65.4737Z" fill="#252B31"/>
<path d="M262.405 84.5048C263.81 84.4508 264.837 83.3694 264.892 83.3154C265 83.2073 265 83.0451 264.892 82.9369C264.783 82.8288 264.621 82.8288 264.513 82.9369C264.513 82.9369 263.594 83.9642 262.405 83.9642C262.405 83.9642 262.405 83.9642 262.35 83.9642C261.648 83.9642 260.945 83.5857 260.296 82.8829C260.188 82.7747 260.026 82.7747 259.918 82.8829C259.809 82.991 259.809 83.1532 259.918 83.2613C260.674 84.1264 261.485 84.5048 262.405 84.5048Z" fill="#252B31"/>
<path d="M252.835 83.8559C254.241 83.8018 255.268 82.7205 255.322 82.6665C255.43 82.5583 255.43 82.3961 255.322 82.288C255.214 82.1799 255.052 82.1799 254.944 82.288C254.944 82.288 254.025 83.3152 252.835 83.3152C252.132 83.3152 251.429 82.9368 250.781 82.2339C250.673 82.1258 250.51 82.1258 250.402 82.2339C250.294 82.3421 250.294 82.5043 250.402 82.6124C251.105 83.4234 251.97 83.8559 252.835 83.8559Z" fill="#252B31"/>
<path d="M256.674 89.7491C257.106 89.7491 257.485 89.2625 257.701 88.2893C258.079 86.8836 258.133 84.4507 257.485 82.3421C257.593 82.1799 257.647 82.0177 257.755 81.9096C260.188 78.0709 265.973 79.747 266.027 79.747C266.135 79.801 266.297 79.6929 266.351 79.5848C266.405 79.4766 266.297 79.3144 266.189 79.2604C266.135 79.2604 264.621 78.8279 262.783 78.8819C260.296 78.9901 258.458 79.9092 257.322 81.6393C257.322 81.6933 257.268 81.6933 257.268 81.7474C256.836 80.612 256.187 79.6929 255.16 79.0982C254.944 78.936 253.105 77.6384 251.105 77.9087C250.943 77.9087 250.889 78.0709 250.889 78.1791C250.889 78.3413 251.051 78.3953 251.159 78.3953C252.997 78.125 254.835 79.4766 254.835 79.5307C255.809 80.0714 256.457 81.0986 256.836 82.2881C255.971 83.856 255.592 85.2076 255.43 86.1267C255.214 87.4243 255.268 88.5056 255.646 89.1544C256.025 89.5869 256.349 89.8032 256.674 89.7491ZM257.16 82.9909C257.593 84.8291 257.539 86.8836 257.214 88.1812C256.998 89.0462 256.728 89.2625 256.674 89.2625C256.511 89.2625 256.349 89.1544 256.241 88.9381C255.754 88.0731 255.809 85.6942 257.16 82.9909Z" fill="#252B31"/>
<path d="M257.431 93.8581C257.485 93.8581 257.485 93.8581 257.539 93.8581C258.674 93.7499 259.431 92.7227 259.431 92.6686C259.485 92.5605 259.485 92.3983 259.377 92.2902C259.269 92.2361 259.107 92.2361 258.999 92.3442C258.999 92.3442 258.35 93.2633 257.485 93.3174C256.89 93.3715 256.295 93.0471 255.755 92.3983C255.647 92.2902 255.485 92.2902 255.376 92.3983C255.268 92.5064 255.268 92.6686 255.376 92.7767C256.025 93.4796 256.728 93.8581 257.431 93.8581Z" fill="#252B31"/>
<path d="M93.8972 123.128L46.2655 123.561C46.2655 123.561 45.6167 121.128 45.6167 118.046C45.6167 112.045 49.8879 102.475 74.3796 103.827C74.3796 103.773 74.4336 103.773 74.4336 103.719C74.4336 103.719 86.4362 102.692 90.8155 107.936C95.1948 113.234 93.8972 123.128 93.8972 123.128Z" fill="#F28BDC"/>
<path d="M80.0564 73.6585C80.0564 74.3613 79.7861 75.0101 79.5698 75.713C79.1373 76.9565 79.4076 78.3081 79.1913 79.5516C78.8129 81.6061 78.056 83.3362 76.8665 85.1204C75.8933 86.6342 74.5417 87.8777 73.6226 89.4456C72.2169 91.8245 72.2169 94.744 72.7035 97.4473C73.5685 101.881 74.812 104.26 77.245 106.963C78.2722 108.152 80.6511 109.991 81.8406 111.072C70.1624 115.83 62.2148 113.289 58.4302 111.234C60.3765 109.396 61.8363 106.855 62.6473 104.53C63.8367 101.016 64.3233 97.0148 64.2152 93.2843C64.1071 88.5265 61.4578 84.0931 60.1062 79.6057C58.4842 74.3073 57.9977 66.7381 63.5664 63.5482C66.6481 61.7641 70.8653 61.8722 73.8929 63.7104C75.1364 64.4673 76.2177 65.6027 76.7043 67.0084C77.3531 68.8467 76.9206 70.9552 77.5694 72.8475C77.6775 72.3069 78.11 71.9284 78.6507 71.8743C79.5698 71.8203 80.0564 72.8475 80.0564 73.6585Z" fill="white"/>
<path d="M69.1903 113.991C64.2163 113.991 60.5398 112.586 58.3772 111.45C58.3231 111.396 58.269 111.342 58.269 111.288C58.269 111.234 58.269 111.126 58.3231 111.126C60.1073 109.45 61.6211 107.017 62.4862 104.53C63.8919 100.475 64.1081 96.2037 64.0541 93.3382C64 90.1483 62.7565 87.0666 61.567 84.093C60.9723 82.6873 60.4317 81.1734 59.9451 79.7137C58.9719 76.5779 58.6475 73.4421 58.9719 70.7929C59.4044 67.3867 60.9183 64.8997 63.5134 63.3859C65.0813 62.5208 66.8655 62.0342 68.8118 62.0883C70.7041 62.1424 72.5423 62.629 74.0562 63.5481C75.4619 64.4131 76.4891 65.6026 76.9757 66.9542C77.3001 67.9274 77.3542 68.9546 77.4082 69.9278C77.4623 70.6847 77.5164 71.4416 77.6786 72.1986C77.9489 71.8742 78.3274 71.6579 78.7058 71.6579C79.0843 71.6579 79.4087 71.766 79.679 72.0364C80.0575 72.4148 80.3278 73.0095 80.3278 73.6583C80.3278 74.3071 80.1115 74.9559 79.8953 75.6047L79.8412 75.7669C79.6249 76.4697 79.5709 77.1726 79.5709 77.9295C79.5709 78.4702 79.5709 79.0108 79.4627 79.6055C79.0843 81.606 78.3274 83.3901 77.1379 85.2824C76.7054 85.9853 76.1647 86.6341 75.6241 87.2288C75.0294 87.9857 74.3806 88.7426 73.894 89.5536C72.7045 91.554 72.4342 94.2032 73.0289 97.4472C73.894 102.097 75.2997 104.314 77.5164 106.855C78.2733 107.666 79.679 108.909 80.8144 109.882C81.301 110.261 81.7335 110.639 82.0579 110.964C82.1119 111.018 82.166 111.072 82.1119 111.18C82.1119 111.234 82.0579 111.342 82.0038 111.342C77.0298 113.288 72.7586 113.991 69.1903 113.991ZM58.8097 111.18C62.5943 113.126 70.2716 115.451 81.4632 110.964C81.1928 110.693 80.8144 110.423 80.49 110.153C79.3546 109.179 77.8948 107.936 77.1379 107.125C74.8672 104.53 73.4615 102.259 72.5423 97.5012C71.8936 94.1492 72.218 91.3918 73.4615 89.3373C73.9481 88.4723 74.5968 87.7154 75.2456 86.9585C75.7322 86.3637 76.2729 85.715 76.7054 85.0121C77.8948 83.1739 78.6518 81.4438 78.9761 79.4974C79.0843 78.9568 79.0843 78.4161 79.0843 77.9295C79.0843 77.1726 79.0843 76.3616 79.3546 75.6588C79.3546 75.6047 79.4087 75.5506 79.4087 75.4966C79.6249 74.9018 79.8412 74.3071 79.8412 73.7124C79.8412 73.2258 79.6249 72.6852 79.3546 72.4148C79.1383 72.2526 78.9221 72.1445 78.6517 72.1445C78.2192 72.1445 77.8408 72.523 77.7867 72.9014C77.7867 73.0095 77.6786 73.0636 77.5704 73.0636C77.4623 73.0636 77.3542 73.0095 77.3542 72.9014C77.0298 71.9282 76.9757 70.9551 76.9217 69.9819C76.8676 69.0087 76.8135 68.0355 76.4891 67.1164C76.0566 65.8729 75.0834 64.7375 73.7859 63.9265C70.7582 62.0883 66.7033 62.0342 63.6756 63.7643C61.2426 65.17 59.7829 67.5489 59.3504 70.8469C59.026 73.388 59.3504 76.5238 60.3235 79.5515C60.7561 81.0112 61.3508 82.471 61.8914 83.8767C63.0809 86.9044 64.3244 90.0402 64.4325 93.2841C64.4866 96.2037 64.2703 100.475 62.8646 104.638C61.9996 107.071 60.5398 109.45 58.8097 111.18Z" fill="#252B31"/>
<path d="M84.6519 87.1749C84.8141 91.7164 86.4361 95.7173 88.869 99.5019C90.545 102.097 92.9239 105.233 92.3292 108.531C91.8426 111.234 89.1934 113.343 86.4361 113.18C84.9763 113.126 83.6246 112.478 82.4893 111.613C82.273 111.45 82.0567 111.288 81.8405 111.072C80.651 110.045 74.2172 106.098 72.7575 97.4473C72.2709 94.69 72.2168 91.8245 73.6766 89.4457C74.5957 87.8778 75.8933 86.6343 76.9205 85.1204C78.11 83.3363 78.8669 81.6062 79.2453 79.5517C79.4616 78.2541 79.1913 76.9565 79.6238 75.713C79.8401 75.0642 80.1104 74.3614 80.1104 73.6585C80.1104 72.8475 79.6238 71.8744 78.7047 71.8744C78.164 71.8744 77.7315 72.3069 77.6234 72.8475C76.9746 71.0093 77.4071 68.9008 76.7583 67.0085C76.2717 65.6028 75.1904 64.4674 73.9469 63.7105C70.9192 61.8722 66.7021 61.7641 63.6204 63.5483C58.0516 66.7381 58.5382 74.3073 60.1602 79.6057C61.5118 84.0932 64.161 88.5265 64.2692 93.2843C64.3232 97.0148 63.8907 101.016 62.7013 104.53C61.8903 106.855 60.4305 109.396 58.4842 111.234C56.4837 113.126 53.9967 114.37 51.1313 113.937C50.3743 113.829 49.5633 113.559 49.0768 112.964C48.6983 112.586 48.482 112.045 48.3198 111.558C47.1304 107.179 51.1853 103.178 52.4829 99.2856C54.3752 93.3924 52.1044 86.4721 51.4556 80.5248C50.7528 74.3073 51.3475 67.441 55.4024 62.3588C57.6732 59.4933 61.0252 56.9523 64.6476 55.6006C67.8375 54.4112 71.2436 54.1409 74.4335 55.2762C82.9759 58.412 86.8145 66.1434 85.8413 74.902C85.3007 78.9029 84.5438 83.0659 84.6519 87.1749Z" fill="white"/>
<path d="M52.2124 114.207C51.8339 114.207 51.4554 114.153 51.0229 114.099C50.1038 113.937 49.3469 113.613 48.8062 113.072C48.4278 112.693 48.2115 112.207 47.9953 111.558C47.1843 108.53 48.7522 105.773 50.266 103.07C51.0229 101.718 51.7258 100.475 52.1583 99.1771C53.564 94.9059 52.699 90.0941 51.888 85.3904C51.5636 83.6603 51.2933 82.0924 51.1311 80.4704C50.7526 77.0102 50.8067 73.7663 51.3473 70.9008C51.942 67.4947 53.2396 64.5211 55.1319 62.1422C57.5108 59.1145 60.9169 56.6275 64.4852 55.33C67.9995 54.0324 71.4056 53.9243 74.3792 55.0056C78.5423 56.5194 81.7862 59.2227 83.7866 62.791C85.6789 66.2512 86.4359 70.4142 85.8952 74.8476C85.7871 75.8208 85.6249 76.794 85.5167 77.7672C85.0842 80.8489 84.7058 83.9847 84.8139 87.1205C84.9761 91.2835 86.2737 95.1222 88.9769 99.3393C89.1391 99.6096 89.3013 99.88 89.5176 100.15C91.1936 102.637 93.0318 105.503 92.4912 108.53C92.0046 111.342 89.2473 113.504 86.3818 113.342C85.0301 113.288 83.6245 112.693 82.2728 111.72C82.0565 111.558 81.8403 111.342 81.624 111.18C81.4618 111.072 81.2456 110.909 80.9752 110.693C78.9748 109.179 73.7304 105.178 72.4329 97.447C71.8382 93.9327 72.1085 91.3376 73.352 89.2831C73.8386 88.4181 74.4874 87.6612 75.1362 86.9042C75.6227 86.3095 76.1634 85.6607 76.5959 84.9579C77.7854 83.1196 78.5423 81.3895 78.8667 79.4432C78.9748 78.9025 78.9748 78.3619 78.9748 77.8753C78.9748 77.1184 78.9748 76.3074 79.2451 75.6045C79.2451 75.5505 79.2992 75.4964 79.2992 75.4423C79.5155 74.8476 79.7317 74.2529 79.7317 73.6582C79.7317 73.1716 79.5155 72.6309 79.2451 72.3606C79.0289 72.1984 78.8126 72.0903 78.5423 72.0903C78.1098 72.0903 77.7313 72.4687 77.6772 72.8472C77.6772 72.9553 77.5691 73.0094 77.461 73.0094C77.3528 73.0094 77.2447 72.9553 77.2447 72.8472C76.9203 71.874 76.8663 70.9008 76.8122 69.9277C76.7581 68.9545 76.7041 67.9813 76.3797 67.0622C75.9471 65.8187 74.974 64.6833 73.6764 63.8723C70.6487 62.0341 66.5938 61.98 63.5661 63.7101C61.1332 65.1158 59.6734 67.4947 59.2409 70.7927C58.9165 73.3338 59.2409 76.4696 60.2141 79.4973C60.6466 80.957 61.2413 82.4168 61.782 83.8225C62.9714 86.8502 64.2149 89.986 64.323 93.2299C64.3771 96.1494 64.1609 100.421 62.7551 104.584C61.8901 107.179 60.3222 109.612 58.484 111.396C56.6457 113.288 54.4291 114.207 52.2124 114.207ZM70.1621 54.7352C68.432 54.7352 66.5938 55.0596 64.7015 55.7625C61.1872 57.0601 57.8352 59.493 55.5104 62.4666C52.1042 66.7919 50.7526 72.8472 51.6176 80.4704C51.7798 82.0383 52.0502 83.6603 52.3746 85.3363C53.1855 90.04 54.0506 94.96 52.6449 99.3393C52.2124 100.637 51.5095 101.934 50.6985 103.34C49.2388 105.989 47.6709 108.693 48.4818 111.504C48.644 112.045 48.8603 112.477 49.1847 112.802C49.7253 113.396 50.5363 113.613 51.1311 113.721C54.2669 114.207 56.7539 112.531 58.3218 111.072C60.1059 109.395 61.6198 106.963 62.4848 104.476C63.8905 100.421 64.1068 96.1494 64.0527 93.284C63.9986 90.0941 62.7551 87.0124 61.5657 84.0388C60.971 82.6331 60.4303 81.1192 59.9437 79.6594C58.9706 76.5236 58.6462 73.3878 58.9706 70.7386C59.4031 67.3325 60.9169 64.8455 63.5121 63.3317C65.08 62.4666 66.8641 61.98 68.8105 62.0341C70.7028 62.0882 72.541 62.5747 74.0548 63.4939C75.4605 64.3589 76.4878 65.5483 76.9744 66.9C77.2988 67.8732 77.3528 68.9004 77.4069 69.8736C77.461 70.6305 77.515 71.3874 77.6772 72.1443C77.9476 71.8199 78.326 71.6037 78.7045 71.6037C79.0829 71.6037 79.4073 71.7118 79.6777 71.9821C80.0561 72.3606 80.3265 72.9553 80.3265 73.6041C80.3265 74.2529 80.1102 74.9017 79.8939 75.5505L79.8399 75.7127C79.6236 76.4155 79.5695 77.1184 79.5695 77.8753C79.5695 78.4159 79.5695 78.9566 79.4614 79.5513C79.0829 81.5517 78.326 83.3359 77.1366 85.2282C76.7041 85.9311 76.1634 86.5798 75.6227 87.1746C75.028 87.9315 74.3792 88.6884 73.8927 89.4994C72.7032 91.4457 72.4329 93.9868 73.0276 97.393C74.3252 104.908 79.4614 108.855 81.4078 110.369C81.6781 110.585 81.8943 110.747 82.0565 110.909C82.2728 111.072 82.4891 111.288 82.7053 111.45C83.5704 112.099 84.922 112.91 86.544 113.018C86.6521 113.018 86.7062 113.018 86.8143 113.018C89.3554 113.018 91.7343 111.072 92.2209 108.53C92.7615 105.611 90.9233 102.854 89.3013 100.421C89.1391 100.15 88.9229 99.88 88.7607 99.6096C86.0033 95.3384 84.6517 91.3917 84.4895 87.1746C84.3814 84.0388 84.8139 80.8489 85.2464 77.7672C85.3545 76.794 85.5167 75.8208 85.6249 74.8476C86.7062 65.6565 82.4891 58.4117 74.3792 55.4381C73.0276 55.0056 71.6219 54.7352 70.1621 54.7352Z" fill="#252B31"/>
<path d="M68.4875 82.2003C68.3253 82.2003 68.109 82.1463 67.8927 81.93C67.6765 81.7678 67.6224 81.4975 67.5143 81.2812C67.1358 79.9837 67.0817 78.632 67.4061 77.2804C67.6224 76.3613 68.0009 75.5503 68.4875 74.7934C68.4875 74.7393 68.4334 74.6852 68.4334 74.6312C67.6224 72.3604 66.0545 71.0628 63.7297 70.6303C61.9996 70.36 60.4317 70.7384 60.4317 70.7384C60.3235 70.7925 60.2154 70.6844 60.1614 70.5763C60.1073 70.4681 60.2154 70.36 60.3236 70.3059C60.3776 70.3059 61.9455 69.8734 63.7837 70.1978C65.4598 70.4681 67.7305 71.4413 68.7578 74.3608C68.92 74.1446 69.1362 73.9824 69.2984 73.7661C70.9745 72.1442 73.8399 70.9547 76.4351 71.7657C76.5432 71.8198 76.5973 71.9279 76.5973 72.036C76.5432 72.1442 76.4351 72.1982 76.327 72.1982C73.894 71.4413 71.1907 72.5767 69.5688 74.0905C69.2984 74.3068 69.0822 74.5771 68.92 74.8474C69.4066 76.3072 69.8931 78.0914 69.731 79.9837C69.6769 80.5243 69.2984 81.8759 68.5956 82.1463C68.6496 82.1463 68.5415 82.2003 68.4875 82.2003ZM68.7037 75.28C67.6765 76.956 67.3521 79.1186 67.9468 81.119C68.0009 81.2812 68.0549 81.4975 68.1631 81.6056C68.3793 81.7678 68.4874 81.7678 68.5415 81.7138C68.974 81.5516 69.3525 80.4162 69.4066 79.8755C69.5147 78.3076 69.1362 76.6316 68.7037 75.28Z" fill="#252B31"/>
<path d="M73.7303 76.7943C73.5681 76.7943 73.46 76.7943 73.2978 76.7402C72.0543 76.524 71.4055 75.3886 71.4055 75.3345C71.3514 75.2264 71.4055 75.1182 71.5136 75.0642C71.6217 75.0101 71.7299 75.0642 71.7839 75.1723C71.7839 75.1723 72.3246 76.1455 73.4059 76.3618C74.2169 76.524 75.0819 76.1455 76.0551 75.2804C76.1633 75.2264 76.2714 75.2264 76.3795 75.2804C76.4336 75.3886 76.4336 75.4967 76.3795 75.6048C75.4063 76.4158 74.5413 76.7943 73.7303 76.7943Z" fill="#252B31"/>
<path d="M63.6759 76.2533C62.8108 76.2533 61.8917 75.7667 60.9726 74.7936C60.8645 74.6854 60.9185 74.5773 60.9726 74.4692C61.0807 74.361 61.1889 74.4151 61.297 74.4692C62.162 75.3883 63.0271 75.8208 63.8381 75.7667C64.9194 75.6586 65.5141 74.7395 65.5141 74.7395C65.5682 74.6314 65.7304 74.6314 65.8385 74.6854C65.9466 74.7395 65.9466 74.9017 65.8926 75.0098C65.8385 75.0639 65.1356 76.0911 63.8921 76.1993C63.8381 76.2533 63.7299 76.2533 63.6759 76.2533Z" fill="#252B31"/>
<path d="M67.2975 90.1484C67.0812 90.1484 66.9731 90.1484 66.9731 90.1484C66.865 90.1484 66.7568 90.0403 66.7568 89.9321C66.7568 89.824 66.865 89.7159 66.9731 89.7159C66.9731 89.7159 68.4869 89.824 70.4333 89.2834C72.2175 88.7968 74.7585 87.6614 76.6508 85.0122C76.7049 84.9041 76.8671 84.9041 76.9752 84.9581C77.0834 85.0122 77.0834 85.1744 77.0293 85.2825C75.0289 88.0399 72.4337 89.2293 70.5414 89.7159C69.0817 90.0943 67.8922 90.1484 67.2975 90.1484Z" fill="#252B31"/>
<path d="M68.4863 86.3639C68.3782 86.3639 68.27 86.3639 68.216 86.3098C67.3509 86.0936 66.9725 85.1204 66.9184 85.0663C66.8643 84.9582 66.9184 84.9041 66.9725 84.796C67.5131 84.3635 68.1078 84.1472 68.6485 84.2553C69.5676 84.3635 70.1083 85.1204 70.1083 85.1745C70.1623 85.2826 70.1623 85.3907 70.1083 85.4448C69.5135 86.0936 68.9729 86.3639 68.4863 86.3639ZM67.3509 85.1204C67.459 85.3367 67.7834 85.8232 68.27 85.9314C68.7026 86.0395 69.1351 85.8232 69.6757 85.3907C69.5135 85.1745 69.081 84.8501 68.5944 84.796C68.216 84.6879 67.7834 84.796 67.3509 85.1204Z" fill="#252B31"/>
<path d="M189.733 22.0088C189.733 23.1983 188.652 23.793 188.652 23.793C182.596 30.5512 176.92 24.6581 176.92 24.6581C176.649 24.9284 176.325 25.0906 175.784 25.0365C175.406 25.0365 175.135 24.7662 174.973 24.4418C174.865 24.5499 171.243 28.2264 167.728 25.9016C167.134 23.0361 166.972 20.2788 166.917 18.8731C166.917 18.8731 166.917 18.8731 166.972 18.8731C167.134 18.819 167.242 18.7109 167.296 18.5487C167.404 17.5755 167.566 16.6023 167.728 15.6832C168.053 13.9531 168.648 12.3852 169.729 10.9795C171.297 8.87092 173.405 8.00588 175.838 7.78962C177.19 7.68149 178.488 7.68148 179.839 7.62742C182.596 7.57335 184.759 8.65466 186.381 10.9254C186.976 11.7364 187.408 12.6014 187.571 13.6287C187.679 14.1693 187.679 14.7641 187.733 15.3047C187.895 16.9267 187.895 18.4946 187.625 20.0625C187.571 20.3869 187.571 20.7654 187.571 21.0897C187.571 21.1979 187.733 21.3601 187.841 21.3601C187.895 21.3601 188.057 21.2519 188.111 21.1438C188.111 21.0897 188.165 21.0357 188.219 20.9816C189.138 20.1706 189.517 20.495 189.679 21.1438C189.679 21.1979 189.679 21.1979 189.679 21.2519C189.679 21.4141 189.679 21.5223 189.679 21.6845C189.679 21.7926 189.733 21.8467 189.787 21.9007C189.733 21.9548 189.733 22.0088 189.733 22.0088Z" fill="white"/>
<path d="M182.38 27.3074C179.569 27.3074 177.514 25.5773 176.92 25.0367C176.649 25.2529 176.271 25.361 175.784 25.361C175.46 25.361 175.135 25.1989 174.919 24.8745C174.27 25.4151 172.378 26.983 170.161 26.983C169.35 26.983 168.485 26.7668 167.62 26.2261C167.566 26.172 167.512 26.118 167.512 26.0639C166.917 23.1444 166.755 20.387 166.701 19.0354C166.701 18.9813 166.701 18.9272 166.755 18.8732C166.809 18.8191 166.863 18.8191 166.917 18.8191C166.971 18.8191 167.026 18.8191 167.026 18.6569C167.08 18.4407 167.08 18.2785 167.134 18.0622C167.242 17.3053 167.35 16.5484 167.512 15.7914C167.891 13.8991 168.539 12.3313 169.567 10.9796C171.026 9.03325 173.081 7.95195 175.838 7.68162C177.082 7.57349 178.325 7.57349 179.569 7.51942H179.893C182.705 7.46536 184.975 8.60074 186.651 10.8715C187.354 11.8447 187.733 12.7638 187.895 13.6829C187.949 14.0073 187.949 14.3857 188.003 14.7101C188.003 14.9264 188.057 15.1427 188.057 15.3589C188.273 17.1972 188.219 18.7651 187.949 20.1708C187.895 20.4951 187.895 20.8736 187.895 21.1439L187.949 21.198L188.003 21.1439C188.057 21.0899 188.057 21.0358 188.111 20.9817C188.111 20.9817 188.111 20.9277 188.165 20.9277C188.652 20.4951 189.084 20.333 189.409 20.4411C189.679 20.5492 189.895 20.7655 190.003 21.198V21.2521C190.003 21.3061 190.003 21.3061 190.003 21.3602C190.003 21.4143 190.003 21.4683 190.003 21.4683C190.003 21.5765 190.003 21.6846 190.003 21.7387C190.003 21.7927 190.003 21.7927 190.057 21.8468C190.112 21.9009 190.112 21.9549 190.112 22.009C190.112 22.063 190.112 22.0631 190.112 22.1171C190.112 23.3066 189.138 23.9553 188.922 24.0635C186.976 26.2261 184.921 27.3074 182.705 27.3615C182.488 27.3074 182.434 27.3074 182.38 27.3074ZM176.92 24.4419C176.974 24.4419 177.028 24.4419 177.082 24.496C177.082 24.496 179.407 26.8749 182.542 26.8208C184.597 26.7668 186.597 25.7395 188.49 23.6309L188.544 23.5769C188.598 23.5769 189.517 23.0362 189.517 22.009C189.463 21.9549 189.463 21.8468 189.409 21.7927C189.409 21.6846 189.409 21.5765 189.409 21.4143C189.409 21.3602 189.409 21.3602 189.409 21.3061V21.2521C189.355 21.0899 189.247 20.8736 189.138 20.8195C189.03 20.7655 188.814 20.8195 188.327 21.198C188.327 21.2521 188.273 21.2521 188.273 21.3061C188.219 21.4683 187.949 21.6846 187.733 21.6305C187.57 21.5765 187.354 21.3602 187.354 21.1439C187.354 20.8196 187.354 20.4411 187.408 20.0626C187.679 18.6569 187.733 17.1431 187.516 15.3589C187.516 15.1427 187.462 14.8723 187.462 14.6561C187.462 14.3317 187.408 14.0073 187.354 13.6288C187.246 12.7638 186.868 11.9528 186.219 11.0337C184.651 8.87106 182.542 7.78975 179.839 7.84382H179.515C178.325 7.84382 177.028 7.89788 175.838 8.00601C173.189 8.22227 171.243 9.24953 169.891 11.1418C168.918 12.4394 168.269 13.9532 167.945 15.7914C167.782 16.5484 167.674 17.3053 167.62 18.0622C167.566 18.2785 167.566 18.4947 167.512 18.6569C167.458 18.9273 167.35 19.0894 167.188 19.1435C167.242 20.5492 167.404 23.0903 167.999 25.8476C171.351 27.9562 174.865 24.3879 174.865 24.3338C174.919 24.2797 174.973 24.2797 175.081 24.2797C175.135 24.2797 175.244 24.3338 175.244 24.3879C175.46 24.8204 175.676 24.8745 175.838 24.8745C176.325 24.8745 176.595 24.8204 176.811 24.5501C176.811 24.496 176.865 24.4419 176.92 24.4419Z" fill="#252B31"/>
<path d="M204.493 63.3691L151.076 63.5313C148.751 41.2022 168.485 40.8237 171.189 40.8237C171.351 40.8237 171.459 40.8237 171.459 40.8237C171.351 40.9319 171.297 41.04 171.189 41.0941C168.593 44.2299 172.54 49.4202 172.54 49.4202L177.136 42.8242L177.298 42.5538L177.406 42.3376C177.622 42.3916 177.785 42.6079 178.217 42.3916L178.271 42.4998L178.487 42.7701L183.407 49.3661C183.407 49.3661 187.03 44.3921 184.597 40.5534C184.543 40.4994 184.489 40.3912 184.435 40.3372C184.435 40.3372 184.543 40.3372 184.705 40.3372C187.246 40.4453 206.007 41.1481 204.493 63.3691Z" fill="#EAEAEA"/>
<path d="M184.164 33.2544C182.488 34.3898 180.326 35.1467 177.514 35.2548C175.081 35.3629 173.081 34.7682 171.405 33.795C172 35.417 172.432 37.85 171.567 40.4992C171.513 40.6614 171.459 40.7695 171.405 40.9317C171.405 40.9317 172.973 41.9049 175.352 42.3915C176.811 42.6618 178.595 42.7699 180.488 42.2833C181.785 41.9589 183.137 41.3642 184.489 40.4451C183.191 38.1744 183.678 35.2008 184.164 33.2544Z" fill="white"/>
<path d="M184.705 40.2831C183.515 38.1746 183.894 35.3091 184.434 33.3087C184.488 33.2005 184.434 33.0924 184.326 33.0384C184.218 32.9843 184.11 32.9843 184.002 33.0384C182.218 34.2278 180.055 34.9306 177.514 35.0388C175.297 35.0928 173.297 34.6603 171.567 33.6331C171.459 33.579 171.351 33.579 171.242 33.6871C171.134 33.7412 171.134 33.9034 171.134 34.0115C171.134 34.0656 171.188 34.1196 171.188 34.1737C171.729 35.6876 172.107 38.0124 171.296 40.5535C171.242 40.6616 171.188 40.7697 171.188 40.8779V40.9319C171.134 41.04 171.188 41.1482 171.242 41.2022L171.296 41.2563C171.351 41.3104 172.918 42.2836 175.297 42.7161C175.892 42.8242 176.541 42.9323 177.136 42.9323C177.244 42.9323 177.406 42.9323 177.514 42.9323C177.838 42.9323 178.163 42.9323 178.487 42.8783C179.19 42.8242 179.839 42.7161 180.488 42.5539C181.893 42.1754 183.299 41.5807 184.597 40.6616C184.651 40.6075 184.705 40.4994 184.705 40.4453C184.759 40.3913 184.759 40.3372 184.705 40.2831ZM175.351 42.1214C173.513 41.797 172.216 41.0941 171.729 40.8238C171.729 40.7697 171.783 40.6616 171.783 40.6075C172.486 38.4449 172.378 36.4445 171.999 34.8766C171.945 34.7144 171.891 34.5522 171.891 34.39C173.567 35.201 175.46 35.6335 177.514 35.5254C179.568 35.4713 181.407 34.9847 183.029 34.2278C183.299 34.1197 183.515 33.9575 183.732 33.8493C183.299 35.7957 183.083 38.2827 184.11 40.3372C182.921 41.0941 181.677 41.6888 180.379 42.0132C178.758 42.4457 177.081 42.4998 175.351 42.1214Z" fill="#252B31"/>
<path d="M184.596 40.6616C183.299 41.5267 181.947 42.1755 180.487 42.5539C179.838 42.7161 179.136 42.8242 178.487 42.8783L183.407 49.4743C183.461 49.4743 187.083 44.5003 184.596 40.6616C184.65 40.6616 184.596 40.6616 184.596 40.6616Z" fill="white"/>
<path d="M171.242 41.202C171.188 41.202 171.188 41.1479 171.188 41.1479C168.593 44.2838 172.54 49.474 172.54 49.474L177.136 42.878C176.541 42.878 175.892 42.7699 175.297 42.6618C172.864 42.2293 171.297 41.2561 171.242 41.202Z" fill="white"/>
<path d="M192.004 8.87083C191.247 8.11391 190.382 7.51919 189.192 7.51919C189.138 7.51919 189.084 7.51919 189.03 7.51919C187.895 7.35699 186.705 7.35699 185.624 7.78952C185.408 7.89765 185.138 7.95171 184.921 8.05984C184.921 7.41106 184.921 6.8704 184.921 6.27568C184.921 5.03217 184.381 3.95087 183.57 2.97769C182.921 2.22077 182.11 1.68011 181.245 1.24758C179.677 0.4366 178.055 -0.0499831 176.271 0.00408241C175.027 0.0581479 173.838 0.220341 172.702 0.490669C171.513 0.815062 170.432 1.35571 169.404 2.05857C166.809 3.84273 165.404 6.32975 165.35 9.51961C165.296 11.6822 165.404 13.7908 165.89 15.8993C166.106 16.8185 166.431 17.6835 166.701 18.6026C166.755 18.7648 166.809 18.873 167.026 18.873C167.026 18.873 167.026 18.873 167.08 18.873C167.242 18.8189 167.35 18.7108 167.404 18.5486C167.512 17.5754 167.674 16.6022 167.837 15.6831C168.161 13.953 168.756 12.3851 169.837 10.9794C171.405 8.87082 173.513 8.00578 175.946 7.78952C177.298 7.68139 178.596 7.68138 179.947 7.62732C182.705 7.57325 184.867 8.65456 186.489 10.9253C187.084 11.7363 187.516 12.6013 187.679 13.6286C187.787 14.1692 187.787 14.764 187.841 15.3046C188.003 16.9266 188.003 18.4945 187.733 20.0624C187.679 20.3868 187.679 20.7652 187.679 21.0896C187.679 21.1978 187.841 21.36 187.949 21.36C188.003 21.36 188.165 21.2518 188.219 21.1437C188.219 21.0896 188.273 21.0356 188.327 20.9815C188.436 20.8193 188.598 20.6571 188.76 20.549C189.301 20.3327 189.733 20.6031 189.787 21.1437C189.787 21.1978 189.787 21.1978 189.787 21.2518C189.787 21.414 189.787 21.5222 189.787 21.6844C189.787 21.7925 189.841 21.8466 189.895 21.9006C190.003 22.0088 190.166 22.0088 190.328 21.9006C190.382 21.8466 190.436 21.7384 190.49 21.6844C190.76 21.2518 191.085 20.8193 191.355 20.4408C192.004 19.4677 192.761 18.4945 193.301 17.4672C194.221 15.6831 194.437 13.8989 194.004 11.9526C193.572 10.7091 192.869 9.73588 192.004 8.87083Z" fill="#252B31"/>
<path d="M179.353 16.6023C178.001 17.5755 177.622 19.4678 177.514 20.495C177.46 20.9276 177.406 21.306 177.406 21.6845C177.244 23.1443 177.19 24.0634 176.811 24.55C176.703 24.6581 176.757 24.7662 176.811 24.8744C176.866 24.9284 176.92 24.9284 176.974 24.9284C177.028 24.9284 177.082 24.9284 177.136 24.8744C177.622 24.3337 177.731 23.3064 177.839 21.7926C177.893 21.4142 177.893 21.0357 177.947 20.6032C178.055 19.8463 178.379 17.954 179.623 17.0349C181.245 15.8454 184.597 15.521 186.489 16.8726C186.597 16.9267 186.76 16.9267 186.814 16.8186C186.868 16.7105 186.868 16.5483 186.76 16.4942C184.651 14.9804 181.137 15.3047 179.353 16.6023Z" fill="#252B31"/>
<path d="M174.757 21.252C174.703 19.7923 174.594 18.2784 174.108 17.2512C173.135 15.1426 169.945 15.2508 168.755 15.7374C168.647 15.7914 168.593 15.8996 168.647 16.0617C168.701 16.1699 168.809 16.224 168.972 16.1699C169.999 15.7374 172.918 15.6292 173.729 17.4134C174.162 18.3866 174.216 19.8463 174.324 21.252C174.378 22.5496 174.486 23.7931 174.811 24.496C174.865 24.6041 174.919 24.6041 175.027 24.6041C175.081 24.6041 175.081 24.6041 175.135 24.6041C175.243 24.5501 175.297 24.3879 175.243 24.2797C174.865 23.685 174.811 22.5496 174.757 21.252Z" fill="#252B31"/>
<path d="M189.571 20.9817C189.462 21.0358 189.354 21.1439 189.408 21.252C189.462 21.4142 189.462 21.6845 189.462 21.9008C189.462 22.0089 189.571 22.1171 189.679 22.1171C189.787 22.1171 189.895 22.0089 189.895 21.9008C189.895 21.6305 189.841 21.3602 189.787 21.1439C189.841 21.0358 189.733 20.9817 189.571 20.9817Z" fill="#252B31"/>
<path d="M188.003 20.8737C187.895 20.9818 187.733 21.0899 187.625 21.2521C187.516 21.3602 187.516 21.4684 187.625 21.5765C187.679 21.6306 187.733 21.6306 187.787 21.6306C187.841 21.6306 187.895 21.6306 187.949 21.5765C188.057 21.4684 188.219 21.3062 188.273 21.2521C188.381 21.144 188.381 21.0358 188.273 20.9277C188.273 20.8196 188.111 20.8196 188.003 20.8737Z" fill="#252B31"/>
<path d="M166.917 17.6838C166.809 17.6838 166.701 17.792 166.701 17.9001C166.701 17.9001 166.701 18.2786 166.701 18.9274C166.701 19.0355 166.809 19.1436 166.917 19.1436C167.026 19.1436 167.134 19.0355 167.134 18.9274C167.134 18.2786 167.134 17.9542 167.134 17.9542C167.134 17.792 167.026 17.6838 166.917 17.6838Z" fill="#252B31"/>
<path d="M176.919 24.712C176.649 24.9823 176.324 25.1445 175.784 25.0904C175.405 25.0904 175.135 24.8201 174.973 24.4957C174.865 24.6038 171.242 28.2803 167.728 25.9555C168.809 31.0917 171.242 36.8226 176.703 36.6064C186.705 36.2279 188.597 23.8469 188.597 23.8469C182.596 30.5511 176.919 24.712 176.919 24.712Z" fill="#252B31"/>
<path d="M188.76 23.6305C188.652 23.5765 188.544 23.6306 188.49 23.6846C186.651 25.7391 184.651 26.8204 182.542 26.8745C179.406 26.9285 177.136 24.6037 177.082 24.5497C177.028 24.4956 176.974 24.4956 176.919 24.4956C176.865 24.4956 176.811 24.5497 176.757 24.6037C176.541 24.82 176.271 24.9281 175.784 24.9281C175.622 24.9281 175.352 24.8741 175.189 24.4415C175.135 24.3875 175.081 24.3334 175.027 24.3334C174.973 24.3334 174.865 24.3334 174.811 24.3875C174.757 24.4415 171.243 28.0099 167.836 25.8472C167.782 25.7932 167.674 25.7932 167.566 25.8472C167.512 25.9013 167.458 26.0094 167.458 26.0635C168.918 33.1461 172 36.8766 176.325 36.8766C176.433 36.8766 176.541 36.8766 176.703 36.8766C180.866 36.7144 184.272 34.4437 186.597 30.2266C188.327 27.0907 188.814 23.9549 188.814 23.9009C188.868 23.7387 188.814 23.6305 188.76 23.6305ZM186.219 29.9562C183.948 34.0652 180.758 36.2278 176.703 36.39C171.459 36.6063 169.134 31.1997 168.053 26.442C168.756 26.8204 169.458 26.9286 170.161 26.9826C172.378 26.9826 174.324 25.4688 174.919 24.8741C175.135 25.1985 175.406 25.3607 175.784 25.3607C176.271 25.3607 176.649 25.3066 176.919 25.0363C177.514 25.5769 179.677 27.3611 182.542 27.307C184.543 27.2529 186.489 26.3338 188.273 24.5497C188.003 25.685 187.408 27.7936 186.219 29.9562Z" fill="#252B31"/>
<path d="M174.811 24.3338C174.703 24.4419 174.757 24.55 174.811 24.6582C174.865 24.7122 174.919 24.7122 174.973 24.7122C175.027 24.7122 175.081 24.7122 175.135 24.6582C175.243 24.55 175.189 24.4419 175.135 24.3338C175.027 24.2257 174.919 24.2257 174.811 24.3338Z" fill="#252B31"/>
<path d="M172.324 19.0891C171.405 18.7106 169.945 18.5484 167.999 19.9001C167.945 19.9541 167.891 20.0082 167.891 20.0623C167.891 20.1163 167.891 20.1704 167.945 20.2245C167.945 20.2245 169.188 21.6302 170.972 21.6302C171.783 21.6302 172.757 21.3598 173.784 20.4948C173.892 20.4407 173.892 20.2785 173.838 20.1704C173.838 20.1704 173.351 19.4675 172.324 19.0891ZM168.539 20.1163C171.243 18.3322 172.919 19.7919 173.351 20.3326C171.026 22.1708 169.134 20.711 168.539 20.1163Z" fill="#252B31"/>
<path d="M170.918 19.0354C170.269 19.0354 169.729 19.5761 169.729 20.2248C169.729 20.8736 170.269 21.4143 170.918 21.4143C171.567 21.4143 172.107 20.8736 172.107 20.2248C172.107 19.5761 171.567 19.0895 170.918 19.0354Z" fill="#252B31"/>
<path d="M183.136 19.1433C182.217 18.7648 180.758 18.6026 178.811 19.9543C178.757 20.0083 178.703 20.0624 178.703 20.1165C178.703 20.1705 178.703 20.2246 178.757 20.2787C178.757 20.2787 180.001 21.6844 181.785 21.6844C182.596 21.6844 183.569 21.414 184.596 20.549C184.704 20.4949 184.704 20.3327 184.65 20.2246C184.65 20.2787 184.11 19.5758 183.136 19.1433ZM179.298 20.2246C182.001 18.4404 183.677 19.9002 184.11 20.4409C181.785 22.225 179.893 20.7652 179.298 20.2246Z" fill="#252B31"/>
<path d="M181.731 19.1433C181.083 19.1433 180.542 19.684 180.542 20.3328C180.542 20.9815 181.083 21.5222 181.731 21.5222C182.38 21.5222 182.921 20.9815 182.921 20.3328C182.867 19.684 182.38 19.1433 181.731 19.1433Z" fill="#252B31"/>
<path d="M176.109 28.2263C174.757 28.2263 173.622 28.6589 173.622 29.2536C173.622 29.8483 174.703 30.2808 176.055 30.2808C177.407 30.2808 178.542 29.8483 178.542 29.2536C178.542 28.7129 177.461 28.2263 176.109 28.2263Z" fill="white"/>
<path d="M177.568 28.9833C176.162 29.8483 174.919 28.9833 174.865 28.9833C174.757 28.9292 174.594 28.9292 174.54 29.0373C174.486 29.1454 174.486 29.3076 174.594 29.3617C174.649 29.4158 175.297 29.8483 176.216 29.8483C176.703 29.8483 177.244 29.7402 177.784 29.4158C177.892 29.3617 177.947 29.1995 177.892 29.0914C177.784 28.9292 177.676 28.8751 177.568 28.9833Z" fill="#252B31"/>
<path d="M18.7807 182.584C18.8348 182.584 18.943 182.53 18.997 182.476C19.3214 182.26 19.3755 181.882 19.2673 181.611C18.997 180.8 18.6726 179.989 18.3482 179.178C17.6454 177.61 17.2669 175.988 17.3751 174.312C17.4291 173.555 17.6454 172.799 18.0238 172.15C19.1051 170.149 20.4568 168.365 21.9706 166.743C22.4572 166.257 22.9979 165.824 23.5926 165.446C24.8902 164.527 26.2958 163.661 27.5934 162.796C28.6207 162.094 29.702 161.445 30.6211 160.58C31.2699 159.985 31.7024 159.174 32.2971 158.417C33.1081 160.85 34.7301 162.742 36.0817 164.851C39.4878 170.095 38.3525 175.502 34.4598 180.151C34.0272 180.692 33.5406 181.233 33.1081 181.773C32.9459 181.99 32.8919 182.206 32.9459 182.368C32.9459 182.422 33 182.53 33.0541 182.584C33.0541 182.638 33.1081 182.638 33.1081 182.693C32.6215 184.26 31.7565 188.369 32.8918 192.965C32.8918 192.965 24.9983 196.155 18.6186 192.37C20.9974 189.289 19.3755 184.26 18.7807 182.584Z" fill="white"/>
<path d="M18.3485 192.262C20.7274 189.18 19.1054 184.152 18.5107 182.638C18.5107 182.584 18.5107 182.53 18.5107 182.476C18.5648 182.422 18.5648 182.368 18.6729 182.368C18.727 182.368 18.781 182.314 18.8351 182.314C19.1054 182.152 19.0514 181.881 18.9973 181.665C18.727 180.908 18.4566 180.043 18.0782 179.286C17.3213 177.556 16.9969 175.88 17.105 174.312C17.1591 173.555 17.3753 172.798 17.7538 172.041C18.781 170.095 20.0786 168.311 21.7546 166.635C22.2953 166.094 22.89 165.662 23.3766 165.337C24.0795 164.851 24.7282 164.418 25.4311 163.986C26.0799 163.553 26.7287 163.121 27.3775 162.688C27.5397 162.58 27.7018 162.472 27.864 162.364C28.7291 161.769 29.5942 161.228 30.3511 160.525C30.7836 160.147 31.108 159.66 31.4864 159.12C31.6486 158.903 31.8108 158.633 32.0271 158.363C32.0812 158.309 32.1893 158.255 32.2434 158.255C32.3515 158.255 32.4056 158.309 32.4056 158.417C33.0003 160.201 34.0816 161.715 35.1088 163.229C35.4332 163.715 35.8117 164.256 36.1361 164.797C37.8121 167.392 38.4609 170.095 38.0824 172.852C37.758 175.393 36.5145 177.934 34.5141 180.367C34.2978 180.638 34.0816 180.908 33.8653 181.124C33.6491 181.395 33.3787 181.719 33.1625 181.989C33.0543 182.152 33.0003 182.26 33.0003 182.422C33.0003 182.476 33.0544 182.53 33.0544 182.584C33.0544 182.638 33.1084 182.638 33.1084 182.692C33.1625 182.746 33.1625 182.8 33.1084 182.854C32.6759 184.368 31.7568 188.423 32.8921 193.019C32.8921 193.127 32.8922 193.235 32.784 193.289C32.6759 193.343 30.7295 194.1 27.9722 194.424C25.4311 194.749 21.6465 194.695 18.3485 192.694C18.2945 192.64 18.2404 192.586 18.2404 192.532C18.2944 192.424 18.3485 192.316 18.3485 192.262ZM28.0262 193.938C30.2429 193.668 31.973 193.073 32.5137 192.911C31.4324 188.369 32.2974 184.422 32.7299 182.8C32.6759 182.692 32.6218 182.584 32.6218 182.476C32.5677 182.206 32.6218 181.935 32.8381 181.665C33.0543 181.395 33.3247 181.07 33.5409 180.8C33.7572 180.53 33.9735 180.259 34.1897 180.043C38.2987 175.123 38.8934 169.825 35.8117 165.013C35.4873 164.472 35.1088 163.986 34.7844 163.499C33.8112 162.093 32.784 160.634 32.1352 158.957C32.0271 159.066 31.973 159.228 31.8649 159.336C31.4864 159.877 31.162 160.363 30.6755 160.796C29.8645 161.499 28.9994 162.093 28.1344 162.688C27.9722 162.796 27.81 162.904 27.6478 163.012C26.999 163.445 26.3502 163.877 25.7014 164.31C25.0526 164.743 24.3498 165.229 23.6469 165.662C23.1603 165.986 22.5656 166.419 22.079 166.905C20.4571 168.581 19.1595 170.365 18.1322 172.258C17.7538 172.96 17.5375 173.609 17.5375 174.366C17.4294 175.88 17.7538 177.448 18.4567 179.178C18.8351 179.989 19.1054 180.854 19.3757 181.611C19.5379 182.098 19.4298 182.53 19.0514 182.746C19.0514 182.746 18.9973 182.746 18.9973 182.8C19.3217 183.665 19.8083 185.287 19.9705 187.018C20.1867 189.234 19.8083 191.072 18.8351 192.424C22.079 194.154 25.5933 194.208 28.0262 193.938Z" fill="#252B31"/>
<path d="M23.5392 163.824C25.4314 164.364 26.9994 165.067 28.4051 165.986C28.7835 166.257 29.162 166.527 29.4864 166.797C30.3514 167.5 31.0543 168.365 31.649 169.23C32.1356 168.635 32.7844 168.149 33.6494 167.77C35.2173 167.122 36.5689 167.013 38.5694 167.284C38.6775 167.284 38.7856 167.392 38.7856 167.554C38.7856 167.662 38.6775 167.77 38.5153 167.77C36.569 167.5 35.3254 167.608 33.8116 168.257C33.0547 168.581 32.4059 169.068 31.9193 169.717C32.1896 170.203 32.46 170.744 32.6762 171.285C33.1628 172.69 32.9466 174.637 32.0815 176.096C31.9193 176.421 31.7031 176.637 31.4327 176.745H31.3787C31.1083 176.853 30.838 176.853 30.6218 176.745C30.1352 176.475 30.0811 175.61 30.027 175.069C30.027 175.015 30.027 174.961 30.027 174.907C29.8648 173.609 30.1351 172.096 30.7299 170.852C30.8921 170.474 31.1084 170.095 31.4327 169.663C30.8921 168.744 30.1352 167.933 29.2701 167.176C28.9457 166.905 28.5673 166.635 28.1888 166.365C26.8912 165.5 25.3233 164.797 23.4851 164.256C23.377 164.202 23.2688 164.094 23.3229 163.986C23.3229 163.878 23.431 163.77 23.5392 163.824ZM30.4595 174.799C30.4595 174.853 30.4595 174.907 30.4595 174.961C30.5136 175.34 30.5677 176.096 30.838 176.313C30.8921 176.313 30.9462 176.367 31.1624 176.313C31.3246 176.259 31.4868 176.096 31.5949 175.826C32.4059 174.42 32.6222 172.636 32.1896 171.393C32.0274 170.96 31.8112 170.474 31.5949 170.041C30.6758 171.447 30.2433 173.285 30.4595 174.799Z" fill="#252B31"/>
<path d="M33.8113 170.582C33.9194 170.474 34.0276 170.528 34.1357 170.582C34.1898 170.636 35.7036 172.312 37.4877 171.068C37.5959 171.014 37.7581 171.014 37.8122 171.122C37.8662 171.231 37.8662 171.393 37.7581 171.447C37.5959 171.555 37.4337 171.663 37.2715 171.771C35.3792 172.69 33.8113 170.96 33.8113 170.96C33.7032 170.798 33.7572 170.69 33.8113 170.582Z" fill="#252B31"/>
<path d="M24.6746 169.23C24.7827 169.122 24.8908 169.176 24.999 169.23C25.053 169.284 26.5669 170.96 28.351 169.717C28.4592 169.663 28.6214 169.663 28.6754 169.771C28.7295 169.879 28.7295 170.041 28.6214 170.095C28.4592 170.203 28.297 170.312 28.1348 170.42C26.2425 171.339 24.6746 169.609 24.6746 169.609C24.5665 169.447 24.5665 169.284 24.6746 169.23Z" fill="#252B31"/>
<path d="M29.4863 179.232C29.5944 179.178 29.7566 179.232 29.8107 179.341C30.027 179.773 30.3514 179.989 30.6758 180.097C31.2705 180.206 31.8652 179.827 31.8652 179.827C31.9733 179.773 32.1355 179.773 32.1896 179.881C32.2436 179.989 32.2437 180.152 32.1355 180.206C32.1355 180.206 32.0274 180.314 31.8111 180.368C31.5408 180.53 31.0542 180.638 30.5676 180.53C30.081 180.422 29.7026 180.097 29.3782 179.557C29.3241 179.449 29.3782 179.286 29.4863 179.232Z" fill="#252B31"/>
<path d="M27.4317 184.207C27.4858 184.207 30.5134 184.207 32.9464 181.557C33.0005 181.503 33.1086 181.449 33.2167 181.503C33.3248 181.557 33.3789 181.611 33.3789 181.719C33.3789 181.719 33.3789 182.368 33.2708 182.855C33.2708 182.909 33.2167 182.963 33.1626 183.017C33.1086 183.017 33.0545 183.071 33.0004 183.017C32.8923 182.963 32.7842 182.855 32.8383 182.747C32.8923 182.639 32.8923 182.476 32.8923 182.368C30.4053 184.747 27.5939 184.747 27.4857 184.747C27.3776 184.747 27.2695 184.639 27.2695 184.531C27.2154 184.315 27.3236 184.207 27.4317 184.207Z" fill="#252B31"/>
<path d="M9.10345 152.254C13.9153 143.82 27.3235 143.928 34.3521 149.064C39.8127 153.011 42.0834 160.201 42.8944 166.635C43.7054 173.015 42.7863 179.503 40.4074 185.504C39.5424 187.775 34.8387 184.855 33.7574 183.882C33.433 183.612 33.2167 183.179 32.9464 182.747C32.9464 182.693 32.8923 182.693 32.8923 182.639C32.8382 182.585 32.8382 182.476 32.7842 182.422C32.7301 182.206 32.7842 181.99 32.9464 181.828C33.3789 181.287 33.8655 180.746 34.298 180.206C38.1907 175.61 39.3261 170.204 35.92 164.905C34.5683 162.797 32.9464 160.904 32.1354 158.471C31.5407 159.228 31.1081 160.039 30.4593 160.634C29.5402 161.445 28.4589 162.148 27.4317 162.851C26.1341 163.77 24.7284 164.581 23.4308 165.5C22.8902 165.878 22.2954 166.311 21.8088 166.797C20.2409 168.419 18.8893 170.204 17.8621 172.204C17.4836 172.907 17.2673 173.61 17.2133 174.367C17.1051 176.097 17.4836 177.719 18.1865 179.232C18.5109 180.043 18.8352 180.854 19.1056 181.665C19.2137 181.99 19.1596 182.314 18.8352 182.53C18.7812 182.585 18.6731 182.585 18.619 182.639C18.4027 182.693 18.1865 182.693 17.9702 182.585C12.7259 180.043 9.42784 174.042 7.75181 168.636C6.23798 163.229 6.23797 157.228 9.10345 152.254Z" fill="#EAEAEA"/>
<path d="M18.4572 181.882C18.5653 181.828 18.7275 181.882 18.7816 181.99C18.7816 181.99 18.8897 182.206 18.9978 182.53C19.0519 182.639 18.9978 182.747 18.8897 182.801C18.7816 182.855 18.6194 182.801 18.6194 182.693C18.5112 182.368 18.4031 182.206 18.4031 182.152C18.295 182.044 18.349 181.936 18.4572 181.882Z" fill="#252B31"/>
<path d="M10.5089 193.452C12.4553 192.749 14.9963 192.37 18.4025 192.695C24.7822 196.425 32.6758 193.127 32.6758 193.127C32.6758 193.127 44.9486 190.856 47.3275 200.318C49.2739 208.049 46.1922 214.97 46.1922 214.97H5.48083C5.48083 214.97 3.69664 207.292 3.80478 202.913C3.96697 198.966 6.83246 194.803 10.5089 193.452Z" fill="#252B31"/>
<path d="M0.290972 215.456C0.399103 215.456 0.453182 215.402 0.507248 215.294L8.67113 192.911C8.7252 192.803 8.67114 192.641 8.50894 192.587C8.40081 192.532 8.23863 192.587 8.18456 192.749L0.0206442 215.132C-0.0334215 215.24 0.0206375 215.402 0.182835 215.456C0.2369 215.456 0.236907 215.456 0.290972 215.456Z" fill="white"/>
<path d="M8.72489 215.456C8.83302 215.456 8.88707 215.402 8.94114 215.294L17.4294 192.749C17.4835 192.641 17.4294 192.478 17.2672 192.424C17.1591 192.37 16.9969 192.424 16.9428 192.587L8.45457 215.132C8.4005 215.24 8.45456 215.402 8.61676 215.456C8.67082 215.456 8.72489 215.456 8.72489 215.456Z" fill="white"/>
<path d="M17.6458 215.402C17.7539 215.402 17.808 215.348 17.862 215.24L26.3503 192.695C26.4044 192.587 26.3503 192.425 26.1881 192.37C26.08 192.316 25.9178 192.37 25.8637 192.533L17.3755 215.078C17.3214 215.186 17.3755 215.348 17.5377 215.402C17.5917 215.348 17.6458 215.402 17.6458 215.402Z" fill="white"/>
<path d="M26.5662 215.294C26.6743 215.294 26.7284 215.24 26.7824 215.132L35.2707 192.586C35.3248 192.478 35.2707 192.316 35.1086 192.262C35.0004 192.208 34.8382 192.262 34.7841 192.424L26.2959 214.969C26.2418 215.078 26.2959 215.24 26.4581 215.294C26.5121 215.294 26.5121 215.294 26.5662 215.294Z" fill="white"/>
<path d="M35.4876 215.186C35.5957 215.186 35.6498 215.132 35.7038 215.024L44.1921 192.478C44.2462 192.37 44.1921 192.208 44.0299 192.154C43.9218 192.1 43.7596 192.154 43.7055 192.316L35.2173 214.861C35.1632 214.969 35.2173 215.132 35.3795 215.186C35.4335 215.186 35.4335 215.186 35.4876 215.186Z" fill="white"/>
<path d="M44.4085 215.132C44.5166 215.132 44.5707 215.078 44.6247 214.97L53.113 192.424C53.1671 192.316 53.113 192.154 52.9508 192.1C52.8427 192.046 52.6805 192.1 52.6264 192.262L44.1382 214.808C44.0841 214.916 44.1382 215.078 44.3003 215.132C44.3003 215.132 44.3544 215.132 44.4085 215.132Z" fill="white"/>
<path d="M201.474 248.446C174.307 259.06 157.357 249.476 157.357 249.476C159.258 248.129 160.922 246.466 162.268 244.644C163.773 242.664 165.12 240.446 166.149 238.229C168.129 233.952 169.238 229.279 169.793 224.685C170.347 219.774 170.268 214.863 169.634 209.953C169.001 205.201 167.812 200.448 166.07 195.934C161.476 191.181 160.763 188.488 157.595 183.419C157.041 182.944 155.615 181.281 155.219 180.647C153.793 178.667 154.427 177.558 155.377 177.162C156.011 176.925 157.991 177.479 158.229 179.063C170.981 171.222 172.248 157.361 174.862 155.539C175.179 155.302 175.495 155.143 175.891 154.985C177.396 154.43 179.139 155.064 180.644 155.618C182.782 156.49 184.921 157.361 186.584 158.866C189.911 161.876 188.722 166.232 190.386 170.034C192.207 174.073 195.376 177.796 195.217 182.469C195.138 185.32 193.712 187.934 192.207 190.389C185.396 201.795 182.069 213.279 185 225.952C185.396 227.615 185.871 229.358 186.505 231.1C188.802 237.674 194.346 245.674 201.474 248.446Z" fill="white"/>
<path d="M176.605 253.911C174.07 253.911 171.536 253.753 169.16 253.436C161.556 252.406 157.279 250.03 157.12 249.951C156.962 249.872 156.883 249.793 156.883 249.634C156.883 249.476 156.962 249.397 157.041 249.317C158.863 247.971 160.526 246.387 161.873 244.565C163.378 242.664 164.645 240.526 165.675 238.229C167.496 234.269 168.764 229.754 169.318 224.764C169.872 220.012 169.793 215.101 169.16 210.19C168.526 205.359 167.338 200.686 165.595 196.33C162.269 192.924 160.922 190.548 159.259 187.538C158.625 186.429 157.992 185.241 157.12 183.894C156.487 183.34 155.14 181.756 154.665 181.043C153.873 179.934 153.635 178.984 153.873 178.192C154.031 177.637 154.427 177.241 154.982 176.924C155.457 176.687 156.328 176.845 157.041 177.241C157.596 177.558 158.071 178.033 158.229 178.509C166.625 173.123 169.872 164.965 171.852 159.975C172.803 157.599 173.516 155.856 174.387 155.222C174.783 154.985 175.1 154.747 175.496 154.668C177.159 154.114 178.902 154.668 180.486 155.302C182.624 156.173 184.842 157.044 186.505 158.628C188.644 160.608 189.04 163.064 189.357 165.519C189.594 167.024 189.753 168.529 190.386 169.875C190.941 171.063 191.574 172.251 192.208 173.36C193.792 176.132 195.376 179.063 195.297 182.469C195.218 185.399 193.792 187.934 192.287 190.548C184.763 203.141 182.466 214.388 185.08 225.873C185.476 227.536 185.951 229.279 186.585 230.942C188.881 237.516 194.426 245.357 201.396 248.129C201.554 248.209 201.633 248.367 201.633 248.525C201.633 248.684 201.554 248.842 201.396 248.921C195.139 251.377 188.961 252.961 182.941 253.594C180.961 253.753 178.743 253.911 176.605 253.911ZM158.15 249.397C159.576 250.03 163.457 251.694 169.397 252.565C176.13 253.515 186.981 253.515 200.445 248.446C193.713 245.278 188.406 237.595 186.109 231.18C185.476 229.437 185 227.695 184.604 226.031C181.911 214.388 184.208 202.983 191.891 190.152C193.396 187.617 194.743 185.162 194.822 182.469C194.901 179.301 193.396 176.528 191.812 173.835C191.178 172.647 190.466 171.459 189.99 170.271C189.357 168.766 189.119 167.182 188.881 165.677C188.565 163.301 188.248 161.084 186.268 159.262C184.604 157.757 182.624 156.886 180.486 156.094C178.981 155.539 177.476 154.985 176.05 155.46C175.734 155.539 175.417 155.698 175.1 155.935C174.387 156.411 173.753 158.153 172.882 160.292C170.823 165.44 167.417 173.994 158.467 179.459C158.388 179.538 158.229 179.538 158.071 179.459C157.913 179.38 157.833 179.301 157.833 179.142C157.754 178.509 157.279 178.113 156.883 177.875C156.328 177.558 155.695 177.479 155.536 177.558C155.299 177.637 154.982 177.875 154.903 178.271C154.744 178.825 154.982 179.538 155.616 180.409C156.012 181.043 157.437 182.627 157.992 183.102L158.071 183.182C158.942 184.607 159.655 185.875 160.289 186.904C161.952 189.835 163.219 192.211 166.546 195.617C166.546 195.617 166.625 195.696 166.625 195.775C168.367 200.211 169.556 204.963 170.268 209.874C170.902 214.943 170.981 219.853 170.427 224.685C169.872 229.754 168.605 234.348 166.704 238.387C165.595 240.763 164.249 242.981 162.744 244.882C161.318 246.624 159.813 248.129 158.15 249.397Z" fill="#F28BDC"/>
<path d="M219.85 238.783C218.345 243.773 214.464 248.288 209.395 249.238C207.098 249.713 204.881 249.555 202.821 248.921C202.346 248.763 201.95 248.604 201.554 248.446C194.426 245.674 188.881 237.595 186.505 231.021C185.872 229.279 185.396 227.615 185 225.873C182.07 213.2 185.396 201.715 192.208 190.31C193.634 187.855 195.139 185.241 195.218 182.39C195.376 177.716 192.129 174.073 190.386 169.954C188.723 166.153 189.911 161.876 186.584 158.787C184.921 157.282 182.783 156.331 180.644 155.539C179.139 154.906 177.476 154.351 175.892 154.906C175.496 155.064 175.179 155.222 174.862 155.46C172.248 157.282 170.981 171.142 158.229 178.984C157.992 177.4 155.932 176.845 155.378 177.083C154.507 177.479 153.873 178.588 155.22 180.568C155.695 181.201 157.041 182.865 157.596 183.34C160.764 188.409 161.477 191.102 166.071 195.854C167.813 200.369 169.001 205.121 169.635 209.873C170.268 214.705 170.348 219.695 169.793 224.606C169.239 229.279 168.13 233.872 166.15 238.149C165.12 240.446 163.853 242.585 162.269 244.565C160.843 246.387 159.18 248.05 157.358 249.397C156.883 249.713 156.487 250.03 156.012 250.347C153.477 251.931 150.626 252.961 147.695 253.357C136.369 254.703 129.082 246.149 130.508 235.298C131.458 227.536 137.715 222.388 142.468 216.685C148.408 209.636 150.388 201.082 149.358 191.894C147.378 175.499 142.864 159.737 156.17 146.668C158.942 143.896 162.427 141.758 166.308 141.124C170.664 140.411 175.179 140.886 179.535 140.174C190.307 138.51 200.366 144.847 205.91 153.955C209.633 160.054 211.455 168.45 210.425 175.578C209.316 183.34 204.405 190.706 205.831 198.785C208.445 213.913 224.999 221.358 219.85 238.783Z" fill="white"/>
<path d="M145.319 253.99C141.042 253.99 137.161 252.485 134.389 249.713C130.904 246.228 129.32 241.001 130.033 235.377C130.825 229.041 135.023 224.447 139.062 220.012C140.092 218.903 141.121 217.715 142.072 216.606C147.695 209.873 149.992 201.636 148.804 192.132C148.567 189.914 148.25 187.775 147.933 185.637C146.903 178.508 145.953 171.697 146.745 165.202C147.537 157.757 150.467 151.896 155.774 146.668C157.992 144.53 161.556 141.758 166.15 141.045C168.368 140.649 170.665 140.649 172.882 140.57C175.021 140.49 177.239 140.49 179.377 140.094C189.515 138.51 200.049 143.975 206.227 154.034C210.029 160.291 211.851 168.687 210.821 175.895C210.425 178.904 209.396 181.835 208.445 184.607C206.94 189.201 205.277 193.953 206.148 198.943C207.178 204.884 210.504 209.715 213.673 214.388C216.049 217.873 218.504 221.437 219.93 225.398C221.514 229.833 221.593 234.268 220.167 239.021C218.504 244.565 214.227 248.842 209.396 249.793C207.178 250.268 204.881 250.109 202.663 249.476C202.188 249.317 201.792 249.159 201.317 249C194.109 246.149 188.486 238.07 186.109 231.338C185.476 229.595 185.001 227.853 184.605 226.19C181.912 214.547 184.209 203.141 191.891 190.31C193.396 187.775 194.743 185.32 194.822 182.627C194.901 179.459 193.396 176.687 191.812 173.994C191.179 172.806 190.466 171.618 189.99 170.43C189.357 168.925 189.119 167.341 188.882 165.836C188.565 163.46 188.248 161.242 186.268 159.42C184.605 157.915 182.624 157.044 180.486 156.252C178.981 155.698 177.476 155.143 176.05 155.618C175.734 155.698 175.417 155.856 175.1 156.094C174.387 156.569 173.754 158.311 172.882 160.45C170.823 165.598 167.417 174.152 158.467 179.617C158.388 179.697 158.229 179.697 158.071 179.617C157.913 179.538 157.833 179.459 157.833 179.301C157.754 178.667 157.279 178.271 156.883 178.033C156.329 177.716 155.695 177.637 155.537 177.716C155.299 177.796 154.982 178.033 154.903 178.429C154.744 178.984 154.982 179.697 155.616 180.568C156.012 181.201 157.437 182.786 157.992 183.261L158.071 183.34C158.942 184.766 159.655 186.033 160.289 187.063C161.952 189.993 163.219 192.369 166.546 195.775C166.546 195.775 166.625 195.854 166.625 195.933C168.368 200.369 169.556 205.121 170.269 210.032C170.902 215.101 170.981 220.012 170.427 224.843C169.873 229.912 168.605 234.506 166.704 238.545C165.595 240.922 164.249 243.139 162.744 245.04C161.318 246.941 159.576 248.525 157.754 249.951C157.279 250.268 156.804 250.585 156.329 250.901C153.636 252.565 150.784 253.594 147.854 253.99C146.903 253.911 146.111 253.99 145.319 253.99ZM182.862 140.49C181.753 140.49 180.565 140.57 179.456 140.728C177.239 141.045 175.021 141.124 172.882 141.203C170.665 141.282 168.447 141.282 166.229 141.678C161.873 142.391 158.388 145.005 156.329 147.064C145.002 158.232 146.824 171.38 148.804 185.399C149.121 187.538 149.438 189.756 149.675 191.973C150.863 201.715 148.487 210.111 142.705 217.002C141.755 218.19 140.646 219.299 139.696 220.408C135.735 224.764 131.617 229.279 130.904 235.377C130.191 240.763 131.696 245.753 135.023 249.08C138.112 252.248 142.626 253.594 147.695 253.04C150.547 252.723 153.24 251.693 155.853 250.109C156.329 249.792 156.804 249.555 157.2 249.238C159.022 247.892 160.685 246.308 162.031 244.486C163.536 242.585 164.803 240.446 165.833 238.149C167.655 234.189 168.922 229.675 169.477 224.685C170.031 219.932 169.952 215.022 169.318 210.111C168.684 205.28 167.496 200.607 165.754 196.25C162.427 192.844 161.081 190.468 159.418 187.459C158.784 186.35 158.15 185.162 157.279 183.815C156.645 183.261 155.299 181.677 154.824 180.964C154.032 179.855 153.794 178.905 154.032 178.112C154.19 177.558 154.586 177.162 155.141 176.845C155.616 176.608 156.487 176.766 157.2 177.162C157.754 177.479 158.229 177.954 158.388 178.429C166.784 173.043 170.031 164.885 172.011 159.895C172.962 157.519 173.674 155.777 174.546 155.143C174.942 154.906 175.258 154.668 175.654 154.589C177.318 154.034 179.06 154.589 180.644 155.222C182.783 156.094 185.001 156.965 186.664 158.549C188.802 160.529 189.198 162.984 189.515 165.44C189.753 166.945 189.911 168.45 190.545 169.796C191.099 170.984 191.733 172.172 192.367 173.281C193.951 176.053 195.535 178.984 195.456 182.389C195.376 185.32 193.951 187.855 192.446 190.468C184.921 203.062 182.624 214.309 185.238 225.794C185.634 227.457 186.109 229.199 186.743 230.863C189.04 237.437 194.584 245.278 201.554 248.05C201.95 248.208 202.426 248.367 202.822 248.446C204.96 249.08 207.099 249.159 209.158 248.763C213.752 247.892 217.791 243.852 219.375 238.545C222.385 228.328 217.87 221.675 212.96 214.626C209.712 209.873 206.386 205.042 205.277 198.864C204.406 193.716 205.99 188.884 207.574 184.132C208.524 181.36 209.475 178.429 209.871 175.578C210.821 168.529 209.158 160.371 205.435 154.272C200.208 145.639 191.575 140.49 182.862 140.49Z" fill="#252B31"/>
<path d="M176.526 188.726C176.367 188.726 176.288 188.726 176.13 188.726C175.179 188.568 174.467 187.538 174.15 185.954C173.833 184.211 173.991 181.598 175.1 178.984C173.595 176.212 171.457 174.469 168.843 173.836C166.784 173.281 165.12 173.677 165.041 173.677C164.804 173.756 164.566 173.598 164.566 173.36C164.487 173.123 164.645 172.885 164.883 172.885C164.962 172.885 166.705 172.489 169.001 173.044C170.902 173.519 173.437 174.786 175.496 178.113C176.447 176.212 177.952 174.469 180.169 173.202C186.268 169.638 190.545 170.351 190.703 170.43C190.941 170.509 191.1 170.667 191.02 170.905C190.941 171.143 190.783 171.301 190.545 171.222C190.466 171.222 186.426 170.509 180.565 173.915C178.348 175.182 176.922 177.083 175.971 179.063C176.051 179.142 176.051 179.222 176.13 179.38C178.348 183.895 178.981 186.825 178.031 188.172C177.714 188.488 177.16 188.726 176.526 188.726ZM175.655 180.014C174.863 182.152 174.704 184.291 175.021 185.796C175.259 186.984 175.734 187.855 176.288 187.934C176.605 188.013 177.16 188.013 177.397 187.538C177.793 187.063 178.268 185.4 175.655 180.014Z" fill="#252B31"/>
<path d="M167.654 182.073C167.575 182.073 167.496 182.073 167.417 182.073C165.516 181.993 163.773 180.726 162.11 178.271C162.031 178.192 162.031 178.033 162.031 177.954C162.031 177.875 162.11 177.716 162.189 177.716C162.348 177.637 165.437 175.815 168.367 176.608C169.793 177.004 170.981 177.954 171.773 179.538C171.852 179.697 171.852 179.855 171.694 180.013C171.773 180.013 170.11 182.073 167.654 182.073ZM163.06 178.192C164.486 180.093 165.912 181.122 167.417 181.201C169.159 181.281 170.506 180.093 170.981 179.617C170.268 178.429 169.318 177.637 168.209 177.32C166.149 176.766 163.932 177.716 163.06 178.192Z" fill="#252B31"/>
<path d="M169.635 179.935C169.318 181.202 167.971 181.994 166.704 181.677C165.437 181.36 164.645 180.014 164.961 178.746C165.278 177.479 166.625 176.687 167.892 177.004C169.159 177.321 169.951 178.588 169.635 179.935Z" fill="#252B31"/>
<path d="M183.812 181.122C181.516 181.122 179.852 179.459 179.852 179.38C179.773 179.301 179.694 179.063 179.773 178.905C180.486 177.32 181.516 176.212 182.941 175.736C185.793 174.707 189.04 176.291 189.198 176.37C189.278 176.449 189.357 176.528 189.436 176.608C189.436 176.687 189.436 176.845 189.436 176.924C188.01 179.459 186.347 180.885 184.446 181.122C184.208 181.122 184.05 181.122 183.812 181.122ZM180.644 178.984C181.12 179.459 182.624 180.489 184.367 180.251C185.872 180.093 187.297 178.905 188.486 176.845C187.614 176.449 185.238 175.736 183.258 176.449C182.149 176.924 181.278 177.716 180.644 178.984Z" fill="#252B31"/>
<path d="M182.07 179.142C182.466 180.409 183.892 181.122 185.159 180.647C186.426 180.251 187.139 178.825 186.664 177.558C186.268 176.291 184.842 175.578 183.575 176.053C182.308 176.528 181.595 177.875 182.07 179.142Z" fill="#252B31"/>
<path d="M175.337 201.32C170.268 201.32 165.991 196.488 165.753 196.251C165.595 196.092 165.595 195.855 165.833 195.696C165.991 195.538 166.229 195.538 166.387 195.775C166.466 195.855 171.139 201.161 176.208 200.528C176.446 200.528 176.604 200.686 176.684 200.844C176.684 201.082 176.525 201.24 176.367 201.32C175.971 201.32 175.654 201.32 175.337 201.32Z" fill="#252B31"/>
<path d="M177.476 196.171C175.733 196.171 174.625 194.35 174.308 193.241C174.229 193.082 174.308 192.924 174.387 192.845C174.466 192.765 174.625 192.686 174.783 192.765C175.733 193.003 178.506 193.478 179.773 192.607C179.931 192.528 180.01 192.528 180.169 192.607C180.327 192.686 180.406 192.765 180.406 192.924C180.486 193.795 180.09 195.696 178.11 196.171C177.872 196.171 177.714 196.171 177.476 196.171ZM175.417 193.716C175.813 194.508 176.605 195.696 177.951 195.379C179.139 195.142 179.456 194.27 179.614 193.637C178.189 194.112 176.367 193.874 175.417 193.716Z" fill="#252B31"/>
<path d="M177.555 227.774C173.357 227.774 169.714 226.744 169.476 226.744C169.238 226.665 169.159 226.427 169.159 226.269C169.238 226.031 169.476 225.952 169.634 225.952C169.714 225.952 178.664 228.407 184.683 225.635C184.921 225.556 185.158 225.635 185.238 225.794C185.317 226.031 185.238 226.269 185.079 226.348C182.782 227.378 180.089 227.774 177.555 227.774Z" fill="#F28BDC"/>
<path d="M202.742 249.317C202.505 249.317 202.346 249.159 202.346 248.921C202.346 248.763 202.505 248.604 202.663 248.525H202.742C202.98 248.525 203.138 248.684 203.138 248.921C203.138 249.08 202.98 249.238 202.821 249.317C202.821 249.317 202.821 249.317 202.742 249.317Z" fill="#252B31"/>
<path d="M156.012 250.822C155.774 250.822 155.616 250.664 155.616 250.426C155.616 250.189 155.774 250.03 156.012 250.03C156.249 250.03 156.408 250.189 156.408 250.426C156.408 250.664 156.17 250.822 156.012 250.822Z" fill="#252B31"/>
<path d="M165.753 252.723C165.674 252.723 165.595 252.723 165.516 252.644C165.357 252.486 165.278 252.248 165.436 252.09C170.743 244.803 171.852 227.061 171.852 226.902C171.852 226.665 172.09 226.506 172.248 226.506C172.486 226.506 172.644 226.744 172.644 226.902C172.565 227.615 171.535 245.04 166.07 252.486C165.991 252.723 165.912 252.723 165.753 252.723Z" fill="#F28BDC"/>
<path d="M193.317 251.614C193.237 251.614 193.158 251.614 193.158 251.535C189.832 249.793 186.901 245.04 184.525 237.595C182.703 232.13 181.911 227.061 181.911 226.982C181.911 226.744 181.99 226.586 182.228 226.506C182.466 226.506 182.624 226.586 182.703 226.823C182.703 227.061 186.03 246.704 193.554 250.743C193.792 250.822 193.792 251.06 193.713 251.297C193.633 251.535 193.475 251.614 193.317 251.614Z" fill="#F28BDC"/>
<path d="M173.753 253.832C173.674 253.832 173.674 253.832 173.595 253.832C173.357 253.753 173.278 253.515 173.357 253.357C176.684 242.744 175.179 227.536 175.1 227.378C175.1 227.14 175.258 226.982 175.496 226.903C175.733 226.903 175.892 227.061 175.971 227.299C175.971 227.457 177.476 242.823 174.149 253.595C174.07 253.674 173.912 253.832 173.753 253.832Z" fill="#F28BDC"/>
<path d="M184.762 253.278C184.604 253.278 184.525 253.199 184.446 253.119C181.357 248.526 179.06 228.249 178.98 227.378C178.98 227.14 179.139 226.982 179.376 226.903C179.614 226.903 179.773 227.061 179.852 227.299C179.852 227.536 182.149 248.288 185.158 252.644C185.317 252.803 185.238 253.119 185.079 253.199C184.921 253.278 184.842 253.278 184.762 253.278Z" fill="#F28BDC"/>
<g clip-path="url(#clip0)">
<path d="M121.549 143.814C118.749 142.054 116.042 140.526 113.802 139.368C113.242 139.09 112.729 138.812 112.215 138.534C111.702 138.303 111.282 138.071 110.862 137.84C110.022 137.423 109.322 137.052 108.715 136.774C108.435 136.636 108.155 136.497 107.875 136.358C108.062 136.589 108.249 136.821 108.435 137.052C108.809 137.516 109.135 137.979 109.369 138.442C109.929 139.368 110.302 140.248 110.535 140.989C111.049 142.518 111.049 143.49 110.862 143.536C110.442 143.629 109.509 139.924 106.149 136.497C105.915 136.219 105.682 135.895 105.589 135.431C105.542 135.2 105.589 134.922 105.682 134.69C105.775 134.459 105.962 134.273 106.149 134.135C106.522 133.857 106.849 133.764 107.175 133.671C107.502 133.579 107.735 133.532 108.015 133.44C109.089 133.162 110.069 132.977 110.909 132.838C112.589 132.56 113.615 132.56 113.662 132.745C113.709 132.93 112.729 133.255 111.142 133.718C110.395 133.949 109.462 134.227 108.389 134.551C108.155 134.644 107.875 134.69 107.595 134.783C108.062 134.922 108.622 135.153 109.369 135.478C109.975 135.756 110.722 136.08 111.609 136.497C112.029 136.728 112.495 136.913 113.009 137.191C113.522 137.469 114.035 137.747 114.595 138.025C116.882 139.229 119.635 140.85 122.389 142.657C125.142 144.463 127.942 146.547 130.369 148.539C132.795 150.53 134.849 152.383 136.249 153.818C137.649 155.254 138.442 156.181 138.349 156.227C138.162 156.412 134.569 153.031 129.575 149.326C127.149 147.52 124.302 145.574 121.549 143.814Z" fill="#072333"/>
</g>
<g clip-path="url(#clip1)">
<path d="M89.3353 197.169C84.7564 195.578 80.3536 194.245 76.7245 193.269C75.8188 193.039 74.9854 192.8 74.152 192.561C73.3249 192.378 72.6425 192.178 71.9601 191.977C70.6015 191.632 69.4662 191.317 68.4882 191.095C68.0354 190.979 67.5825 190.864 67.1296 190.749C67.4504 190.991 67.7712 191.232 68.092 191.474C68.7336 191.957 69.3029 192.449 69.7275 192.957C70.7214 193.957 71.4197 194.935 71.8821 195.773C72.8855 197.495 73.0178 198.649 72.7348 198.738C72.0965 198.922 70.1461 194.691 64.4725 191.221C64.0731 190.932 63.6673 190.589 63.4597 190.056C63.3559 189.789 63.3904 189.451 63.5036 189.16C63.6167 188.869 63.8808 188.616 64.1513 188.418C64.6921 188.022 65.1858 187.854 65.6794 187.686C66.1731 187.518 66.5285 187.421 66.9498 187.262C68.5755 186.741 70.0692 186.347 71.3522 186.033C73.9181 185.405 75.5093 185.223 75.6068 185.434C75.7043 185.646 74.2296 186.205 71.8335 187.036C70.7077 187.443 69.299 187.939 67.6796 188.514C67.3306 188.666 66.9029 188.77 66.4815 188.93C67.2237 189.012 68.1231 189.187 69.3244 189.44C70.3024 189.662 71.5038 189.914 72.9346 190.251C73.6171 190.451 74.3655 190.588 75.1989 190.827C76.0323 191.065 76.8657 191.304 77.7714 191.534C81.4791 192.557 85.9668 193.992 90.4797 195.646C94.9926 197.3 99.6156 199.276 103.647 201.209C107.679 203.141 111.113 204.975 113.479 206.43C115.844 207.885 117.199 208.843 117.061 208.915C116.797 209.168 110.768 205.794 102.525 202.284C98.5183 200.571 93.8419 198.769 89.3353 197.169Z" fill="#072333"/>
</g>
<g clip-path="url(#clip2)">
<path d="M220.09 129.792C222.218 128.276 224.276 126.96 225.978 125.963C226.403 125.724 226.794 125.484 227.184 125.245C227.574 125.046 227.893 124.846 228.212 124.647C228.851 124.288 229.383 123.969 229.844 123.73C230.057 123.61 230.269 123.49 230.482 123.371C230.34 123.57 230.198 123.77 230.057 123.969C229.773 124.368 229.525 124.767 229.347 125.165C228.922 125.963 228.638 126.721 228.461 127.359C228.07 128.675 228.07 129.513 228.212 129.552C228.531 129.632 229.241 126.442 231.794 123.49C231.972 123.251 232.149 122.972 232.22 122.573C232.255 122.374 232.22 122.134 232.149 121.935C232.078 121.736 231.936 121.576 231.794 121.456C231.511 121.217 231.262 121.137 231.014 121.058C230.766 120.978 230.589 120.938 230.376 120.858C229.56 120.619 228.815 120.459 228.177 120.34C226.9 120.1 226.12 120.1 226.084 120.26C226.049 120.419 226.794 120.699 227.999 121.097C228.567 121.297 229.276 121.536 230.092 121.815C230.269 121.895 230.482 121.935 230.695 122.015C230.34 122.134 229.915 122.334 229.347 122.613C228.886 122.852 228.319 123.131 227.645 123.49C227.326 123.69 226.971 123.849 226.581 124.089C226.191 124.328 225.801 124.567 225.375 124.806C223.637 125.843 221.545 127.239 219.452 128.795C217.36 130.35 215.232 132.145 213.387 133.86C211.543 135.575 209.983 137.17 208.919 138.406C207.855 139.643 207.252 140.44 207.323 140.48C207.464 140.64 210.195 137.728 213.99 134.538C215.834 132.982 217.998 131.307 220.09 129.792Z" fill="#072333"/>
</g>
<g clip-path="url(#clip3)">
<path d="M175.109 97.2661C174.622 93.995 174.31 90.9023 174.149 88.3859C174.12 87.7614 174.072 87.1797 174.023 86.598C174.017 86.0349 173.974 85.5572 173.931 85.0796C173.886 84.1429 173.828 83.353 173.817 82.6858C173.803 82.3736 173.788 82.0614 173.773 81.7491C173.91 82.0131 174.047 82.2771 174.184 82.541C174.459 83.069 174.751 83.5542 175.082 83.9539C175.705 84.8388 176.361 85.5342 176.946 86.0455C178.14 87.1295 179.03 87.5202 179.148 87.3679C179.401 87.0204 176.383 84.6774 174.594 80.2237C174.433 79.8984 174.23 79.5545 173.843 79.283C173.65 79.1472 173.377 79.0784 173.127 79.0708C172.878 79.0633 172.633 79.1598 172.431 79.2749C172.026 79.5052 171.81 79.7671 171.594 80.0291C171.378 80.291 171.242 80.4861 171.045 80.7053C170.359 81.5766 169.796 82.3997 169.331 83.1131C168.402 84.54 167.989 85.4802 168.14 85.5973C168.291 85.7145 168.982 84.9472 170.043 83.6803C170.555 83.0895 171.185 82.3464 171.913 81.4937C172.091 81.3172 172.246 81.0794 172.443 80.8602C172.383 81.3434 172.37 81.9492 172.367 82.7632C172.378 83.4304 172.375 84.2444 172.401 85.2238C172.444 85.7015 172.426 86.2033 172.475 86.785C172.523 87.3667 172.571 87.9484 172.601 88.5729C172.785 91.1507 173.164 94.3232 173.712 97.5702C174.26 100.817 175.044 104.219 175.893 107.241C176.742 110.263 177.614 112.888 178.366 114.746C179.119 116.605 179.648 117.704 179.728 117.637C179.973 117.54 178.32 112.892 176.933 106.831C176.253 103.883 175.615 100.494 175.109 97.2661Z" fill="#072333"/>
</g>
<defs>
<clipPath id="clip0">
<rect width="32.8065" height="23.6207" fill="white" transform="matrix(-1 0 0 1 138.395 132.606)"/>
</clipPath>
<clipPath id="clip1">
<rect width="51.1781" height="28.2136" fill="white" transform="matrix(-0.993497 0.113854 0.113854 0.993497 113.92 180.877)"/>
</clipPath>
<clipPath id="clip2">
<rect width="24.9329" height="20.34" fill="white" transform="translate(207.288 120.14)"/>
</clipPath>
<clipPath id="clip3">
<rect width="32.8065" height="23.6207" fill="white" transform="translate(158.079 108.191) rotate(-66.3166)"/>
</clipPath>
</defs>
</svg>
