<svg width="620" height="465" viewBox="0 0 620 465" fill="none" xmlns="http://www.w3.org/2000/svg">
<g clip-path="url(#clip0)">
<path d="M570.101 264.457L493.502 352.581L528.889 399.676C589.004 380.937 620.146 344.839 618.666 306.966C617.136 268.303 570.101 264.457 570.101 264.457Z" fill="white"/>
<path d="M593.987 270.868C582.093 265.098 570.248 264.062 570.149 264.062C570.001 264.062 569.902 264.112 569.804 264.21L493.155 352.335C493.007 352.483 493.007 352.68 493.155 352.828L528.543 399.923C528.592 399.972 528.691 400.071 528.74 400.071C528.839 400.071 528.888 400.071 528.987 400.071C557.909 391.046 581.501 377.485 597.146 360.767C612.249 344.691 619.8 326.099 619.06 306.916C618.27 286.796 604.994 276.194 593.987 270.868ZM528.987 399.232L493.995 352.631L570.248 264.901C573.604 265.246 616.74 270.424 618.171 307.015C619.8 346.762 586.436 381.233 528.987 399.232Z" fill="#252B31"/>
<path d="M2.22353 335.617C-2.36647 361.951 10.3671 402.093 55.6255 425.418L84.2019 390.159L41.7074 311.996C41.7074 311.996 6.81353 309.333 2.22353 335.617Z" fill="white"/>
<path d="M42.0518 311.798C42.0024 311.7 41.8544 311.601 41.7063 311.601C41.3608 311.552 6.36822 309.185 1.77822 335.568C-0.738878 350.017 2.22241 366.882 9.82306 381.874C19.0524 400.022 34.7966 415.21 55.3776 425.813C55.4269 425.862 55.5257 425.862 55.575 425.862C55.6737 425.862 55.8218 425.813 55.8711 425.714L84.4476 390.455C84.5463 390.307 84.5463 390.159 84.497 390.011L42.0518 311.798ZM55.4763 424.925C12.1921 402.438 -2.26888 363.924 2.61725 335.716C6.36822 314.116 31.2924 312.341 39.2385 312.341C40.3244 312.341 41.114 312.39 41.4595 312.39L83.7073 390.159L55.4763 424.925Z" fill="#252B31"/>
<path d="M584.758 443.961C581.106 437.698 577.108 431.583 572.814 425.665C571.778 424.235 570.741 422.854 569.705 421.473C564.473 414.619 558.847 408.01 552.776 401.649C546.607 395.189 540.042 388.975 533.083 383.008C532.935 382.86 532.787 382.762 532.639 382.614C532.491 382.466 532.343 382.367 532.195 382.219C524.397 375.611 516.105 369.397 507.419 363.529C507.271 363.43 507.123 363.332 506.975 363.233C506.827 363.135 506.679 363.036 506.53 362.937C505.938 362.543 505.297 362.148 504.704 361.754C493.057 354.11 480.619 347.157 467.491 340.943C467.195 340.795 466.899 340.647 466.602 340.549C464.233 339.464 461.864 338.329 459.446 337.294C459.15 337.146 458.854 337.047 458.558 336.899C450.414 333.349 442.073 330.094 433.485 327.135C433.189 327.036 432.893 326.938 432.548 326.839C418.432 322.006 403.724 318.061 388.572 315.004C388.326 314.955 388.029 314.905 387.783 314.856C378.06 312.933 368.189 311.355 358.12 310.171C357.874 310.122 357.578 310.122 357.281 310.072C343.166 308.445 328.754 307.607 314.096 307.607C300.474 307.607 287.049 308.346 273.921 309.727C273.674 309.777 273.378 309.777 273.082 309.826C263.705 310.812 254.525 312.193 245.443 313.87C245.098 313.919 244.802 313.968 244.456 314.067C241.051 314.708 237.695 315.398 234.338 316.089C217.41 319.787 201.123 324.571 185.527 330.439C176.84 333.694 168.351 337.294 160.109 341.239C142.44 349.622 125.955 359.436 110.902 370.482C96.0956 381.331 82.671 393.413 70.9246 406.432C70.3817 407.074 69.7894 407.665 69.2465 408.306C64.3604 413.879 59.721 419.599 55.4272 425.468C46.4939 437.747 38.992 450.717 32.9707 464.229H594.925C592.112 457.867 588.953 451.604 585.449 445.489C585.35 444.947 585.054 444.454 584.758 443.961Z" fill="#252B31"/>
<path d="M211.242 384.931C229.641 384.931 244.556 378.639 244.556 370.877C244.556 363.115 229.641 356.822 211.242 356.822C192.842 356.822 177.927 363.115 177.927 370.877C177.927 378.639 192.842 384.931 211.242 384.931Z" fill="white"/>
<path d="M211.24 356.28C192.584 356.28 177.432 362.789 177.432 370.828C177.432 378.866 192.584 385.375 211.24 385.375C229.897 385.375 245.048 378.866 245.048 370.828C244.999 362.839 229.847 356.28 211.24 356.28ZM211.24 384.438C193.127 384.438 178.419 378.323 178.419 370.877C178.419 363.381 193.127 357.315 211.24 357.315C229.354 357.315 244.061 363.43 244.061 370.877C244.061 378.373 229.304 384.438 211.24 384.438Z" fill="#252B31"/>
<path d="M230.046 355.244C230.046 355.244 230.588 362.296 228.269 365.699C228.269 365.699 228.318 365.6 228.417 365.452C229.799 363.381 231.625 361.754 233.747 360.472C236.412 358.894 238.238 356.724 237.251 354.85C235.228 350.954 230.046 355.244 230.046 355.244Z" fill="white"/>
<path d="M235.424 352.828C232.858 352.335 229.847 354.8 229.749 354.899L229.551 355.047V355.294C229.551 355.343 230.045 362.05 227.972 365.304L227.873 365.452L228.712 365.995C228.761 365.945 228.761 365.896 228.811 365.847L228.86 365.748C230.143 363.825 231.871 362.198 234.042 360.915C237.349 358.943 238.781 356.576 237.744 354.652C237.201 353.617 236.411 353.025 235.424 352.828ZM233.549 360.077C232.216 360.866 231.032 361.803 229.995 362.839C230.736 359.831 230.588 356.477 230.538 355.491C231.18 354.998 233.45 353.42 235.227 353.765C235.918 353.913 236.461 354.357 236.905 355.096C237.744 356.773 235.72 358.746 233.549 360.077Z" fill="#252B31"/>
<path d="M194.412 348.291C194.412 348.291 191.154 364.91 201.272 373.885H211.242H213.216H223.185C233.303 364.91 230.046 348.291 230.046 348.291H194.412Z" fill="white"/>
<path d="M229.502 348.39C229.551 348.538 232.562 364.713 222.938 373.441H201.419C191.795 364.713 194.805 348.587 194.855 348.39L193.917 348.192C193.868 348.34 190.709 365.206 200.925 374.28L201.073 374.378H223.332L223.48 374.28C233.697 365.206 230.538 348.39 230.489 348.192L229.502 348.39Z" fill="#252B31"/>
<path d="M212.278 349.82C222.145 349.82 230.145 349.135 230.145 348.291C230.145 347.447 222.145 346.762 212.278 346.762C202.411 346.762 194.412 347.447 194.412 348.291C194.412 349.135 202.411 349.82 212.278 349.82Z" fill="white"/>
<path d="M212.277 346.269C206.749 346.269 193.917 346.466 193.917 348.291C193.917 350.116 206.749 350.313 212.277 350.313C217.805 350.313 230.637 350.116 230.637 348.291C230.637 346.466 217.805 346.269 212.277 346.269ZM212.277 349.327C203.245 349.327 197.224 348.784 195.348 348.291C197.174 347.798 203.245 347.255 212.277 347.255C221.309 347.255 227.33 347.798 229.206 348.291C227.33 348.784 221.309 349.327 212.277 349.327Z" fill="#252B31"/>
<path d="M315.923 355.688C334.322 355.688 349.237 349.396 349.237 341.634C349.237 333.871 334.322 327.579 315.923 327.579C297.524 327.579 282.608 333.871 282.608 341.634C282.608 349.396 297.524 355.688 315.923 355.688Z" fill="white"/>
<path d="M315.922 327.135C297.315 327.135 282.213 333.645 282.213 341.634C282.213 349.622 297.315 356.132 315.922 356.132C334.529 356.132 349.631 349.622 349.631 341.634C349.631 333.645 334.529 327.135 315.922 327.135ZM315.922 355.294C297.759 355.294 283.002 349.179 283.002 341.634C283.002 334.088 297.759 327.973 315.922 327.973C334.085 327.973 348.842 334.088 348.842 341.634C348.842 349.179 334.035 355.294 315.922 355.294Z" fill="#252B31"/>
<path d="M334.726 326C334.726 326 335.269 333.052 332.949 336.455C332.949 336.455 332.999 336.356 333.098 336.208C334.479 334.137 336.306 332.51 338.428 331.227C341.093 329.649 342.919 327.48 341.932 325.606C339.909 321.759 334.726 326 334.726 326Z" fill="white"/>
<path d="M340.106 323.683C337.589 323.19 334.628 325.606 334.479 325.705L334.331 325.853V326.05C334.331 326.1 334.825 332.757 332.752 336.061C332.653 336.209 332.604 336.258 332.604 336.258L333.295 336.702C333.344 336.653 333.394 336.554 333.443 336.505C333.443 336.505 333.443 336.456 333.492 336.456C334.776 334.532 336.552 332.905 338.724 331.623C341.981 329.699 343.413 327.332 342.376 325.458C341.833 324.472 341.044 323.88 340.106 323.683ZM338.28 330.932C336.849 331.771 335.615 332.757 334.529 333.891C335.368 330.784 335.22 327.184 335.17 326.247C335.812 325.754 338.132 324.127 339.958 324.521C340.698 324.669 341.241 325.113 341.685 325.902C342.574 327.579 340.501 329.601 338.28 330.932Z" fill="#252B31"/>
<path d="M299.092 319.047C299.092 319.047 295.835 335.666 305.952 344.642H315.922H317.896H327.866C337.984 335.666 334.726 319.047 334.726 319.047H299.092Z" fill="white"/>
<path d="M334.282 319.146C334.331 319.294 337.342 335.519 327.668 344.247H306.1C296.427 335.519 299.438 319.294 299.487 319.146L298.697 318.998C298.648 319.146 295.489 335.962 305.706 344.987L305.804 345.086H328.014L328.113 344.987C338.28 335.962 335.121 319.146 335.121 318.998L334.282 319.146Z" fill="#252B31"/>
<path d="M316.959 320.576C326.826 320.576 334.825 319.891 334.825 319.047C334.825 318.203 326.826 317.518 316.959 317.518C307.091 317.518 299.092 318.203 299.092 319.047C299.092 319.891 307.091 320.576 316.959 320.576Z" fill="white"/>
<path d="M316.959 317.124C312.665 317.124 298.697 317.272 298.697 319.048C298.697 320.823 312.665 320.971 316.959 320.971C321.252 320.971 335.22 320.823 335.22 319.048C335.269 317.272 321.252 317.124 316.959 317.124ZM316.959 320.182C307.433 320.182 301.264 319.59 299.783 319.048C301.313 318.554 307.433 317.913 316.959 317.913C326.484 317.913 332.653 318.505 334.134 319.048C332.653 319.59 326.484 320.182 316.959 320.182Z" fill="#252B31"/>
<path d="M436.151 384.784C454.55 384.784 469.466 378.491 469.466 370.729C469.466 362.967 454.55 356.674 436.151 356.674C417.752 356.674 402.837 362.967 402.837 370.729C402.837 378.491 417.752 384.784 436.151 384.784Z" fill="white"/>
<path d="M436.151 356.231C417.544 356.231 402.441 362.74 402.441 370.729C402.441 378.718 417.544 385.227 436.151 385.227C454.757 385.227 469.86 378.718 469.86 370.729C469.86 362.74 454.708 356.231 436.151 356.231ZM436.151 384.389C417.988 384.389 403.231 378.274 403.231 370.729C403.231 363.184 417.988 357.069 436.151 357.069C454.313 357.069 469.07 363.184 469.07 370.729C469.021 378.274 454.264 384.389 436.151 384.389Z" fill="#252B31"/>
<path d="M454.955 355.145C454.955 355.145 455.498 362.197 453.178 365.599C453.178 365.599 453.228 365.501 453.326 365.353C454.708 363.282 456.534 361.654 458.657 360.372C461.322 358.794 463.148 356.624 462.161 354.75C460.137 350.855 454.955 355.145 454.955 355.145Z" fill="white"/>
<path d="M460.285 352.779C457.768 352.285 454.807 354.702 454.659 354.8L454.511 354.948V355.146C454.511 355.195 455.004 361.902 452.931 365.206L452.833 365.354L453.523 365.798C453.573 365.748 453.573 365.699 453.622 365.65L453.672 365.551C454.955 363.628 456.732 362 458.903 360.718C462.161 358.795 463.592 356.428 462.555 354.554C462.062 353.568 461.272 352.976 460.285 352.779ZM458.508 360.028C457.077 360.866 455.843 361.852 454.757 362.987C455.596 359.88 455.448 356.28 455.399 355.343C456.041 354.85 458.36 353.222 460.186 353.617C460.927 353.765 461.47 354.209 461.914 354.998C462.753 356.674 460.729 358.696 458.508 360.028Z" fill="#252B31"/>
<path d="M419.321 348.192C419.321 348.192 416.063 364.811 426.181 373.786H436.151H438.125H448.094C458.212 364.811 454.955 348.192 454.955 348.192H419.321Z" fill="white"/>
<path d="M454.511 348.242C454.56 348.39 457.571 364.614 447.897 373.343H426.329C416.655 364.614 419.666 348.39 419.715 348.242L418.926 348.094C418.876 348.242 415.718 365.058 425.934 374.082L426.033 374.181H448.242L448.341 374.082C458.508 365.058 455.35 348.242 455.35 348.094L454.511 348.242Z" fill="#252B31"/>
<path d="M437.188 346.664C427.317 346.664 419.321 347.354 419.321 348.192C419.321 349.031 427.317 349.721 437.188 349.721C447.059 349.721 455.054 349.031 455.054 348.192C455.054 347.305 447.059 346.664 437.188 346.664Z" fill="white"/>
<path d="M437.187 346.22C432.893 346.22 418.926 346.368 418.926 348.143C418.926 349.918 432.893 350.066 437.187 350.066C441.481 350.066 455.448 349.918 455.448 348.143C455.448 346.368 441.481 346.22 437.187 346.22ZM437.187 349.277C427.662 349.277 421.492 348.685 420.012 348.143C421.542 347.65 427.662 347.009 437.187 347.009C446.713 347.009 452.882 347.601 454.363 348.143C452.882 348.685 446.713 349.277 437.187 349.277Z" fill="#252B31"/>
<path d="M466.504 316.286C467.195 319.146 469.021 328.516 466.652 340.549C466.652 340.647 466.602 340.696 466.602 340.795C466.948 340.844 467.244 340.992 467.491 341.19C467.491 341.14 467.54 341.042 467.54 340.992C469.81 329.551 468.428 320.478 467.639 316.828C467.392 315.744 467.195 315.152 467.195 315.102L466.701 315.25L466.257 315.398C466.257 315.398 466.257 315.448 466.257 315.497C466.306 315.546 466.405 315.842 466.504 316.286Z" fill="#252B31"/>
<path d="M465.763 314.609C465.763 314.609 465.763 314.708 465.714 314.807C465.467 316.286 463.789 325.064 458.508 336.85C458.459 336.949 458.409 336.998 458.409 337.097C458.705 337.146 459.051 337.245 459.298 337.442C459.347 337.392 459.347 337.294 459.396 337.245C463.888 327.234 465.763 319.393 466.454 316.237C466.503 316.039 466.503 315.891 466.553 315.744C466.602 315.546 466.602 315.349 466.651 315.201C466.701 314.905 466.701 314.757 466.701 314.757L465.763 314.609Z" fill="#252B31"/>
<path d="M556.773 222.983C553.812 224.315 550.703 225.203 547.396 225.104C547.1 225.104 546.754 225.153 546.261 225.153C546.113 225.893 545.866 226.583 545.817 227.323C545.669 230.331 544.435 232.55 542.313 234.128C542.016 234.375 541.671 234.572 541.325 234.819C540.98 235.016 540.585 235.263 540.19 235.46C537.032 236.939 533.873 238.123 530.27 237.876C528.197 237.778 526.42 237.235 524.94 236.298C524.643 236.15 524.397 235.953 524.15 235.756C522.817 234.72 521.781 233.29 520.991 231.515C520.843 231.17 520.695 230.824 520.498 230.381C520.103 230.726 519.807 231.022 519.511 231.268C516.895 233.685 512.552 234.227 509.492 232.255C507.024 230.676 504.902 228.753 503.717 225.942C502.878 223.92 502.779 221.948 503.372 219.877C503.816 218.348 504.408 216.869 504.902 215.34C505.247 214.304 504.754 213.071 503.717 212.627C503.52 212.578 503.322 212.48 503.075 212.43C498.091 210.655 495.968 207.696 495.87 202.37C495.82 199.855 495.919 197.34 497.104 195.072C497.646 193.987 498.288 192.852 499.176 191.965C501.743 189.351 503.915 186.392 506.975 184.272C507.123 184.173 512.601 177.664 511.466 172.88C511.071 171.302 509.492 170.267 507.665 170.71C506.53 171.006 505.642 171.943 505.148 173.028C504.951 173.472 504.655 174.064 504.26 174.606C503.224 175.938 501.003 175.297 500.854 173.62V173.571C500.805 172.338 501.003 171.105 501.151 169.872C501.249 168.688 501.496 167.505 501.447 166.321C501.397 165.138 500.805 164.842 499.621 165.187C498.091 165.582 496.61 166.075 495.475 167.258C494.981 167.801 494.192 168.097 493.599 168.59C491.773 170.02 489.848 169.921 487.874 169.132C486.295 168.491 485.061 167.406 484.173 166.026C483.778 165.434 483.63 164.645 483.531 163.905C483.432 163.116 483.482 162.278 483.482 161.489C483.482 160.65 483.037 160.305 482.248 160.305C481.606 160.305 480.915 160.354 480.274 160.453C478.497 160.798 476.769 160.65 475.091 160.058C472.624 159.171 471.735 157.691 472.081 155.176C472.229 153.894 472.426 152.612 471.834 151.281C470.501 150.985 469.366 151.231 468.33 151.675C466.602 152.365 464.875 153.056 463.246 153.993C461.272 155.127 459.199 155.472 457.324 155.176C456.978 155.127 456.682 155.078 456.336 154.979C454.017 154.387 451.993 152.957 450.661 151.034C449.772 149.752 448.637 148.667 448.144 147.089C447.749 145.807 447.601 144.574 447.749 143.242C448.242 138.853 450.513 135.549 453.967 132.936C456.485 131.062 459.1 129.484 462.308 128.991C464.283 128.695 466.207 128.004 467.343 125.933C467.737 125.193 467.935 124.355 468.083 123.517C468.725 118.585 471.735 115.38 476.226 113.259C478.447 112.224 480.816 112.273 483.136 112.865C484.666 113.259 486.147 113.9 487.677 114.295C488.318 114.492 489.108 114.591 489.75 114.393C490.737 114.147 491.674 113.703 492.612 113.21C493.994 112.47 495.376 111.632 496.758 110.892C499.078 109.659 501.545 109.462 504.112 109.955C507.764 110.646 510.084 112.914 511.713 116.119C512.354 117.352 512.996 118.635 513.736 119.818C514.723 121.544 516.204 122.974 517.981 123.911C519.511 124.7 521.041 125.045 522.669 124.651C523.212 124.503 523.755 124.404 524.249 124.256C528.691 122.974 532.343 124.503 535.403 127.61C536.341 128.596 537.081 129.73 537.871 130.864C539.253 132.886 539.647 135.155 539.351 137.571C539.203 138.804 539.104 140.086 539.154 141.319C539.203 144.081 540.585 145.955 543.201 146.842C544.435 147.237 545.718 147.631 547.001 147.878C554.602 149.308 557.909 156.804 556.033 162.82C555.095 165.828 554.108 168.787 552.529 171.549C550.999 174.162 551.098 174.162 553.862 175.247C556.774 176.431 559.143 178.305 560.623 181.116C561.215 182.25 561.758 183.384 562.252 184.518C563.14 186.688 563.14 189.105 562.301 191.274C561.462 193.444 560.327 195.417 558.846 197.192C558.303 197.833 557.81 198.524 557.119 199.362C557.909 199.707 558.55 200.003 559.192 200.25C562.943 201.433 564.868 204.195 565.411 207.893C566.2 214.797 563.239 220.074 556.773 222.983Z" fill="#252B31"/>
<path d="M498.732 218.742C496.166 219.482 493.797 219.877 491.625 219.975C491.131 220.025 490.638 220.025 490.144 220.025C489.996 220.025 489.848 220.025 489.749 220.025C479.829 220.025 474.055 214.995 474.005 214.945C473.857 214.797 473.808 214.551 473.907 214.353C475.042 212.085 476.374 208.584 476.177 207.055C473.759 209.866 467.342 209.669 467.046 209.669C466.898 209.669 466.799 209.619 466.701 209.521L460.186 202.173C459.248 201.778 454.362 199.51 453.474 197.587C452.585 195.614 457.126 189.006 458.458 187.132C452.19 176.036 454.313 162.672 456.435 154.979C457.521 151.133 458.557 148.667 458.607 148.568C458.705 148.322 459.001 148.223 459.248 148.322C459.495 148.42 459.594 148.716 459.495 148.963C459.495 149.012 458.459 151.428 457.422 155.127C455.892 160.7 454.313 169.33 456.089 177.812C456.139 178.206 456.238 178.601 456.336 178.995C456.978 181.707 458.014 184.37 459.446 186.885C459.544 187.033 459.544 187.28 459.446 187.428C456.583 191.422 453.918 196.107 454.362 197.143C455.004 198.573 459.149 200.595 460.679 201.285C460.729 201.334 460.778 201.334 460.828 201.384L467.244 208.682C468.478 208.682 474.351 208.584 475.782 205.871C475.831 205.723 475.979 205.625 476.128 205.625C476.276 205.625 476.424 205.625 476.522 205.723C478.2 207.203 475.782 212.677 474.894 214.403C476.522 215.685 485.061 221.553 498.485 217.707C498.732 217.608 499.028 217.756 499.078 218.052C499.127 218.397 498.979 218.644 498.732 218.742Z" fill="#252B31"/>
<path d="M494.043 232.501C494.043 232.55 494.043 232.6 493.994 232.6L493.895 232.994H493.501C493.501 232.994 493.353 232.994 493.155 232.994C490.934 233.044 479.237 233.537 467.293 239.652C455.201 245.816 440.493 259.18 438.569 287.733L461.568 294.538L462.012 294.637L461.765 295.574L461.519 295.525L441.135 289.459L440.148 289.163L437.582 288.423L437.631 288.029C439.457 258.736 454.56 245.027 466.948 238.715C479.04 232.55 490.885 232.008 493.204 231.959C495.129 223.477 490.835 220.419 490.144 219.975C490.144 219.975 490.095 219.975 490.095 219.926L490.539 219.038C490.589 219.088 491.082 219.334 491.674 219.877C493.204 221.455 495.82 225.153 494.043 232.501Z" fill="#252B31"/>
<path d="M546.261 309.53C546.261 309.579 546.261 309.629 546.261 309.678C546.261 309.777 546.261 309.826 546.212 309.924C546.014 311.059 545.718 312.144 545.372 313.179C545.175 313.771 544.978 314.313 544.731 314.905C543.152 318.604 540.733 321.513 537.426 323.535C533.527 325.902 528.937 326.79 524.643 326.79C523.459 326.79 522.274 326.741 521.139 326.593C519.264 326.395 517.536 326.05 516.056 325.606C505.444 322.5 503.371 314.412 502.977 310.27C501.743 312.834 499.176 316.927 494.34 319.59C488.91 322.549 482.149 322.795 474.252 320.428C471.686 319.639 469.465 318.407 467.688 316.779C467.342 316.434 466.997 316.138 466.651 315.744C466.553 315.645 466.454 315.546 466.355 315.398C466.207 315.201 466.01 315.004 465.862 314.807C465.22 313.968 464.628 313.081 464.134 312.094C461.519 307.064 461.173 300.851 461.617 295.525C461.667 295.179 461.667 294.834 461.716 294.538C462.259 289.065 463.591 284.676 463.838 283.837C463.838 283.788 463.888 283.739 463.888 283.739C463.937 283.492 464.233 283.344 464.48 283.443C464.727 283.541 464.875 283.788 464.776 284.034C464.776 284.034 464.776 284.133 464.727 284.232C464.134 286.254 459.742 301.59 464.973 311.601C466.997 315.448 470.205 318.111 474.598 319.442C482.248 321.76 488.762 321.513 493.945 318.702C500.904 314.905 503.026 307.705 503.075 307.656C503.125 307.409 503.371 307.261 503.618 307.311C503.865 307.36 504.013 307.607 504.013 307.853C503.964 308.396 502.829 320.675 516.451 324.669C517.981 325.113 519.757 325.458 521.682 325.656C526.568 326.149 532.392 325.557 537.081 322.697C541.473 320.034 544.237 315.694 545.422 309.924C545.422 309.777 545.471 309.629 545.521 309.481C545.57 309.234 545.767 309.086 546.014 309.086H546.063C546.113 309.135 546.261 309.283 546.261 309.53Z" fill="#252B31"/>
<path d="M465.763 314.856C465.516 316.335 463.838 325.113 458.557 336.899C450.414 333.349 442.073 330.094 433.485 327.135C440.888 311.355 441.135 293.207 441.086 289.508L461.469 295.574C461.025 300.9 461.37 307.064 463.986 312.144C464.529 313.081 465.121 313.968 465.763 314.856C465.763 314.807 465.763 314.807 465.763 314.856Z" fill="white"/>
<path d="M432.498 326.987C432.794 327.086 433.09 327.234 433.337 327.431C433.386 327.332 433.436 327.234 433.485 327.135C440.888 311.355 441.135 293.207 441.086 289.508C441.086 289.114 441.086 288.867 441.086 288.818L440.099 288.867C440.099 288.867 440.099 289.015 440.099 289.213C440.148 292.023 440.099 310.714 432.547 326.839C432.547 326.889 432.498 326.938 432.498 326.987Z" fill="#252B31"/>
<path d="M528.148 231.663L524.989 236.298L503.569 267.711C503.471 267.81 503.323 267.909 503.175 267.909H503.125C502.928 267.859 502.78 267.761 502.73 267.564L493.205 232.945L493.106 232.6C493.057 232.353 493.205 232.057 493.452 232.008C493.698 231.959 493.995 232.057 494.044 232.353L494.093 232.501L503.421 266.331L524.2 235.756L527.358 231.12C527.506 230.874 527.803 230.824 528.049 230.972C528.247 231.12 528.296 231.466 528.148 231.663Z" fill="#252B31"/>
<path d="M476.424 180.869C476.227 180.721 471.587 177.565 466.652 178.65C463.937 179.242 461.716 181.017 460.038 183.927L459.841 184.272L460.137 184.518C460.236 184.617 462.901 187.132 466.849 187.132C467.047 187.132 467.244 187.132 467.441 187.132C470.649 186.935 473.709 185.061 476.572 181.609L476.918 181.214L476.424 180.869ZM467.343 186.146C467.293 186.146 467.195 186.146 467.096 186.146C465.22 186.195 463.592 185.603 462.457 185.011C461.815 184.666 461.321 184.321 461.025 184.075C461.321 183.581 461.667 183.138 462.012 182.694C463.098 181.412 464.332 180.475 465.665 179.981C466.01 179.833 466.405 179.735 466.75 179.636C470.403 178.847 474.055 180.672 475.289 181.412C472.87 184.321 470.156 185.948 467.343 186.146Z" fill="#252B31"/>
<path d="M468.725 183.285C468.725 184.469 468.083 185.554 467.145 186.146C466.652 186.442 466.059 186.639 465.368 186.639C464.134 186.639 463.049 185.998 462.506 185.011C462.21 184.518 462.012 183.927 462.012 183.285C462.012 183.088 462.012 182.891 462.062 182.694C462.358 181.116 463.69 179.932 465.368 179.932C465.516 179.932 465.615 179.932 465.763 179.932C467.441 180.129 468.725 181.559 468.725 183.285Z" fill="#252B31"/>
<path d="M520.991 231.515C520.843 231.17 520.695 230.824 520.498 230.381C520.103 230.726 519.807 231.022 519.511 231.268C516.895 233.685 512.552 234.227 509.492 232.255C507.024 230.676 504.902 228.753 503.717 225.942C502.878 223.92 502.779 221.948 503.372 219.877C503.816 218.348 504.408 216.868 504.902 215.34C505.247 214.304 504.754 213.071 503.717 212.627C503.52 212.578 503.322 212.48 503.076 212.43C498.091 210.655 495.968 207.696 495.87 202.37C495.82 199.855 495.919 197.34 497.104 195.072C497.647 193.987 498.288 192.852 499.177 191.965C501.743 189.351 503.915 186.392 506.975 184.272C507.123 184.173 512.601 177.664 511.466 172.88C511.071 171.302 509.492 170.267 507.666 170.71C506.53 171.006 505.642 171.943 505.149 173.028C504.951 173.472 504.655 174.064 504.26 174.606C503.224 175.938 501.003 175.297 500.855 173.62V173.571C500.805 172.338 501.003 171.105 501.151 169.872C501.249 168.688 501.496 167.505 501.447 166.321C501.398 165.138 500.805 164.842 499.621 165.187C498.091 165.582 496.61 166.075 495.475 167.258C494.981 167.801 494.192 168.097 493.599 168.59C491.773 170.02 489.848 169.921 487.874 169.132C486.295 168.491 485.061 167.406 484.173 166.025C483.778 165.434 483.63 164.645 483.531 163.905C483.432 163.116 483.482 162.278 483.482 161.489C483.482 160.65 483.038 160.305 482.248 160.305C481.606 160.305 480.915 160.354 480.274 160.453C478.497 160.798 476.769 160.65 475.091 160.058C472.624 159.171 471.735 157.691 472.081 155.176C472.229 153.894 472.426 152.612 471.834 151.281C470.501 150.985 469.366 151.231 468.33 151.675C466.602 152.365 464.875 153.056 463.246 153.993C461.272 155.127 459.199 155.472 457.324 155.176C455.794 160.749 454.214 169.379 455.991 177.861C462.506 170.908 472.13 173.324 472.229 173.324L471.982 174.261C471.883 174.261 462.358 171.894 456.238 178.995C456.879 181.707 457.916 184.37 459.347 186.885C459.446 187.033 459.446 187.28 459.347 187.428C456.485 191.422 453.819 196.107 454.264 197.143C454.905 198.573 459.051 200.595 460.581 201.285C460.63 201.334 460.68 201.334 460.729 201.384L467.145 208.682C468.379 208.682 474.252 208.584 475.684 205.871C475.733 205.723 475.881 205.625 476.029 205.625C476.177 205.625 476.325 205.625 476.424 205.723C478.102 207.203 475.684 212.677 474.795 214.403C476.424 215.685 484.962 221.553 498.387 217.707C498.634 217.608 498.93 217.756 498.979 218.052C499.028 218.299 498.93 218.594 498.634 218.644C496.067 219.383 493.698 219.778 491.527 219.877C493.155 221.356 495.722 225.055 493.994 232.402L503.322 266.232L524.101 235.657C522.818 234.72 521.781 233.29 520.991 231.515ZM476.523 181.559C473.709 185.011 470.649 186.885 467.392 187.083C467.195 187.083 466.997 187.083 466.8 187.083C462.851 187.083 460.186 184.617 460.087 184.469L459.791 184.222L459.989 183.877C461.667 180.968 463.937 179.192 466.602 178.601C471.538 177.516 476.177 180.672 476.375 180.82L476.819 181.116L476.523 181.559Z" fill="white"/>
<path d="M462.062 182.694C461.716 183.137 461.371 183.581 461.075 184.074C461.371 184.321 461.864 184.666 462.506 185.011C462.21 184.518 462.012 183.927 462.012 183.285C462.012 183.088 462.062 182.891 462.062 182.694Z" fill="white"/>
<path d="M466.849 179.636C466.454 179.735 466.109 179.833 465.763 179.981C467.441 180.179 468.724 181.609 468.724 183.285C468.724 184.469 468.083 185.554 467.145 186.146C467.194 186.146 467.293 186.146 467.392 186.146C470.205 185.948 472.92 184.37 475.437 181.362C474.154 180.622 470.501 178.798 466.849 179.636Z" fill="white"/>
<path d="M455.941 177.861C455.695 178.107 455.497 178.354 455.3 178.601L456.04 179.242C456.089 179.192 456.139 179.094 456.188 179.044C462.308 171.943 471.834 174.261 471.932 174.31L472.179 173.373C472.08 173.324 462.456 170.908 455.941 177.861Z" fill="#252B31"/>
<path d="M542.312 234.178C538.413 232.748 535.798 232.008 535.699 232.008C535.452 231.959 535.156 232.107 535.107 232.353C535.057 232.6 535.205 232.896 535.452 232.945C535.551 232.945 537.821 233.586 541.325 234.868C549.864 237.926 565.509 244.731 572.37 255.284C583.326 272.1 583.919 295.278 583.622 304.993C583.622 305.141 583.622 305.338 583.622 305.486C583.622 305.733 583.771 305.93 583.968 305.979H584.017H584.067C584.116 305.979 584.215 305.979 584.264 305.93C584.313 305.93 584.363 305.881 584.412 305.831C584.461 305.782 584.511 305.733 584.511 305.683C584.511 305.683 584.511 305.634 584.56 305.634V305.585V305.536C584.56 305.388 584.56 305.24 584.56 305.092C584.856 295.327 584.264 271.854 573.159 254.791C566.398 244.238 551.147 237.433 542.312 234.178Z" fill="#252B31"/>
<path d="M544.386 347.65C544.386 347.65 518.426 348.833 485.457 380.937C485.457 380.937 466.011 383.6 462.408 386.805C458.805 390.011 473.513 388.877 473.513 388.877C459.003 392.477 455.153 404.411 455.153 404.411C484.371 411.265 494.489 392.033 494.489 392.033C494.489 392.033 547.693 384.488 563.339 364.269C579.527 343.409 581.699 321.859 584.068 305.585C584.068 305.585 554.504 303.711 546.509 303.168C546.558 303.119 543.202 325.705 544.386 347.65Z" fill="white"/>
<path d="M546.508 303.612C546.508 303.662 546.508 303.711 546.508 303.76C546.508 303.81 546.508 303.908 546.458 303.957C546.409 304.401 546.31 304.944 546.211 305.683C546.211 305.881 546.162 306.078 546.162 306.275C546.063 307.064 545.965 308.001 545.817 309.037H545.866C546.063 309.086 546.211 309.234 546.261 309.431C546.557 306.472 546.853 304.451 546.952 303.563L583.524 305.881L546.508 303.612ZM546.508 303.612C546.508 303.662 546.508 303.711 546.508 303.76C546.508 303.81 546.508 303.908 546.458 303.957C546.409 304.401 546.31 304.944 546.211 305.683C546.211 305.881 546.162 306.078 546.162 306.275C546.063 307.064 545.965 308.001 545.817 309.037H545.866C546.063 309.086 546.211 309.234 546.261 309.431C546.557 306.472 546.853 304.451 546.952 303.563L583.524 305.881L546.508 303.612ZM584.609 305.092L584.116 305.042L583.622 304.993L560.524 303.514L547.1 302.675L546.162 302.626L546.113 302.922V303.07C546.113 303.168 545.718 305.733 545.274 309.924C545.126 311.404 544.928 313.081 544.78 314.905C544.04 323.387 543.299 335.42 543.941 347.157C541.128 347.453 526.519 349.524 506.629 362.937C500.015 367.376 492.81 373.096 485.308 380.444C483.333 380.74 465.714 383.255 462.16 386.362C461.519 386.953 461.272 387.496 461.519 388.038C462.111 389.37 466.355 389.567 469.859 389.518C458.162 394.055 454.856 404.115 454.806 404.263L454.658 404.756L455.201 404.904C459.594 405.939 463.591 406.383 467.194 406.383C485.999 406.383 493.895 394.301 494.981 392.477C497.548 392.082 515.71 389.32 533.33 383.058C540.536 380.493 547.643 377.386 553.565 373.589C553.861 373.392 554.158 373.195 554.454 373.047C558.254 370.532 561.561 367.721 563.979 364.565C579.18 344.987 582.043 324.965 584.363 308.938C584.511 307.853 584.659 306.768 584.807 305.733V305.683V305.634V305.536L584.856 305.092H584.609ZM494.191 391.54L494.093 391.786C493.994 391.983 483.926 410.378 455.843 404.065C456.78 401.797 461.272 392.427 473.66 389.37L473.512 388.433C467.787 388.877 462.703 388.531 462.358 387.742C462.358 387.693 462.358 387.545 462.752 387.2C466.207 384.142 485.357 381.479 485.554 381.479H485.702L485.801 381.381C493.451 373.934 500.756 368.165 507.419 363.677C529.036 349.179 544.237 348.242 544.435 348.242L544.928 348.192L544.879 347.699C544.089 333.25 545.323 318.308 546.211 309.974C546.211 309.826 546.261 309.727 546.261 309.579C546.557 306.62 546.853 304.599 546.952 303.711L583.524 306.029C583.376 306.916 583.277 307.853 583.129 308.79C580.859 324.719 577.996 344.592 562.943 363.973C556.773 371.912 544.583 377.929 532.145 382.268C513.637 388.729 494.685 391.49 494.389 391.54H494.191ZM546.508 303.612C546.508 303.662 546.508 303.711 546.508 303.76C546.508 303.81 546.508 303.908 546.458 303.957C546.409 304.401 546.31 304.944 546.211 305.683C546.211 305.881 546.162 306.078 546.162 306.275C546.063 307.064 545.965 308.001 545.817 309.037H545.866C546.063 309.086 546.211 309.234 546.261 309.431C546.557 306.472 546.853 304.451 546.952 303.563L583.524 305.881L546.508 303.612Z" fill="#252B31"/>
<path d="M537.426 323.535C533.527 325.902 528.937 326.79 524.644 326.79C521.435 326.79 518.425 326.297 516.056 325.606C505.444 322.5 503.372 314.412 502.977 310.27C501.743 312.834 499.176 316.927 494.34 319.59C488.911 322.549 482.149 322.845 474.252 320.428C471.686 319.639 469.465 318.456 467.688 316.779C468.478 320.428 469.86 329.552 467.589 340.943C481.359 347.453 494.438 354.8 506.629 362.937C526.519 349.524 541.128 347.453 543.941 347.157C543.349 335.371 544.04 323.387 544.78 314.905C543.201 318.604 540.733 321.513 537.426 323.535Z" fill="#EAEAEA"/>
<path d="M584.165 305.042L583.672 304.993L560.574 303.514L547.149 302.675L547.791 296.412V296.264C547.84 296.018 547.643 295.771 547.347 295.722C547.1 295.673 546.853 295.87 546.804 296.166V296.215L546.113 302.922L546.063 303.563L546.557 303.612L583.623 305.979H584.067H584.116H584.165C584.215 305.979 584.314 305.979 584.363 305.93C584.412 305.93 584.462 305.881 584.511 305.831C584.56 305.782 584.61 305.733 584.61 305.683C584.61 305.634 584.659 305.585 584.659 305.535V305.486V305.535C584.61 305.289 584.412 305.042 584.165 305.042Z" fill="#252B31"/>
<path d="M541.326 234.868C540.98 235.065 540.585 235.312 540.19 235.509C537.032 236.989 533.873 238.172 530.27 237.926C528.197 237.778 526.42 237.285 524.94 236.348L503.52 267.761C503.421 267.909 503.273 267.958 503.125 267.958H503.026C502.829 267.909 502.681 267.81 502.631 267.613L493.106 232.994C490.885 233.044 479.188 233.537 467.244 239.652C455.152 245.816 440.444 259.18 438.52 287.733L461.519 294.538C462.111 288.67 463.542 284.084 463.69 283.739C463.789 283.492 464.036 283.344 464.332 283.443C464.579 283.541 464.727 283.788 464.628 284.084C464.579 284.232 459.249 300.999 464.826 311.7C466.849 315.546 470.057 318.209 474.45 319.541C482.1 321.859 488.615 321.612 493.797 318.801C500.756 315.004 502.878 307.804 502.928 307.755C502.977 307.508 503.224 307.36 503.47 307.409C503.717 307.459 503.915 307.705 503.865 307.952C503.816 308.494 502.681 320.774 516.253 324.768C521.682 326.346 530.369 326.79 536.884 322.796C541.276 320.133 544.04 315.793 545.225 310.023C545.669 305.831 546.064 303.218 546.064 303.168V303.021L546.755 296.314L547.692 296.511L547.051 302.774L560.475 303.612L583.573 305.092C583.869 295.377 583.228 272.199 572.32 255.383C565.559 244.731 549.913 237.926 541.326 234.868Z" fill="#EAEAEA"/>
<path d="M574.485 294.23C576.623 293.966 578.142 292.022 577.878 289.886C577.614 287.751 575.668 286.233 573.531 286.497C571.394 286.76 569.875 288.705 570.138 290.84C570.402 292.976 572.348 294.493 574.485 294.23Z" fill="#252B31"/>
<path d="M478.99 340.795C481.144 340.795 482.889 339.051 482.889 336.899C482.889 334.748 481.144 333.004 478.99 333.004C476.837 333.004 475.091 334.748 475.091 336.899C475.091 339.051 476.837 340.795 478.99 340.795Z" fill="#252B31"/>
<path d="M536.587 245.816C534.416 245.816 532.688 247.591 532.688 249.712C532.688 251.882 534.465 253.608 536.587 253.608C538.759 253.608 540.486 251.832 540.486 249.712C540.486 247.542 538.759 245.816 536.587 245.816Z" fill="#252B31"/>
<path d="M451.549 276.835C453.702 276.835 455.448 275.09 455.448 272.939C455.448 270.787 453.702 269.043 451.549 269.043C449.396 269.043 447.65 270.787 447.65 272.939C447.65 275.09 449.396 276.835 451.549 276.835Z" fill="#252B31"/>
<path d="M525.462 294.833C525.788 292.982 524.55 291.221 522.697 290.898C520.844 290.576 519.078 291.815 518.752 293.666C518.427 295.517 519.665 297.279 521.518 297.601C523.371 297.924 525.137 296.684 525.462 294.833Z" fill="#252B31"/>
<path d="M502.348 333.595C504.205 333.294 505.466 331.546 505.164 329.691C504.863 327.836 503.114 326.577 501.257 326.878C499.401 327.179 498.14 328.927 498.441 330.782C498.742 332.637 500.492 333.896 502.348 333.595Z" fill="#252B31"/>
<path d="M509.195 356.083C511.076 356.083 512.601 354.559 512.601 352.68C512.601 350.801 511.076 349.277 509.195 349.277C507.315 349.277 505.79 350.801 505.79 352.68C505.79 354.559 507.315 356.083 509.195 356.083Z" fill="#252B31"/>
<path d="M519.659 262.435C517.783 262.435 516.253 263.964 516.253 265.838C516.253 267.711 517.783 269.24 519.659 269.24C521.534 269.24 523.064 267.711 523.064 265.838C523.114 263.964 521.584 262.435 519.659 262.435Z" fill="#252B31"/>
<path d="M476.276 240.885C474.4 240.885 472.87 242.413 472.87 244.287C472.87 246.161 474.4 247.69 476.276 247.69C478.151 247.69 479.681 246.161 479.681 244.287C479.731 242.463 478.201 240.885 476.276 240.885Z" fill="#252B31"/>
<path d="M472.87 303.119C470.995 303.119 469.465 304.648 469.465 306.522C469.465 308.396 470.995 309.924 472.87 309.924C474.746 309.924 476.276 308.396 476.276 306.522C476.276 304.648 474.746 303.119 472.87 303.119Z" fill="#252B31"/>
<path d="M549.469 276.341C551.35 276.341 552.875 274.818 552.875 272.939C552.875 271.06 551.35 269.536 549.469 269.536C547.588 269.536 546.063 271.06 546.063 272.939C546.063 274.818 547.588 276.341 549.469 276.341Z" fill="#252B31"/>
<path d="M533.631 317.116C535.492 316.843 536.779 315.114 536.505 313.255C536.232 311.395 534.502 310.109 532.641 310.383C530.78 310.656 529.494 312.384 529.767 314.244C530.04 316.103 531.77 317.389 533.631 317.116Z" fill="#252B31"/>
<path d="M529.45 343.936C531.326 343.807 532.742 342.182 532.613 340.308C532.483 338.433 530.858 337.018 528.981 337.147C527.105 337.276 525.689 338.9 525.818 340.775C525.948 342.65 527.574 344.065 529.45 343.936Z" fill="#252B31"/>
<path d="M551.371 383.484C551.556 381.614 550.188 379.95 548.316 379.767C546.444 379.584 544.777 380.952 544.593 382.823C544.408 384.693 545.776 386.357 547.648 386.54C549.52 386.722 551.187 385.354 551.371 383.484Z" fill="white"/>
<path d="M496.462 287.388C494.587 287.388 493.057 288.917 493.057 290.791C493.057 292.664 494.587 294.193 496.462 294.193C498.338 294.193 499.868 292.664 499.868 290.791C499.917 288.917 498.387 287.388 496.462 287.388Z" fill="#252B31"/>
<path d="M484.863 262.435C482.988 262.435 481.458 263.964 481.458 265.838C481.458 267.711 482.988 269.24 484.863 269.24C486.739 269.24 488.269 267.711 488.269 265.838C488.318 263.964 486.739 262.435 484.863 262.435Z" fill="#252B31"/>
<path d="M547.396 295.229C547.1 295.18 546.903 295.426 546.903 295.673L546.557 303.612C546.557 303.859 546.755 304.105 547.001 304.105C547.248 304.105 547.495 303.908 547.495 303.662L547.84 295.722C547.84 295.475 547.643 295.229 547.396 295.229Z" fill="#252B31"/>
<path d="M468.576 277.92L464.628 282.752L464.135 277.377C464.085 277.13 463.888 276.933 463.592 276.933C463.345 276.983 463.147 277.18 463.147 277.476L463.74 284.034C463.74 284.232 463.888 284.38 464.085 284.478C464.135 284.478 464.184 284.478 464.233 284.478C464.381 284.478 464.529 284.429 464.628 284.281L469.366 278.511C469.514 278.314 469.514 278.018 469.317 277.821C469.07 277.673 468.725 277.722 468.576 277.92Z" fill="#252B31"/>
<path d="M550.012 289.558C549.765 289.459 549.469 289.558 549.37 289.804L547.297 294.785L544.928 289.015C544.83 288.769 544.534 288.621 544.287 288.769C544.04 288.867 543.892 289.163 544.04 289.41L546.853 296.314C546.903 296.462 547.001 296.56 547.149 296.61C547.199 296.61 547.248 296.61 547.297 296.61C547.495 296.61 547.692 296.511 547.742 296.314L550.259 290.248C550.407 289.952 550.259 289.656 550.012 289.558Z" fill="#252B31"/>
<path d="M546.952 376.647L533.182 383.058L548.038 396.767C547.643 385.178 547.199 376.597 546.952 376.647Z" fill="#252B31"/>
<path d="M533.133 383.008L550.456 399.183C549.222 386.312 547.989 382.121 547.841 376.203L533.133 383.008Z" fill="#EAEAEA"/>
<path d="M542.411 388.63C544.292 388.63 545.817 387.107 545.817 385.227C545.817 383.348 544.292 381.825 542.411 381.825C540.531 381.825 539.006 383.348 539.006 385.227C539.006 387.107 540.531 388.63 542.411 388.63Z" fill="#252B31"/>
<path d="M136.418 146.497C137.554 148.815 137.998 151.33 137.652 153.993C136.27 165.335 121.809 176.332 117.466 179.39C115.541 180.721 113.271 182.398 111.099 184.321C110.359 184.962 109.619 185.653 108.928 186.343L108.878 186.392C105.325 189.992 103.252 193.641 102.462 197.537C101.327 203.11 102.956 208.584 104.535 213.86C105.818 218.2 107.151 222.688 107.052 227.274C106.806 236.742 101.673 247.295 93.3317 255.482C89.2353 259.476 84.6453 262.879 79.3149 265.838C80.6969 267.317 85.7804 272.1 94.763 274.615C104.585 277.328 114.357 270.868 118.601 258.835C117.96 256.862 119.292 254.347 120.329 252.325C120.625 251.734 120.921 251.191 121.118 250.698C122.599 247.246 124.228 243.548 126.35 240.194L126.696 239.652C122.648 238.419 119.539 236.397 119.342 236.298C119.095 236.15 119.095 235.805 119.243 235.559C119.391 235.361 119.835 235.46 120.082 235.608C120.131 235.608 122.846 238.024 126.942 239.208C126.992 239.159 126.992 239.109 127.041 239.06L127.238 238.764L127.535 238.863C135.135 240.687 140.959 240.046 145.796 236.791C147.918 235.361 149.695 233.339 150.929 230.874C151.521 229.74 152.113 228.655 152.706 227.57L153.495 226.14L153.791 226.189C164.847 196.896 157.888 175.445 149.991 162.475C145.598 155.522 140.466 150.146 136.418 146.497Z" fill="white"/>
<path d="M132.521 142.305C126.845 135.796 118.159 134.563 109.127 135.993C87.9534 139.346 75.1705 153.598 63.6708 171.253C49.4072 193.05 46.3472 220.863 53.9972 245.569C55.6753 250.945 57.9456 256.517 58.0443 262.188C58.0937 266.577 49.5553 270.276 49.1605 274.418C49.0124 275.898 49.7527 276.489 51.184 276.095C53.0101 275.602 54.8363 275.059 56.6131 274.517C64.2137 272.248 71.6169 269.585 78.4772 265.838C83.6595 263.027 88.4963 259.575 92.9382 255.235C100.193 248.134 106.264 237.728 106.56 227.323C106.807 217.164 99.8972 207.745 101.97 197.488C102.859 193.05 105.376 189.302 108.584 186.047C111.2 183.433 114.21 181.116 117.221 178.995C126.549 172.436 144.86 156.212 134.001 143.735C133.508 143.292 133.014 142.798 132.521 142.305Z" fill="white"/>
<path d="M58.3393 273.481C59.4745 273.136 60.6097 272.791 61.6955 272.396C60.6097 272.742 59.4745 273.087 58.3393 273.481ZM136.419 146.497C135.876 145.461 135.185 144.426 134.395 143.489C134.395 143.489 134.395 143.44 134.346 143.44C133.902 142.946 133.408 142.453 132.915 141.96C127.782 136.042 119.49 133.823 109.027 135.5C86.7677 139.051 73.8368 154.634 63.2255 170.957C49.3074 192.31 45.7045 220.271 53.5519 245.717C53.8974 246.802 54.2429 247.887 54.5884 248.972C56.0197 253.262 57.451 257.701 57.5497 262.188C57.599 264.259 55.3287 266.331 53.1571 268.303C50.9361 270.325 48.8632 272.199 48.6658 274.369C48.5671 275.257 48.7645 275.898 49.2581 276.292C49.4555 276.44 49.7022 276.588 49.949 276.637C50.0971 276.637 50.1958 276.687 50.3932 276.687C50.6893 276.687 50.9855 276.637 51.331 276.539C53.1571 276.046 54.9832 275.503 56.76 274.961H56.8093C57.3522 274.813 57.8952 274.615 58.4381 274.468C59.4745 274.172 60.511 273.826 61.4981 273.481C61.5474 273.481 61.5968 273.432 61.5968 273.432C63.0774 272.939 64.5087 272.446 65.8906 271.952C66.8284 271.607 67.7661 271.262 68.6545 270.917C69.0987 270.769 69.5429 270.572 69.9871 270.374C70.4313 270.227 70.8261 270.029 71.2703 269.832C72.5535 269.29 73.7874 268.747 74.9719 268.155C75.3174 268.007 75.7123 267.81 76.0577 267.662C76.8474 267.268 77.6371 266.873 78.4268 266.429C78.5255 266.38 78.6242 266.331 78.6735 266.281C78.6735 266.281 78.6735 266.281 78.7229 266.232C78.9203 266.133 79.0684 266.035 79.2658 265.936C84.5961 262.977 89.1861 259.575 93.2826 255.58C101.624 247.394 106.806 236.841 107.003 227.372C107.102 222.786 105.769 218.299 104.486 213.959C102.907 208.682 101.278 203.208 102.413 197.636C103.203 193.74 105.276 190.14 108.829 186.491L108.879 186.442C109.57 185.751 110.31 185.061 111.05 184.42C113.222 182.496 115.542 180.82 117.417 179.488C121.81 176.381 136.271 165.434 137.603 154.091C137.998 151.33 137.554 148.815 136.419 146.497ZM136.715 153.894C136.073 159.368 132.174 164.793 127.93 169.231C123.685 173.669 119.046 177.121 116.924 178.65C114.357 180.475 111.1 182.891 108.286 185.702L108.237 185.751C108.138 185.85 108.04 185.948 107.99 185.998C104.437 189.696 102.315 193.444 101.475 197.439C100.291 203.258 101.969 208.88 103.598 214.255C104.881 218.496 106.214 222.885 106.065 227.372C105.819 236.594 100.785 246.901 92.5916 254.939C88.4952 258.934 83.9545 262.287 78.5748 265.246L78.2294 265.443C76.7487 266.232 75.2187 267.021 73.59 267.761C72.899 268.106 72.2081 268.402 71.4677 268.698C71.221 268.796 70.9742 268.895 70.6781 269.043C69.9377 269.339 69.1974 269.635 68.4571 269.98C66.6803 270.67 64.7555 271.41 62.7813 272.1C62.4358 272.199 62.0903 272.347 61.6955 272.446C60.6097 272.791 59.4745 273.136 58.3393 273.531C58.1419 273.58 57.9445 273.678 57.7471 273.728C57.3522 273.876 56.9081 273.974 56.4639 274.122C56.4639 274.122 56.4639 274.122 56.4145 274.122C54.6377 274.665 52.8116 275.158 51.0348 275.651C50.4919 275.799 50.0477 275.799 49.8503 275.602C49.6529 275.454 49.5542 275.059 49.6529 274.517C49.801 272.742 51.8739 270.917 53.8481 269.092C56.1677 266.972 58.5861 264.753 58.5861 262.238C58.5368 257.602 57.0068 253.114 55.5755 248.725C55.23 247.641 54.8845 246.556 54.539 245.471C46.6916 220.222 50.2945 192.606 64.0152 171.499C74.5277 155.374 87.2613 139.938 109.175 136.437C111.445 136.092 113.567 135.894 115.591 135.894C121.217 135.894 125.857 137.275 129.46 140.086C130.447 140.826 131.335 141.664 132.174 142.651C132.717 143.144 133.161 143.637 133.605 144.081C133.605 144.081 133.605 144.081 133.655 144.13C136.123 147.04 137.159 150.294 136.715 153.894ZM58.3393 273.481C59.4745 273.136 60.6097 272.791 61.6955 272.396C60.6097 272.742 59.4745 273.087 58.3393 273.481Z" fill="#252B31"/>
<path d="M172.054 258.835C167.76 254.939 163.022 251.29 159.863 246.408C156.704 241.526 154.829 235.016 154.483 229.246C154.434 228.507 154.187 227.767 154.039 226.978V226.929C153.94 226.929 153.842 226.879 153.694 226.879C152.904 228.359 152.065 229.789 151.324 231.317C150.091 233.783 148.264 235.904 146.044 237.432C140.861 240.884 134.741 241.328 127.387 239.553C127.289 239.701 127.19 239.849 127.091 239.997C126.943 240.194 126.795 240.441 126.696 240.638C124.623 243.893 122.995 247.493 121.465 251.043C120.576 253.065 118.109 256.616 118.997 258.983C119.096 259.229 119.194 259.427 119.343 259.624C120.132 260.709 121.415 261.35 122.6 261.942C127.387 264.309 132.273 267.07 135.136 271.558C140.22 279.448 137.752 289.36 138.196 298.089C139.035 313.376 152.608 323.387 167.612 319.639C173.633 318.111 179.161 314.807 183.257 310.27C186.465 306.719 188.785 302.429 189.871 297.645C193.424 282.259 182.764 268.5 172.054 258.835Z" fill="white"/>
<path d="M153.051 228.309C153.1 228.211 153.1 228.161 153.15 228.063C153.199 227.964 153.199 227.915 153.249 227.816C153.249 227.816 153.249 227.816 153.249 227.866C153.1 228.112 152.952 228.408 152.804 228.704C152.656 229 152.508 229.296 152.311 229.542C152.015 230.134 151.669 230.726 151.373 231.318C150.139 233.783 148.313 235.904 146.092 237.432C142.637 239.75 138.788 240.687 134.395 240.539C134.198 240.539 134.049 240.539 133.852 240.539C133.359 240.539 132.816 240.49 132.322 240.441C132.026 240.391 131.73 240.391 131.434 240.342C130.94 240.293 130.447 240.194 129.953 240.145C129.756 240.095 129.509 240.046 129.311 240.046C129.163 239.997 128.966 239.997 128.818 239.948C129.114 239.997 129.361 240.095 129.657 240.145C129.756 240.145 129.854 240.194 129.904 240.293C129.904 240.293 129.953 240.293 129.953 240.342C130.052 240.441 130.101 240.589 130.052 240.737C136.616 241.821 141.946 240.934 146.388 238.024C148.659 236.496 150.534 234.326 151.867 231.761C152.311 230.874 152.804 229.986 153.298 229.098C153.051 228.753 152.952 228.507 153.051 228.309ZM128.423 239.75C128.571 239.8 128.67 239.8 128.818 239.849C128.423 239.75 128.028 239.701 127.683 239.602C127.929 239.652 128.176 239.701 128.423 239.75ZM153.051 228.309C153.1 228.211 153.1 228.161 153.15 228.063C153.15 228.013 153.199 227.915 153.199 227.866C153.051 228.112 152.903 228.408 152.755 228.704C152.607 229 152.459 229.296 152.261 229.542C151.965 230.134 151.62 230.726 151.324 231.318C150.09 233.783 148.264 235.904 146.043 237.432C142.588 239.75 138.738 240.687 134.346 240.539C134.198 240.539 134 240.539 133.803 240.539C133.309 240.539 132.766 240.49 132.273 240.441C131.977 240.391 131.68 240.391 131.384 240.342C130.891 240.293 130.397 240.194 129.904 240.145C129.706 240.095 129.459 240.046 129.262 240.046C129.114 239.997 128.917 239.997 128.769 239.948C129.065 239.997 129.311 240.095 129.608 240.145C129.706 240.145 129.805 240.194 129.854 240.293C129.854 240.293 129.904 240.293 129.904 240.342C130.002 240.441 130.052 240.589 130.002 240.737C136.567 241.821 141.897 240.934 146.339 238.024C148.609 236.496 150.485 234.326 151.817 231.761C152.261 230.874 152.755 229.986 153.249 229.098C153.051 228.753 152.952 228.507 153.051 228.309ZM128.423 239.75C128.571 239.8 128.67 239.8 128.818 239.849C128.423 239.75 128.028 239.701 127.683 239.602C127.929 239.652 128.176 239.701 128.423 239.75ZM172.398 258.44C171.559 257.701 170.77 256.961 169.93 256.221C166.426 253.164 162.823 250.008 160.306 246.062C157.345 241.476 155.371 235.164 154.976 229.148C154.976 228.556 154.828 228.063 154.729 227.52C154.68 227.323 154.63 227.126 154.581 226.978V226.929L154.532 225.844L153.791 226.337L153.495 226.287L152.706 227.718C152.113 228.802 151.472 229.937 150.929 231.022C149.695 233.487 147.918 235.509 145.796 236.939C140.959 240.194 135.135 240.835 127.535 239.011L127.239 238.912L127.041 239.208C127.041 239.257 126.992 239.306 126.942 239.356C126.893 239.454 126.794 239.553 126.745 239.652L126.399 240.194L126.35 240.293C124.228 243.646 122.599 247.295 121.119 250.797C120.921 251.24 120.625 251.832 120.329 252.424C119.292 254.446 117.96 256.961 118.601 258.933C118.601 258.933 118.601 258.983 118.601 259.032L118.651 259.131C118.749 259.377 118.848 259.624 119.046 259.87C119.095 259.92 119.144 260.018 119.194 260.068C119.243 260.117 119.292 260.216 119.391 260.265C119.49 260.413 119.589 260.512 119.737 260.61L119.786 260.659C119.885 260.758 120.033 260.857 120.131 260.955C120.23 261.005 120.329 261.103 120.428 261.153C120.526 261.202 120.625 261.301 120.674 261.35C120.921 261.498 121.217 261.646 121.464 261.794C121.563 261.843 121.661 261.892 121.809 261.942C122.007 262.04 122.204 262.139 122.451 262.287C127.239 264.605 132.026 267.366 134.79 271.706C138.343 277.229 138.097 283.936 137.85 290.396C137.751 292.911 137.652 295.525 137.8 298.04C138.195 305.486 141.7 312.144 147.375 316.286C147.968 316.73 148.609 317.124 149.251 317.519C149.596 317.716 149.942 317.913 150.287 318.111C150.485 318.209 150.682 318.308 150.83 318.406C151.274 318.653 151.768 318.85 152.261 319.048C152.854 319.245 153.397 319.491 153.989 319.689C154.285 319.787 154.581 319.886 154.877 319.935C155.223 320.034 155.618 320.132 156.012 320.182C157.789 320.576 159.615 320.774 161.441 320.774C162.132 320.774 162.823 320.724 163.514 320.675C164.699 320.576 165.834 320.428 167.019 320.132C167.265 320.083 167.561 320.034 167.808 319.935C168.993 319.639 170.177 319.294 171.312 318.85C171.609 318.752 171.954 318.604 172.25 318.456C172.596 318.308 172.99 318.16 173.336 317.963C173.681 317.815 174.027 317.617 174.372 317.47C174.718 317.322 175.063 317.124 175.409 316.927C175.754 316.73 176.1 316.533 176.445 316.335C176.791 316.138 177.087 315.941 177.432 315.744C177.432 315.744 177.432 315.744 177.482 315.694C177.778 315.497 178.025 315.349 178.321 315.152C179.209 314.56 180.048 313.919 180.838 313.179C181.035 312.982 181.233 312.834 181.48 312.637C181.726 312.39 182.022 312.144 182.269 311.897C182.516 311.65 182.812 311.404 183.059 311.108C183.256 310.911 183.454 310.664 183.651 310.467L183.799 310.319L183.849 310.27C185.477 308.445 186.859 306.423 187.945 304.352C189.031 302.231 189.87 299.963 190.413 297.645C193.275 285.07 187.205 271.854 172.398 258.44ZM182.911 309.875C181.924 311.009 180.789 312.045 179.653 312.982C179.456 313.13 179.259 313.278 179.061 313.426C178.913 313.524 178.814 313.623 178.666 313.722C178.37 313.968 178.074 314.165 177.778 314.412C177.482 314.609 177.186 314.807 176.84 315.053C176.199 315.448 175.557 315.842 174.915 316.187C174.274 316.533 173.632 316.878 172.941 317.174C172.645 317.272 172.398 317.42 172.102 317.568C171.707 317.765 171.263 317.913 170.819 318.061C170.473 318.209 170.128 318.308 169.733 318.456C169.585 318.505 169.388 318.554 169.24 318.604C168.697 318.801 168.154 318.949 167.561 319.097C160.553 320.872 153.397 319.541 147.918 315.546C142.489 311.552 139.133 305.141 138.738 297.99C138.59 295.574 138.689 292.96 138.788 290.445C139.034 283.837 139.281 276.983 135.579 271.213C132.668 266.676 127.732 263.816 122.797 261.399C121.661 260.857 120.428 260.265 119.737 259.279C119.687 259.18 119.638 259.131 119.589 259.081C119.539 259.032 119.49 258.933 119.49 258.884L119.44 258.786C118.848 257.158 120.082 254.791 121.069 252.917C121.365 252.325 121.661 251.734 121.908 251.24C123.389 247.788 124.968 244.139 127.09 240.884L127.288 240.539L127.485 240.243C127.485 240.194 127.535 240.145 127.535 240.145C128.374 240.342 129.163 240.49 129.953 240.638C136.517 241.723 141.848 240.835 146.289 237.926C148.56 236.397 150.435 234.227 151.768 231.663C152.212 230.775 152.706 229.887 153.199 229C153.298 228.802 153.446 228.556 153.545 228.359L153.742 228.013C153.791 228.309 153.89 228.556 153.89 228.852C153.939 229.049 153.94 229.246 153.94 229.444C154.334 235.608 156.358 242.117 159.418 246.802C162.034 250.846 165.686 254.051 169.19 257.158C170.029 257.898 170.868 258.638 171.658 259.328C183.898 270.374 190.018 281.224 190.018 291.727C190.018 293.7 189.82 295.673 189.327 297.645C188.389 301.985 186.168 306.275 182.911 309.875ZM153.051 228.309C153.1 228.211 153.1 228.161 153.15 228.063C153.15 228.013 153.199 227.915 153.199 227.866C153.051 228.112 152.903 228.408 152.755 228.704C152.607 229 152.459 229.296 152.261 229.542C151.965 230.134 151.62 230.726 151.324 231.318C150.09 233.783 148.264 235.904 146.043 237.432C142.588 239.75 138.738 240.687 134.346 240.539C134.148 240.539 134 240.539 133.803 240.539C133.309 240.539 132.766 240.49 132.273 240.441C131.977 240.391 131.68 240.391 131.384 240.342C130.891 240.293 130.397 240.194 129.904 240.145C129.706 240.095 129.459 240.046 129.262 240.046C129.114 239.997 128.917 239.997 128.769 239.948C129.065 239.997 129.311 240.095 129.608 240.145C129.706 240.145 129.805 240.194 129.854 240.293C129.854 240.293 129.904 240.293 129.904 240.342C130.002 240.441 130.052 240.589 130.002 240.737C136.567 241.821 141.897 240.934 146.339 238.024C148.609 236.496 150.485 234.326 151.817 231.761C152.261 230.627 152.952 228.507 153.051 228.309ZM128.423 239.75C128.571 239.8 128.67 239.8 128.818 239.849C128.423 239.75 128.028 239.701 127.683 239.602C127.929 239.652 128.176 239.701 128.423 239.75Z" fill="#252B31"/>
<path d="M46.5928 278.955H46.6424L46.5928 277.969V278.955Z" fill="#252B31"/>
<path d="M78.2466 265.379L56.3735 274.077L56.7386 274.994L78.6117 266.295L78.2466 265.379Z" fill="#252B31"/>
<path d="M160.701 340.992C160.652 340.844 160.652 340.647 160.602 340.499C159.171 331.228 156.753 322.845 155.914 320.28C155.864 320.083 155.766 319.886 155.766 319.738C155.716 319.541 155.667 319.442 155.667 319.442L155.223 319.59L154.729 319.738C154.729 319.738 154.779 319.837 154.828 319.985C155.321 321.513 158.135 330.686 159.665 340.943C159.714 341.091 159.714 341.288 159.714 341.436C159.763 341.584 159.763 341.781 159.813 341.929C159.813 341.979 159.813 342.028 159.813 342.077L160.8 341.929C160.8 341.781 160.751 341.634 160.751 341.486C160.751 341.288 160.751 341.14 160.701 340.992Z" fill="#252B31"/>
<path d="M163.465 320.774C164.65 320.675 165.785 320.527 166.969 320.231C165.834 320.478 164.65 320.675 163.465 320.774ZM157.444 320.527C157.148 320.478 156.901 320.428 156.605 320.379C156.901 320.428 157.197 320.478 157.444 320.527ZM154.828 319.985C155.173 320.083 155.568 320.182 155.963 320.28C156.21 320.33 156.407 320.379 156.654 320.428C156.407 320.379 156.21 320.33 155.963 320.28C155.568 320.182 155.223 320.083 154.828 319.985ZM161.935 320.823C162.478 320.823 162.971 320.774 163.514 320.774C162.971 320.823 162.429 320.823 161.935 320.823ZM161.935 320.823C161.787 320.823 161.59 320.823 161.441 320.823C161.59 320.823 161.738 320.823 161.935 320.823ZM161.392 320.823C160.899 320.823 160.405 320.823 159.911 320.774C160.405 320.823 160.899 320.823 161.392 320.823ZM159.911 320.774C159.665 320.774 159.418 320.724 159.171 320.724C159.418 320.774 159.665 320.774 159.911 320.774ZM158.283 320.626C158.036 320.576 157.74 320.576 157.493 320.527C157.74 320.576 157.987 320.626 158.283 320.626ZM159.122 320.724C158.826 320.675 158.53 320.675 158.233 320.626C158.53 320.675 158.826 320.724 159.122 320.724ZM54.7363 281.569C54.5882 281.47 54.4895 281.372 54.3415 281.273C54.2921 281.224 54.2427 281.174 54.144 281.174C54.6376 281.519 55.1311 281.914 55.6247 282.358C55.3286 282.013 55.0324 281.766 54.7363 281.569ZM183.849 310.319C183.799 310.171 183.799 310.072 183.799 310.072L183.701 309.777L183.552 309.283L182.96 309.924C181.973 311.059 180.838 312.094 179.703 313.031C179.505 313.179 179.308 313.327 179.111 313.475C178.962 313.574 178.864 313.672 178.716 313.771C178.42 314.018 178.123 314.215 177.827 314.461C177.531 314.659 177.235 314.905 176.89 315.102C176.248 315.497 175.606 315.892 174.965 316.237C174.323 316.582 173.682 316.927 172.991 317.223C172.694 317.322 172.448 317.47 172.151 317.617C171.757 317.815 171.312 317.963 170.868 318.111C170.523 318.259 170.177 318.357 169.782 318.505C169.634 318.554 169.437 318.604 169.289 318.653C168.746 318.85 168.203 318.998 167.611 319.146C160.602 320.922 153.446 319.59 147.968 315.596C142.539 311.601 139.182 305.19 138.788 298.04C138.64 295.623 138.738 293.01 138.837 290.495C139.084 283.887 139.331 277.032 135.629 271.262C132.717 266.725 127.781 263.865 122.846 261.449C121.711 260.906 120.477 260.314 119.786 259.328C119.737 259.229 119.687 259.18 119.638 259.131C119.589 259.081 119.539 258.983 119.539 258.934C119.539 258.934 119.539 258.884 119.49 258.884L119.046 257.553L118.848 258.095L118.552 258.884C118.552 258.934 118.503 258.983 118.503 259.032C114.258 271.065 104.486 277.574 94.6644 274.813C85.6818 272.298 80.5982 267.514 79.2163 266.035C79.0682 265.887 78.9695 265.739 78.8708 265.69C78.8215 265.64 78.8215 265.64 78.8215 265.64L78.5747 265.344L78.2292 265.542C76.7486 266.331 75.2186 267.12 73.5898 267.859C72.8989 268.205 72.2079 268.5 71.4676 268.796C71.2208 268.895 70.974 268.994 70.6779 269.142C69.9376 269.437 69.1973 269.783 68.4569 270.079C66.6802 270.769 64.7553 271.509 62.7811 272.199C62.4357 272.298 62.0902 272.446 61.6953 272.544C60.6095 272.889 59.4744 273.284 58.3392 273.629C58.1418 273.678 57.9444 273.777 57.7469 273.826C57.3521 273.974 56.9079 274.073 56.4637 274.221C56.4637 274.221 56.4637 274.221 56.4144 274.221L51.8737 276.046H51.8244L49.9489 276.785L46.5927 278.117H46.5434L44.125 279.054H46.6915C46.9876 279.054 53.6505 279.202 62.2876 290.938C70.2337 301.837 81.3386 325.113 89.0873 374.378L89.186 374.921L89.7289 374.773C89.8276 374.723 98.0205 372.159 110.359 371.074C110.606 371.074 110.902 371.025 111.149 371.025C111.198 371.025 111.248 371.025 111.297 371.025L111.396 370.926C111.593 370.778 111.84 370.63 112.037 370.482C112.284 370.285 112.531 370.137 112.778 369.94C127.239 359.288 143.081 349.918 159.862 341.929C160.06 341.831 160.257 341.732 160.454 341.634C160.553 341.584 160.701 341.535 160.8 341.486C168.647 337.787 176.84 334.286 185.181 331.13C185.379 331.031 185.625 330.982 185.872 330.883L186.168 330.784V330.489V330.291C186.267 319.886 184.243 311.848 183.849 310.319ZM185.132 330.094C176.742 333.25 168.499 336.751 160.602 340.499C160.405 340.598 160.208 340.697 160.01 340.795C159.911 340.845 159.813 340.894 159.665 340.943C142.242 349.228 125.807 358.992 110.803 369.989C103.795 370.581 98.0699 371.666 94.3189 372.504C94.0228 372.554 93.7266 372.652 93.4305 372.702C91.7031 373.096 90.5186 373.441 89.8276 373.638C89.2353 369.94 88.6431 366.389 88.0015 363.036C87.9028 362.346 87.7547 361.655 87.656 361.014C87.6066 360.669 87.5573 360.373 87.4586 360.028C87.3105 359.288 87.1624 358.548 87.0637 357.809C86.7182 355.984 86.3728 354.209 85.9779 352.483C85.8792 351.94 85.7805 351.398 85.6324 350.855C85.0895 348.192 84.4973 345.628 83.905 343.162C83.8063 342.669 83.6582 342.176 83.5595 341.683C82.9673 339.217 82.375 336.899 81.7828 334.631C81.684 334.187 81.536 333.743 81.4373 333.299C81.0424 331.82 80.6476 330.439 80.2528 329.058C79.9073 327.924 79.5618 326.79 79.2657 325.705C78.6734 323.782 78.0811 321.957 77.4889 320.182C77.2421 319.393 76.9953 318.653 76.6992 317.913C76.6499 317.765 76.6005 317.667 76.6005 317.519C76.3044 316.73 76.0576 315.99 75.7615 315.25C75.416 314.313 75.0705 313.376 74.725 312.538C74.4782 311.946 74.2808 311.355 74.034 310.763C73.886 310.418 73.7379 310.072 73.5898 309.678C73.4418 309.333 73.2937 308.987 73.1457 308.642C72.9482 308.198 72.8002 307.804 72.6028 307.36C72.2573 306.522 71.9118 305.733 71.5169 304.944C71.3195 304.549 71.1715 304.155 70.974 303.81L70.9247 303.76C70.4805 302.823 70.0363 301.936 69.5921 301.097C69.3453 300.604 69.0986 300.111 68.8518 299.618C68.3582 298.681 67.8647 297.744 67.3218 296.856C67.075 296.412 66.8282 296.018 66.5815 295.574C66.2853 295.081 66.0386 294.637 65.7424 294.193C65.545 293.897 65.3476 293.601 65.1502 293.256C65.0515 293.108 64.9527 292.911 64.854 292.763C64.706 292.566 64.5579 292.319 64.4098 292.122C64.3111 291.974 64.2618 291.875 64.1631 291.728C64.1137 291.629 64.015 291.53 63.9657 291.432C63.8176 291.234 63.6695 291.037 63.5215 290.84C63.4721 290.791 63.4227 290.692 63.3734 290.643C63.2747 290.544 63.2253 290.396 63.1266 290.297C63.0773 290.199 63.0279 290.149 62.9786 290.051C62.8305 289.854 62.7318 289.706 62.5837 289.508C62.485 289.36 62.3369 289.212 62.2382 289.065C62.1395 288.917 61.9915 288.769 61.8927 288.621C61.8927 288.621 61.8434 288.571 61.8434 288.522C61.794 288.423 61.6953 288.374 61.646 288.276C61.646 288.226 61.5966 288.226 61.5473 288.177C61.5473 288.128 61.4979 288.128 61.4486 288.078C61.1031 287.684 60.8069 287.289 60.4615 286.895C60.116 286.5 59.8198 286.155 59.4744 285.81C59.3757 285.662 59.2276 285.563 59.1289 285.465C58.9315 285.267 58.734 285.07 58.5366 284.824C58.3392 284.626 58.1418 284.429 57.9444 284.232C57.7963 284.084 57.5989 283.887 57.4015 283.739C56.9079 283.245 56.365 282.802 55.8715 282.407C55.5753 282.161 55.2298 281.914 54.9337 281.667C54.7857 281.569 54.6869 281.47 54.5389 281.372C54.4895 281.322 54.4402 281.273 54.3415 281.273C54.3415 281.273 54.3415 281.273 54.2921 281.273C54.2427 281.224 54.144 281.174 54.0947 281.125C53.7986 280.928 53.5518 280.73 53.305 280.582C51.8737 279.646 50.5905 279.103 49.6034 278.758C49.5047 278.709 49.3566 278.659 49.2579 278.659C49.0605 278.61 48.8631 278.511 48.6656 278.462L56.9079 275.158H56.9573C57.5002 275.01 58.0431 274.813 58.586 274.665C59.6224 274.369 60.6589 274.024 61.646 273.678C61.6953 273.678 61.7447 273.629 61.7447 273.629C63.2253 273.136 64.6566 272.643 66.0386 272.15C66.9763 271.805 67.914 271.459 68.8024 271.114C69.2466 270.966 69.6908 270.769 70.135 270.572C70.5792 270.424 70.974 270.226 71.4182 270.029C72.7015 269.487 73.9353 268.944 75.1199 268.353C75.4653 268.205 75.8602 268.007 76.2057 267.859C76.9953 267.465 77.785 267.07 78.5747 266.627C79.7592 267.958 84.9415 273.136 94.6644 275.848C104.782 278.659 114.801 272.298 119.391 260.265C119.441 260.314 119.49 260.413 119.589 260.462C119.687 260.61 119.786 260.709 119.934 260.807L119.983 260.857C120.082 260.955 120.23 261.054 120.329 261.153C120.428 261.202 120.526 261.301 120.625 261.35C120.724 261.399 120.822 261.498 120.872 261.547C121.119 261.695 121.415 261.843 121.661 261.991C121.76 262.04 121.859 262.09 122.007 262.139C122.204 262.238 122.402 262.336 122.649 262.484C127.436 264.802 132.223 267.564 134.987 271.903C138.541 277.426 138.294 284.133 138.047 290.593C137.949 293.108 137.85 295.722 137.998 298.237C138.393 305.683 141.897 312.341 147.573 316.483C148.165 316.927 148.807 317.322 149.448 317.716C149.794 317.913 150.139 318.111 150.485 318.308C150.682 318.407 150.88 318.505 151.028 318.604C151.472 318.85 151.965 319.048 152.459 319.245C153.051 319.442 153.594 319.689 154.186 319.886C154.482 319.985 154.779 320.083 155.075 320.133C155.42 320.231 155.815 320.33 156.21 320.428C156.457 320.478 156.654 320.527 156.901 320.576C157.197 320.626 157.444 320.675 157.74 320.724C157.987 320.774 158.283 320.823 158.53 320.823C158.826 320.872 159.122 320.872 159.418 320.922C159.665 320.922 159.911 320.971 160.158 320.971C160.652 321.02 161.145 321.02 161.639 321.02C161.787 321.02 161.984 321.02 162.132 321.02C162.675 321.02 163.169 320.971 163.712 320.971C164.896 320.872 166.031 320.724 167.216 320.428C167.463 320.379 167.759 320.33 168.006 320.231C169.19 319.935 170.375 319.59 171.51 319.146C171.806 319.048 172.152 318.9 172.448 318.752C172.793 318.604 173.188 318.456 173.533 318.259C173.879 318.111 174.224 317.913 174.57 317.765C174.915 317.617 175.261 317.42 175.606 317.223C175.952 317.026 176.297 316.828 176.643 316.631C176.988 316.434 177.284 316.237 177.63 316.039C177.63 316.039 177.63 316.039 177.679 315.99C177.975 315.793 178.222 315.645 178.518 315.448C179.407 314.856 180.246 314.215 181.035 313.475C181.233 313.278 181.43 313.13 181.677 312.933C181.924 312.686 182.22 312.439 182.467 312.193C182.713 311.946 183.01 311.7 183.256 311.404C183.651 313.574 185.231 320.872 185.132 330.094ZM163.465 320.774C164.65 320.675 165.785 320.527 166.969 320.231C165.834 320.478 164.65 320.675 163.465 320.774ZM157.444 320.527C157.148 320.478 156.901 320.428 156.605 320.379C156.901 320.428 157.197 320.478 157.444 320.527ZM154.828 319.985C155.173 320.083 155.568 320.182 155.963 320.28C156.21 320.33 156.407 320.379 156.654 320.428C156.407 320.379 156.21 320.33 155.963 320.28C155.568 320.182 155.223 320.083 154.828 319.985ZM161.935 320.823C162.478 320.823 162.971 320.774 163.514 320.774C162.971 320.823 162.429 320.823 161.935 320.823ZM159.911 320.774C159.665 320.774 159.418 320.724 159.171 320.724C159.418 320.774 159.665 320.774 159.911 320.774ZM158.283 320.626C158.036 320.576 157.74 320.576 157.493 320.527C157.74 320.576 157.987 320.626 158.283 320.626ZM161.392 320.823C160.899 320.823 160.405 320.823 159.911 320.774C160.405 320.823 160.899 320.823 161.392 320.823ZM161.935 320.823C161.787 320.823 161.59 320.823 161.441 320.823C161.59 320.823 161.738 320.823 161.935 320.823ZM159.122 320.724C158.826 320.675 158.53 320.675 158.233 320.626C158.53 320.675 158.826 320.724 159.122 320.724Z" fill="#252B31"/>
<path d="M182.269 311.996C182.022 312.242 181.726 312.538 181.48 312.735C181.282 312.933 181.085 313.13 180.838 313.278C180.048 313.968 179.209 314.609 178.321 315.201C178.025 315.398 177.778 315.596 177.482 315.793C177.482 315.793 177.432 315.793 177.432 315.842C177.087 316.039 176.791 316.237 176.445 316.434C176.1 316.631 175.754 316.828 175.409 317.026C175.063 317.223 174.718 317.42 174.372 317.568C174.027 317.765 173.681 317.913 173.336 318.061C172.99 318.209 172.645 318.407 172.25 318.554C171.954 318.702 171.609 318.801 171.312 318.949C170.177 319.393 168.993 319.738 167.808 320.034C167.561 320.083 167.265 320.182 167.019 320.231C163.268 321.07 159.517 321.02 155.963 320.231C155.568 320.133 155.223 320.034 154.828 319.935C155.321 321.464 158.135 330.637 159.665 340.894C159.763 340.845 159.911 340.795 160.01 340.746C160.208 340.647 160.405 340.549 160.602 340.45C168.499 336.702 176.741 333.25 185.132 330.045C185.23 320.872 183.651 313.574 183.01 311.157C182.812 311.453 182.516 311.7 182.269 311.996Z" fill="white"/>
<path d="M153.939 319.689C153.347 319.491 152.755 319.294 152.212 319.048C151.719 318.85 151.274 318.653 150.781 318.406C150.583 318.308 150.386 318.209 150.238 318.111C149.892 317.913 149.547 317.716 149.201 317.519C148.56 317.124 147.968 316.73 147.326 316.286C141.65 312.094 138.146 305.437 137.751 298.04C137.603 295.574 137.702 292.96 137.8 290.396C138.047 283.936 138.294 277.229 134.74 271.706C131.927 267.366 127.14 264.605 122.402 262.238C122.204 262.139 121.958 262.04 121.76 261.892C121.661 261.843 121.563 261.794 121.415 261.744C121.119 261.596 120.872 261.449 120.625 261.301C120.526 261.251 120.428 261.202 120.329 261.103C120.23 261.054 120.131 260.955 120.033 260.906C119.885 260.807 119.786 260.709 119.638 260.61C119.589 260.61 119.589 260.561 119.589 260.561C119.49 260.462 119.342 260.364 119.243 260.216C119.194 260.166 119.144 260.068 119.046 260.018C114.505 272.051 104.437 278.413 94.3188 275.602C84.5959 272.889 79.4137 267.711 78.2291 266.38C77.4395 266.774 76.6498 267.218 75.8601 267.613C75.5146 267.81 75.1691 267.958 74.7743 268.155C73.5898 268.747 72.3559 269.29 71.0727 269.832C70.6285 270.029 70.2337 270.177 69.7895 270.374C69.3453 270.572 68.9011 270.72 68.4569 270.917C67.5685 271.262 66.6308 271.607 65.693 271.952C64.3111 272.446 62.8798 272.939 61.3991 273.432C61.3498 273.432 61.3498 273.432 61.3004 273.481C60.3133 273.826 59.2769 274.122 58.2404 274.467C57.6975 274.615 57.1546 274.813 56.5624 274.961L48.2708 278.265C48.4682 278.314 48.6656 278.363 48.9124 278.462C49.0111 278.511 49.1591 278.511 49.2578 278.561C50.2943 278.906 51.5282 279.498 52.9595 280.385C53.3543 280.632 53.7491 280.928 54.1933 281.224C55.2298 281.963 56.3649 282.9 57.5495 284.084C57.7469 284.281 57.9443 284.478 58.1417 284.676C58.7833 285.317 59.4249 286.007 60.0666 286.747C60.412 287.141 60.7082 287.536 61.0537 287.93C61.1524 288.029 61.2511 288.177 61.3498 288.325C61.3991 288.374 61.4485 288.423 61.4485 288.473C61.5966 288.621 61.6953 288.769 61.794 288.917C61.9914 289.114 62.1395 289.36 62.2875 289.558C62.3862 289.656 62.4849 289.804 62.5343 289.903C62.5837 289.952 62.633 290.051 62.6824 290.149C62.7811 290.248 62.8798 290.396 62.9291 290.495C62.9785 290.544 63.0279 290.643 63.0772 290.692C63.2253 290.889 63.3733 291.086 63.5214 291.284C63.5708 291.382 63.6695 291.481 63.7188 291.58C63.8175 291.727 63.9162 291.826 63.9656 291.974C64.1137 292.171 64.2617 292.418 64.4098 292.615C64.5085 292.763 64.6072 292.911 64.7059 293.108C64.9033 293.404 65.1007 293.7 65.2982 294.045C65.5943 294.489 65.8904 294.933 66.1372 295.426C66.384 295.87 66.6308 296.264 66.8775 296.708C67.3711 297.596 67.8646 298.484 68.4075 299.47C68.6543 299.963 68.9011 300.456 69.1478 300.949C69.592 301.788 70.0362 302.725 70.4804 303.612C70.4804 303.612 70.4804 303.662 70.5298 303.662C70.7272 304.056 70.8753 304.401 71.0727 304.796C71.4675 305.585 71.813 306.374 72.1585 307.212C72.3559 307.607 72.504 308.05 72.7014 308.494C72.8495 308.84 72.9975 309.185 73.1456 309.53C73.2937 309.875 73.4417 310.22 73.5898 310.615C73.8366 311.207 74.0833 311.798 74.2808 312.39C74.6262 313.278 74.9717 314.215 75.3172 315.152C75.6133 315.891 75.8601 316.631 76.1562 317.42C76.2056 317.519 76.2549 317.667 76.3043 317.815C76.6004 318.554 76.8472 319.294 77.094 320.083C77.6862 321.858 78.2785 323.683 78.8708 325.606C79.2162 326.691 79.5124 327.776 79.8578 328.91C80.2527 330.291 80.6475 331.721 81.0424 333.201C81.1904 333.645 81.2891 334.088 81.3879 334.532C81.9801 336.801 82.5724 339.118 83.1646 341.584C83.2633 342.077 83.4114 342.57 83.5101 343.064C84.1024 345.529 84.6946 348.094 85.2375 350.757C85.3362 351.299 85.4843 351.842 85.583 352.384C85.9779 354.11 86.3233 355.885 86.6688 357.71C86.8169 358.45 86.965 359.189 87.113 359.929C87.1624 360.274 87.2611 360.57 87.3104 360.915C87.4585 361.556 87.5572 362.247 87.7053 362.937C88.3469 366.34 88.9391 369.891 89.5314 373.54C90.173 373.343 91.4069 372.997 93.1343 372.603C93.4304 372.554 93.7266 372.455 94.0227 372.406C97.823 371.567 103.548 370.482 110.507 369.891C125.462 358.943 141.897 349.179 159.319 340.844C157.789 330.587 154.976 321.415 154.482 319.886C154.532 319.886 154.236 319.787 153.939 319.689Z" fill="#EAEAEA"/>
<path d="M185.132 332.214L186.119 332.264C186.119 331.672 186.168 331.031 186.168 330.439H185.181C185.132 331.031 185.132 331.623 185.132 332.214Z" fill="#252B31"/>
<path d="M122.698 191.324C119.49 191.373 116.331 193.099 113.321 196.452L112.975 196.847L113.419 197.143C113.567 197.291 117.17 199.904 121.415 199.904C121.958 199.904 122.501 199.855 123.093 199.756C125.807 199.263 128.127 197.636 129.953 194.825L130.151 194.48L129.904 194.184C129.756 194.085 126.992 191.225 122.698 191.324ZM122.895 198.819C119.194 199.461 115.64 197.439 114.456 196.65C117.121 193.789 119.885 192.31 122.698 192.261C125.807 192.211 128.078 193.937 128.867 194.628C127.239 196.995 125.264 198.425 122.895 198.819Z" fill="#252B31"/>
<path d="M124.721 191.866C122.846 191.768 121.316 193.198 121.217 195.072C121.119 196.946 122.55 198.474 124.425 198.573C126.301 198.672 127.831 197.241 127.929 195.367C127.979 193.543 126.548 191.965 124.721 191.866Z" fill="#252B31"/>
<path d="M145.302 191.915C151.274 185.505 156.407 187.477 158.924 189.252L159.467 188.463C157.148 186.885 151.077 183.976 144.167 191.718L143.822 192.113L144.266 192.409C144.315 192.458 148.017 195.17 152.311 195.17C154.828 195.17 157.542 194.233 159.911 191.373L159.171 190.781C154.038 197.044 147.129 193.148 145.302 191.915Z" fill="#252B31"/>
<path d="M155.815 187.132C153.94 187.033 152.41 188.463 152.311 190.337C152.212 192.211 153.644 193.74 155.519 193.839C157.395 193.937 158.924 192.507 159.023 190.633C159.073 188.809 157.641 187.231 155.815 187.132Z" fill="#252B31"/>
<path d="M189.031 376.35C190.857 376.104 196.928 373.884 198.112 373.539C198.852 373.342 199.494 372.997 199.988 372.652C201.419 371.616 201.814 370.186 199.889 369.446C199 369.101 198.112 368.854 197.125 368.706C191.301 367.671 184.095 369.446 177.975 371.764C170.523 374.525 164.649 377.928 164.649 377.928C144.957 369.791 125.314 369.15 111.001 370.383C97.971 371.517 89.4327 374.18 89.4327 374.18C74.4781 278.807 46.9875 278.412 46.5926 278.412C35.2904 280.385 31.0459 294.242 31.4901 312.34C32.3291 346.86 50.3436 396.717 69.3946 408.207C69.4439 408.207 69.4439 408.256 69.4933 408.256C70.3817 408.799 71.3194 409.243 72.2572 409.637C102.364 421.473 168.993 391.095 168.993 391.095C186.464 397.259 209.908 395.287 220.568 384.635C217.163 377.336 189.031 376.35 189.031 376.35Z" fill="white"/>
<path d="M191.745 376.104C193.226 375.66 194.953 375.069 196.335 374.625C197.224 374.329 197.915 374.082 198.26 373.984C199.001 373.786 199.692 373.441 200.284 372.997C201.271 372.307 201.764 371.419 201.666 370.68C201.616 370.186 201.271 369.545 200.086 369.102C199.198 368.756 198.211 368.51 197.273 368.362C192.239 367.474 185.724 368.51 177.877 371.419C171.214 373.885 165.686 376.943 164.65 377.534C144.463 369.249 124.376 368.855 111.001 370.039C99.7479 371.025 91.7525 373.145 89.8276 373.737C74.9225 279.399 47.9254 278.067 46.5434 278.067C36.0802 279.892 30.6018 292.073 31.0954 312.39C31.885 345.875 49.6528 396.816 69.1973 408.553C69.2467 408.602 69.296 408.602 69.296 408.602C70.2338 409.145 71.1715 409.638 72.1092 409.983C76.9954 411.906 82.8686 412.695 89.2847 412.695C121.119 412.695 166.032 392.822 168.993 391.49C187.452 397.95 210.698 394.992 220.865 384.882C220.963 384.783 221.013 384.586 220.963 384.438C218.101 378.323 198.951 376.548 191.745 376.104ZM169.092 390.751C168.993 390.701 168.894 390.701 168.795 390.751C168.154 391.046 101.969 420.882 72.4054 409.243C71.517 408.898 70.5792 408.454 69.7402 407.912L69.6415 407.863C50.245 396.274 32.6747 345.677 31.885 312.39C31.3915 292.517 36.6725 280.632 46.5928 278.906C46.8889 278.906 53.6012 279.054 62.2383 290.84C70.1844 301.738 81.2892 325.064 89.0379 374.329C89.0379 374.427 89.1367 374.575 89.2354 374.625C89.3341 374.674 89.4821 374.723 89.5809 374.674C89.6796 374.625 98.218 371.962 111.05 370.877C124.327 369.743 144.414 370.088 164.502 378.422C164.6 378.471 164.748 378.471 164.847 378.373C164.896 378.323 170.77 374.921 178.123 372.208C185.724 369.397 192.288 368.362 197.076 369.2C197.964 369.348 198.902 369.595 199.741 369.891C200.185 370.039 200.728 370.334 200.777 370.778C200.827 371.222 200.432 371.814 199.741 372.356C199.247 372.701 198.606 372.997 197.964 373.195C197.619 373.293 196.928 373.54 196.039 373.836C193.868 374.575 190.215 375.808 188.982 375.956C188.784 376.006 188.636 376.153 188.636 376.4C188.636 376.597 188.833 376.795 189.031 376.795C189.327 376.795 216.275 377.781 220.075 384.636C209.957 394.4 187.205 397.161 169.092 390.751Z" fill="#252B31"/>
<path d="M150.435 161.883C144.957 152.957 138.343 146.744 134 143.242C133.457 142.798 132.914 142.404 132.421 142.009C132.52 142.157 132.668 142.305 132.766 142.503C132.914 142.601 133.112 142.749 133.211 142.946C133.359 143.144 133.507 143.39 133.655 143.588C133.852 143.735 134.099 143.933 134.198 144.031C134.395 144.278 134.494 144.574 134.494 144.919C134.642 145.018 134.741 145.116 134.889 145.264C135.234 145.609 135.629 145.905 136.024 146.3C140.071 149.949 145.204 155.324 149.596 162.475C157.493 175.445 164.452 196.896 153.397 226.189C153.199 226.633 153.051 227.126 152.854 227.619C152.804 227.668 152.804 227.767 152.755 227.866C152.706 227.964 152.706 228.014 152.656 228.112C152.558 228.309 152.656 228.556 152.804 228.704C152.854 228.753 152.854 228.753 152.903 228.753C152.953 228.753 153.002 228.803 153.101 228.803C153.298 228.803 153.792 227.964 153.89 227.668C153.989 227.422 154.088 227.126 154.186 226.879C165.587 196.946 158.48 175.05 150.435 161.883Z" fill="#252B31"/>
<path d="M130.101 239.652C130.052 239.602 129.953 239.553 129.854 239.504C129.213 239.405 128.522 239.257 127.88 239.109C127.831 239.109 127.831 239.109 127.781 239.109C127.535 239.06 127.337 239.011 127.091 238.912C122.994 237.679 119.835 235.657 119.786 235.657C119.539 235.509 119.243 235.559 119.095 235.805C118.947 236.052 118.996 236.348 119.243 236.496C119.391 236.594 122.451 238.567 126.498 239.8C126.646 239.849 126.844 239.898 126.992 239.948C127.14 239.997 127.337 240.046 127.485 240.095C128.176 240.293 128.867 240.441 129.608 240.539C129.608 240.539 129.657 240.539 129.706 240.539C129.953 240.539 130.151 240.391 130.2 240.145C130.249 239.948 130.2 239.8 130.101 239.652C130.101 239.701 130.101 239.652 130.101 239.652Z" fill="#252B31"/>
<path d="M146.734 219.137C146.684 219.137 141.749 220.764 131.927 221.06C131.73 221.06 131.532 221.208 131.483 221.356C131.434 221.553 131.483 221.751 131.631 221.899C131.779 222.046 135.086 225.005 139.182 225.005C139.528 225.005 139.873 225.005 140.219 224.956C142.933 224.611 145.352 222.885 147.277 219.877C147.375 219.679 147.375 219.482 147.277 219.334C147.129 219.137 146.931 219.088 146.734 219.137ZM140.12 223.97C137.307 224.315 134.741 222.934 133.359 221.997C139.676 221.751 143.772 220.912 145.697 220.419C144.069 222.54 142.193 223.723 140.12 223.97Z" fill="#252B31"/>
<path d="M157.148 177.614C156.901 177.565 150.781 176.727 142.884 181.905C139.824 183.927 137.603 186.836 136.024 190.091C134.543 188.661 132.915 187.379 131.039 186.343C123.981 182.25 115.887 181.855 109.076 185.11C108.977 185.406 108.731 185.653 108.385 185.751C108.336 186.096 108.138 186.392 107.892 186.54C108.04 186.59 108.188 186.59 108.336 186.54C115.097 182.792 123.389 182.99 130.595 187.132C132.47 188.217 134.198 189.548 135.629 190.978C133.704 195.515 133.013 200.595 133.161 204.984C133.211 206.069 133.507 209.767 136.073 211.099C136.665 211.395 137.307 211.543 137.998 211.543C139.627 211.543 141.305 210.655 142.144 209.175C142.687 208.238 142.884 207.104 142.884 205.625C142.785 200.052 140.614 194.874 136.814 190.781C138.294 187.526 140.416 184.617 143.427 182.644C150.978 177.664 156.95 178.502 157 178.502C157.246 178.551 157.493 178.354 157.543 178.107C157.592 177.91 157.395 177.664 157.148 177.614ZM141.897 205.723C141.897 207.055 141.7 207.992 141.305 208.781C140.367 210.408 138.097 211.148 136.517 210.31C134.839 209.422 134.198 207.006 134.099 205.033C134 201.039 134.642 196.206 136.369 191.866C139.824 195.713 141.798 200.545 141.897 205.723Z" fill="#252B31"/>
<path d="M348.003 128.3C347.904 128.547 347.707 128.793 347.41 128.991C347.114 129.138 346.719 129.237 346.226 129.286C345.189 129.385 344.104 129.336 343.067 129.336C332.505 129.73 324.707 132.738 320.117 143.094C318.883 145.955 318.192 148.667 317.649 151.281C317.6 151.527 317.551 151.823 317.501 152.119C317.156 154.042 316.86 155.916 316.514 157.741C316.465 158.037 316.416 158.283 316.366 158.579C315.774 161.489 314.935 164.349 313.257 167.16C313.109 167.406 312.961 167.702 312.763 167.949C311.826 169.379 310.69 170.76 309.21 172.14C305.212 175.938 300.77 179.587 298.697 184.716C296.575 189.894 297.217 195.762 298.45 201.187C300.967 211.888 303.287 222.392 303.188 233.487C303.188 233.882 303.188 234.276 303.188 234.671C303.188 234.967 303.188 235.263 303.139 235.608C302.843 243.054 301.412 250.402 298.154 257.503C292.972 268.796 281.867 280.089 269.183 283.147C269.035 283.196 268.837 283.245 268.689 283.245C264.741 284.133 260.694 284.182 256.597 283.245C250.527 281.815 245.048 277.919 241.692 272.643C238.928 268.254 237.744 263.175 237.744 257.997C237.744 254.643 238.237 251.24 239.076 247.986C240.261 243.498 242.087 239.257 244.357 235.608C250.132 226.287 257.239 218.003 256.795 206.414C255.907 181.954 250.872 166.617 263.951 138.508C269.825 125.933 284.335 114.196 297.513 110.498C310.641 106.799 327.52 111.78 339.859 118.93C341.093 119.67 348.792 125.834 348.003 128.3Z" fill="#252B31"/>
<path d="M364.043 229.394C364.043 230.528 362.414 230.43 361.23 230.183C361.131 230.183 361.082 230.183 360.983 230.134C360.638 230.085 360.391 229.986 360.243 229.937C355.11 228.309 349.878 226.929 344.597 225.893C341.291 225.252 337.935 224.857 334.529 224.561C332.95 224.414 330.63 224.561 328.755 224.118H328.705L328.162 223.97C327.274 223.674 326.534 223.181 326.04 222.392C325.448 221.405 325.25 220.271 325.102 219.137C324.954 217.904 324.905 216.671 324.855 215.438C324.855 213.121 325.053 210.803 325.497 208.534C325.941 206.217 326.385 204.195 327.669 202.518C328.212 201.828 328.903 201.137 329.791 200.595C333.937 197.932 337.145 194.973 339.711 192.014L339.761 191.965C344.153 186.885 346.572 181.905 348.348 179.044C348.743 178.403 349.138 177.861 349.484 177.466C349.582 177.516 349.632 177.713 349.632 178.058C349.78 180.031 349.089 186.195 349.237 189.055C349.533 195.466 349.484 202.074 351.26 208.337C353.432 216.079 358.417 222.046 363.402 228.161C363.5 228.26 363.599 228.408 363.698 228.556C363.846 228.753 363.994 229.049 364.043 229.394Z" fill="#252B31"/>
<path d="M328.705 224.068C326.533 231.071 322.98 235.509 318.094 237.235C316.416 237.827 314.688 238.074 313.01 238.074C309.111 238.074 305.459 236.742 303.04 235.608C301.313 234.819 300.276 234.079 300.128 234.03L300.573 233.339C300.622 233.339 301.56 233.981 303.09 234.72C306.347 236.298 312.319 238.419 317.797 236.496C322.437 234.819 325.842 230.578 327.915 223.871L328.113 223.92L328.705 224.068Z" fill="#252B31"/>
<path d="M237.695 258.046C236.017 269.931 236.954 287.782 245.493 313.82C245.493 313.82 245.493 313.87 245.493 313.919L244.555 314.215C244.555 314.165 244.506 314.067 244.506 314.018C233.154 279.399 235.177 259.081 239.027 248.035C239.077 247.887 239.126 247.788 239.175 247.641C243.42 235.608 250.428 232.057 250.724 231.909L251.169 232.797C251.119 232.846 244.209 236.397 240.113 248.084C239.126 250.797 238.238 254.051 237.695 258.046Z" fill="#252B31"/>
<path d="M273.132 309.826C263.754 310.812 254.574 312.193 245.493 313.87C236.954 287.832 236.017 269.931 237.695 258.095C237.695 263.273 238.879 268.353 241.643 272.741C244.999 278.018 250.428 281.914 256.548 283.344C260.645 284.281 264.741 284.232 268.64 283.344L268.344 283.443C268.393 283.541 273.428 297.103 273.132 309.826Z" fill="white"/>
<path d="M273.97 309.727C273.97 310.122 273.97 310.565 273.921 310.96L273.082 310.911C273.082 310.565 273.131 310.171 273.131 309.826C273.428 297.103 268.393 283.541 268.344 283.443L268.64 283.344L269.134 283.147C269.134 283.147 269.134 283.147 269.134 283.196C269.529 284.232 274.217 297.349 273.97 309.727Z" fill="#252B31"/>
<path d="M395.334 261.054C395.433 285.563 390.103 308.938 388.622 314.955C388.375 315.892 388.276 316.434 388.227 316.434L387.437 316.237C387.437 316.187 387.585 315.694 387.783 314.807C389.263 308.84 394.594 285.514 394.495 261.054C394.446 239.898 375.395 232.156 363.994 229.394C359.157 228.211 355.702 227.964 355.604 227.964L355.653 227.175C355.752 227.175 359.058 227.422 363.648 228.507C375.247 231.17 395.235 239.011 395.334 261.054Z" fill="#252B31"/>
<path d="M357.331 310.072C343.215 308.445 328.804 307.607 314.145 307.607C300.523 307.607 287.099 308.346 273.971 309.727C274.267 297.349 269.529 284.232 269.183 283.196C281.867 280.139 292.972 268.895 298.154 257.553C301.362 250.451 302.843 243.104 303.139 235.657C305.558 236.791 309.21 238.123 313.109 238.123C314.787 238.123 316.514 237.876 318.192 237.285C323.079 235.559 326.632 231.12 328.804 224.118C330.679 224.562 332.999 224.414 334.578 224.562C337.934 224.857 341.291 225.252 344.647 225.893C349.928 226.929 355.159 228.309 360.292 229.937C360.44 229.986 360.736 230.085 361.032 230.134C360.687 231.663 353.827 262.484 363.648 274.32C362.562 276.539 355.505 292.812 357.331 310.072Z" fill="white"/>
<path d="M394.495 261.054C394.594 285.514 389.263 308.84 387.783 314.807C378.06 312.883 368.189 311.305 358.12 310.122C356.146 291.875 364.29 274.615 364.389 274.418L364.487 274.172L364.29 273.974C354.468 262.533 361.625 230.578 361.674 230.282L361.131 230.183C362.316 230.43 363.944 230.529 363.944 229.444V229.394C375.444 232.156 394.446 239.898 394.495 261.054Z" fill="white"/>
<path d="M364.389 274.467C364.29 274.665 356.146 291.925 358.121 310.171C358.269 311.502 358.466 312.834 358.713 314.165L357.923 314.313C357.627 312.883 357.43 311.453 357.282 310.023C355.455 292.812 362.513 276.489 363.5 274.32C353.679 262.435 360.539 231.663 360.884 230.134L361.131 230.183L361.674 230.282C361.625 230.578 354.468 262.533 364.29 273.974L364.487 274.172L364.389 274.467Z" fill="#252B31"/>
<path d="M353.481 154.93C353.432 154.831 353.284 154.733 353.136 154.733C352.988 154.733 352.79 154.733 352.642 154.683C352.445 154.683 352.247 154.683 352.05 154.634C350.47 154.535 348.842 154.437 346.028 154.88C339.711 155.867 334.924 157.938 331.469 161.193C327.52 155.669 320.167 152.365 317.6 151.33C317.107 151.133 316.761 151.034 316.662 150.985C316.465 150.886 316.218 151.034 316.169 151.231C316.119 151.428 316.218 151.675 316.416 151.774C316.416 151.774 316.81 151.922 317.452 152.168C320.117 153.253 327.175 156.557 330.926 161.784C330.63 162.08 330.383 162.376 330.136 162.672C325.299 168.343 324.214 175.494 325.645 179.587C326.188 181.116 327.027 182.053 328.014 182.25C328.261 182.299 328.458 182.299 328.705 182.299C329.741 182.299 330.679 181.855 331.568 180.968C334.233 178.255 335.17 172.091 333.789 166.075C333.443 164.546 332.801 163.116 331.962 161.834C335.269 158.628 339.958 156.606 346.177 155.669C348.891 155.275 350.47 155.374 352 155.472C352.247 155.472 352.445 155.522 352.691 155.522C352.839 155.522 352.988 155.522 353.136 155.522C353.284 155.522 353.432 155.423 353.481 155.324C353.53 155.275 353.53 155.226 353.53 155.127C353.58 155.078 353.53 154.979 353.481 154.93ZM332.949 166.321C334.479 173.077 332.949 178.354 330.926 180.475C330.334 181.066 329.347 181.757 328.113 181.51C327.422 181.362 326.78 180.573 326.336 179.34C325.25 176.184 325.497 169.28 330.679 163.215C330.877 162.968 331.074 162.721 331.321 162.524C332.11 163.658 332.653 164.941 332.949 166.321Z" fill="#252B31"/>
<path d="M330.926 180.425C330.334 181.017 329.347 181.707 328.113 181.461C327.422 181.313 326.78 180.524 326.336 179.291C325.25 176.135 325.497 169.231 330.679 163.165C330.877 162.919 331.074 162.672 331.321 162.475C332.061 163.658 332.604 164.941 332.95 166.272C334.48 173.028 332.999 178.354 330.926 180.425Z" fill="white"/>
<path d="M352.395 166.913C352.395 167.899 352.05 168.738 351.458 169.428C350.767 170.217 349.779 170.661 348.644 170.661C348.546 170.661 348.496 170.661 348.397 170.661C348.397 170.661 348.348 170.661 348.299 170.661C348.249 170.661 348.249 170.661 348.2 170.661C346.325 170.464 344.893 168.886 344.893 166.962C344.893 164.891 346.571 163.215 348.595 163.215C348.743 163.215 348.94 163.215 349.088 163.215C350.47 163.363 351.606 164.3 352.099 165.532C352.297 165.927 352.395 166.42 352.395 166.913Z" fill="#252B31"/>
<path d="M323.029 163.363C323.029 164.25 322.733 165.089 322.19 165.73C321.499 166.568 320.463 167.11 319.278 167.11C318.883 167.11 318.489 167.061 318.094 166.913C316.613 166.42 315.527 165.039 315.527 163.363C315.527 161.439 317.008 159.812 318.883 159.615C319.032 159.615 319.13 159.615 319.278 159.615C320.858 159.615 322.24 160.601 322.782 161.982C322.931 162.426 323.029 162.869 323.029 163.363Z" fill="#252B31"/>
<path d="M352.691 154.683C352.494 154.683 352.297 154.683 352.099 154.634C350.52 154.535 348.891 154.437 346.078 154.88C339.76 155.867 334.973 157.938 331.518 161.193C327.57 155.669 320.216 152.365 317.649 151.33C318.143 148.667 318.834 145.955 320.117 143.144C324.707 132.788 332.505 129.73 343.067 129.385C344.104 129.336 345.189 129.385 346.226 129.336C346.719 129.286 347.114 129.188 347.41 129.04C348.99 133.232 352.247 143.094 352.691 154.683Z" fill="white"/>
<path d="M353.185 163.461C353.185 163.51 353.185 163.609 353.185 163.708C352.938 166.075 352.543 168.491 351.951 170.858C351.951 170.908 351.951 170.957 351.902 171.006C351.359 173.324 350.618 175.642 349.631 177.91C349.533 178.157 349.434 178.354 349.335 178.601C345.14 188.414 337.885 196.354 327.619 202.419C323.276 204.984 318.39 207.203 312.961 209.077C312.911 209.077 312.862 209.077 312.813 209.077C312.665 209.077 312.467 208.978 312.418 208.781C312.368 208.584 312.467 208.337 312.665 208.288C324.016 204.392 332.999 198.918 339.612 191.915L339.662 191.866C343.265 188.02 346.127 183.68 348.249 178.946C348.348 178.749 348.447 178.551 348.496 178.354C349.483 176.036 350.273 173.718 350.865 171.401C350.964 171.105 351.013 170.809 351.063 170.562C351.161 170.217 351.211 169.823 351.309 169.477C351.606 168.195 351.803 166.864 352 165.582C352.099 164.99 352.148 164.447 352.198 163.856C352.247 163.56 352.247 163.313 352.297 163.017C352.543 160.502 352.593 157.987 352.543 155.571C352.543 155.275 352.543 155.028 352.543 154.733C352.148 143.144 348.891 133.281 347.262 128.99C346.719 127.61 346.374 126.771 346.374 126.771C346.275 126.574 346.374 126.328 346.571 126.229C346.769 126.13 347.016 126.229 347.114 126.426C347.114 126.475 347.41 127.117 347.904 128.349C349.533 132.492 353.037 142.798 353.382 154.979C353.382 155.127 353.382 155.275 353.382 155.374C353.58 157.987 353.481 160.7 353.185 163.461Z" fill="#252B31"/>
<path d="M322.19 165.73C322.733 165.088 323.029 164.25 323.029 163.362C323.029 162.869 322.93 162.426 322.782 161.982C323.621 162.623 324.411 163.362 325.151 164.201C324.608 164.546 323.621 165.138 322.19 165.73Z" fill="white"/>
<path d="M318.143 166.913C316.662 167.209 315.034 167.308 313.208 167.209C314.886 164.398 315.725 161.538 316.317 158.628C317.008 158.826 317.896 159.171 318.883 159.664C317.008 159.861 315.527 161.439 315.527 163.412C315.527 165.039 316.613 166.42 318.143 166.913Z" fill="white"/>
<path d="M326.139 164.349C326.139 164.447 326.089 164.546 325.99 164.595C325.793 164.743 321.302 168.047 314.54 168.047C313.948 168.047 313.356 168.047 312.714 167.949C312.072 167.899 311.431 167.801 310.74 167.702C310.542 167.653 310.394 167.456 310.394 167.209C310.444 167.012 310.641 166.864 310.888 166.864C311.678 167.012 312.467 167.11 313.208 167.16C314.984 167.258 316.662 167.16 318.143 166.864C319.722 166.568 321.104 166.124 322.239 165.68C323.671 165.089 324.658 164.497 325.151 164.152C324.411 163.313 323.621 162.573 322.782 161.932C321.45 160.897 320.117 160.157 318.883 159.565C317.896 159.121 317.008 158.776 316.317 158.53C315.428 158.234 314.886 158.135 314.886 158.135C314.688 158.086 314.54 157.889 314.589 157.642C314.639 157.445 314.836 157.297 315.083 157.346C315.132 157.346 315.675 157.494 316.514 157.741C318.735 158.431 322.98 160.157 326.089 164.004C326.139 164.102 326.139 164.201 326.139 164.349Z" fill="#252B31"/>
<path d="M348.2 170.612C343.314 170.168 339.859 166.617 338.823 165.434C342.87 163.51 346.226 163.067 348.595 163.116C346.522 163.116 344.893 164.793 344.893 166.864C344.893 168.836 346.325 170.414 348.2 170.612Z" fill="white"/>
<path d="M352.346 163.806C352.297 164.398 352.198 164.941 352.148 165.532C351.655 164.3 350.52 163.363 349.138 163.215C350.767 163.264 351.852 163.609 352.346 163.806Z" fill="white"/>
<path d="M351.457 169.379C351.359 169.724 351.309 170.119 351.211 170.464C350.224 170.612 349.286 170.661 348.397 170.612C348.496 170.612 348.546 170.612 348.644 170.612C349.73 170.661 350.766 170.168 351.457 169.379Z" fill="white"/>
<path d="M353.185 163.461C353.185 163.51 353.185 163.609 353.185 163.708C353.086 163.905 352.84 164.004 352.642 163.905C352.642 163.905 352.543 163.856 352.346 163.806C351.852 163.609 350.767 163.313 349.138 163.165C348.99 163.165 348.842 163.165 348.644 163.165C346.275 163.116 342.919 163.51 338.872 165.483C339.909 166.667 343.363 170.168 348.25 170.661C348.299 170.661 348.299 170.661 348.348 170.661C348.348 170.661 348.398 170.661 348.447 170.661C349.335 170.71 350.273 170.71 351.26 170.513C351.359 170.513 351.458 170.464 351.507 170.464C351.704 170.414 351.951 170.562 352 170.76C352 170.809 352 170.809 352 170.858C352 170.908 352.001 170.957 351.951 171.006C351.902 171.105 351.803 171.203 351.655 171.253C351.458 171.302 351.211 171.302 351.013 171.351C350.421 171.45 349.878 171.45 349.335 171.45C342.475 171.45 337.984 165.582 337.934 165.532C337.885 165.434 337.836 165.335 337.885 165.187C337.934 165.089 337.984 164.99 338.082 164.891C345.683 161.094 350.865 162.327 352.494 162.919C352.84 163.017 352.988 163.116 353.037 163.116C353.086 163.264 353.185 163.363 353.185 163.461Z" fill="#252B31"/>
<path d="M329.643 190.189C329.593 190.042 329.396 189.894 329.248 189.943C329.199 189.943 322.585 190.288 319.821 186.54C319.723 186.392 319.525 186.343 319.377 186.392C319.229 186.442 319.081 186.639 319.13 186.787C319.13 186.984 319.574 191.62 322.486 192.852C322.98 193.05 323.473 193.148 324.016 193.148C325.596 193.148 327.422 192.31 329.544 190.633C329.692 190.584 329.742 190.387 329.643 190.189ZM322.783 192.113C321.203 191.422 320.463 189.4 320.117 188.069C322.536 190.239 326.139 190.683 328.014 190.732C325.892 192.261 324.164 192.704 322.783 192.113Z" fill="#252B31"/>
<path d="M337.984 164.941C345.584 161.143 350.767 162.376 352.395 162.968C352.642 160.453 352.692 157.938 352.642 155.522C352.395 155.522 352.198 155.522 351.951 155.472C350.421 155.374 348.842 155.275 346.127 155.669C339.909 156.656 335.22 158.678 331.913 161.834C332.752 163.116 333.394 164.546 333.739 166.075C335.121 172.091 334.183 178.206 331.518 180.968C330.679 181.855 329.692 182.299 328.656 182.299C328.409 182.299 328.212 182.299 327.965 182.25C326.978 182.053 326.089 181.116 325.596 179.587C324.164 175.494 325.25 168.343 330.087 162.672C330.334 162.376 330.63 162.08 330.877 161.784C327.175 156.508 320.068 153.204 317.452 152.168C317.107 154.091 316.811 155.965 316.465 157.79C318.686 158.48 322.931 160.206 326.04 164.053C326.089 164.152 326.139 164.25 326.139 164.349C326.139 164.447 326.089 164.546 325.991 164.595C325.793 164.743 321.302 168.047 314.54 168.047C313.948 168.047 313.356 168.047 312.714 167.949C311.776 169.379 310.641 170.76 309.161 172.14C305.163 175.938 300.721 179.587 298.648 184.716C296.526 189.894 297.167 195.762 298.401 201.187C300.918 211.888 303.238 222.392 303.139 233.487C303.139 233.882 303.139 234.276 303.139 234.671C306.397 236.249 312.369 238.369 317.847 236.446C322.486 234.77 325.892 230.528 327.965 223.822L328.162 223.871C327.274 223.575 326.533 223.082 326.04 222.293C325.448 221.307 325.25 220.172 325.102 219.038C324.954 217.805 324.905 216.573 324.855 215.34C324.855 213.022 325.053 210.704 325.497 208.436C325.941 206.118 326.385 204.096 327.669 202.419C323.325 204.984 318.439 207.203 313.01 209.077C312.961 209.077 312.912 209.077 312.862 209.077C312.714 209.077 312.517 208.978 312.467 208.781C312.418 208.584 312.517 208.337 312.714 208.288C324.066 204.392 333.048 198.918 339.662 191.915L339.711 191.866C344.104 186.787 346.522 181.806 348.299 178.946C348.398 178.749 348.496 178.551 348.546 178.354C349.533 176.036 350.322 173.718 350.915 171.401C350.322 171.499 349.78 171.499 349.237 171.499C342.376 171.499 337.885 165.631 337.836 165.582C337.786 165.483 337.737 165.384 337.786 165.236C337.836 165.088 337.885 164.99 337.984 164.941ZM329.544 190.683C327.422 192.359 325.596 193.198 324.016 193.198C323.473 193.198 322.931 193.099 322.486 192.902C319.574 191.62 319.13 187.033 319.13 186.836C319.13 186.639 319.229 186.491 319.377 186.442C319.525 186.392 319.722 186.442 319.821 186.589C322.585 190.337 329.199 189.992 329.248 189.992C329.396 189.992 329.593 190.091 329.643 190.239C329.742 190.387 329.692 190.584 329.544 190.683Z" fill="white"/>
<path d="M322.782 192.113C324.164 192.704 325.892 192.211 328.063 190.732C326.188 190.683 322.536 190.239 320.167 188.069C320.463 189.45 321.203 191.422 322.782 192.113Z" fill="white"/>
</g>
<path d="M351.193 17.3924C344.334 6.20906 328.206 1.48011 315.922 0.297872C302.426 -0.996201 288.58 1.97537 276.727 8.25402C271.957 10.7783 268.144 14.4208 265.959 19.4374C261.939 28.6077 271.415 36.3082 278.561 40.2544C288.484 45.7342 299.89 47.9389 311.312 47.7632C319.639 47.6354 328.254 46.1975 336.23 43.7851C342.802 41.7881 351.943 37.794 353.953 30.397C354.304 29.071 354.336 27.6811 354.208 26.3231C353.905 23.1598 352.852 20.1084 351.193 17.3924Z" fill="#F28BDC"/>
<path d="M308.424 60.0809C305.617 60.6081 301.979 61.7264 300.033 63.9311C299.571 64.4424 299.188 65.0974 299.22 65.7844C299.252 66.8228 300.145 67.6056 301.038 68.1488C304.644 70.3695 309.365 71.376 313.577 71.2961C316.991 71.2322 322.096 70.6571 324.536 67.9092C325.51 66.8228 325.159 65.4648 324.265 64.4583C320.484 60.1767 313.816 59.0744 308.424 60.0809Z" fill="#F28BDC"/>
<path d="M316.768 82.0161C314.056 80.9937 310.929 80.9138 308.185 81.8404C306.367 82.4475 302.331 84.5564 304.261 87.0327C304.628 87.5119 305.17 87.8155 305.712 88.0392C308.52 89.2054 312.205 89.1894 315.14 88.6463C316.528 88.3906 317.9 87.9753 319.208 87.4001C322.686 85.8664 318.666 82.7351 316.768 82.0161Z" fill="#F28BDC"/>
<defs>
<clipPath id="clip0">
<rect width="618.169" height="354.915" fill="white" transform="translate(0.939453 109.265)"/>
</clipPath>
</defs>
</svg>
